<?xml version="1.0" standalone="no"?>
<!DOCTYPE svg PUBLIC "-//W3C//DTD SVG 1.1//EN" "http://www.w3.org/Graphics/SVG/1.1/DTD/svg11.dtd" >
<svg xmlns="http://www.w3.org/2000/svg" xmlns:xlink="http://www.w3.org/1999/xlink" version="1.1">
<metadata>
Created by FontForge 20230101 at Mon Aug 20 01:02:24 2018
 By Unknown
Copyright (c) 2016 Swiss Typefaces Sarl. All rights reserved. |DCNT
</metadata>
<defs>
<font id="SuisseIntl-Medium" horiz-adv-x="0" >
  <font-face 
    font-family="Suisse Intl Medium"
    font-weight="500"
    font-stretch="normal"
    units-per-em="1000"
    panose-1="2 11 5 4 0 0 0 0 0 0"
    ascent="750"
    descent="-250"
    x-height="538"
    cap-height="725"
    bbox="-223 -679 2813 1132"
    underline-thickness="70"
    underline-position="-250"
    unicode-range="U+0020-FEFC"
  />
<missing-glyph horiz-adv-x="500" 
d="M0 0v725h500v-725h-500zM239 362l-220 334v-667zM260 362l221 -333v667zM250 346l-217 -327h433zM33 706l217 -328l216 328h-433z" />
    <glyph glyph-name="uniFC43" unicode="&#xfedf;&#xfef0;" horiz-adv-x="853" arabic-form="isolated" 
d="M663 725h110v-534q0 -88 -55 -138q-24 -22 -59 -36q-36 -108 -124 -168q-94 -64 -238 -64q-124 0 -195.5 72.5t-71.5 206.5q0 15 0.5 29.5t2.5 28.5t3 24t4.5 24.5t5 22t6.5 23t7 22t7.5 24t7.5 23.5h105q-44 -112 -44 -206t46.5 -136.5t141.5 -42.5q101 0 165 42
q36 22 60 58h-137l19 115h129q58 0 81 20t23 64v526z" />
    <glyph glyph-name="uniFC86" unicode="&#xfee0;&#xfef0;" horiz-adv-x="877" arabic-form="final" 
d="M663 725h110v-526q0 -44 23 -64t81 -20q10 0 10 -10v-94q0 -11 -10 -11q-102 0 -160 53l-8 7l-2 -2q-16 -16 -38 -30q-1 0 -8 -5q-35 -113 -126 -174q-94 -64 -238 -64q-124 0 -195.5 72.5t-71.5 206.5q0 15 0.5 29.5t2.5 28.5t3 24t4.5 24.5t5 22t6.5 23t7 22t7.5 24
t7.5 23.5h105q-44 -112 -44 -206t46.5 -136.5t141.5 -42.5q101 0 165 42q36 22 60 58h-137l19 115h129q41 0 73 12q21 8 35 18q-4 20 -4 46v534z" />
    <glyph glyph-name="uniFEF5" unicode="&#xfedf;&#xfe82;" horiz-adv-x="595" arabic-form="isolated" 
d="M352 775h110v-237q0 -76 -21 -140q-8 -24 -13 -36l63 -56q74 -66 74 -144q0 -66 -44.5 -114t-140.5 -48h-315l-50 115q100 59 157.5 99t95.5 83q19 22 34 46l-272 247l4 10h131l177 -160q10 41 10 98v237zM278 180q-42 -31 -105 -65h226q56 0 56 47q0 41 -45 83l-34 30
q-43 -54 -98 -95zM72 768q22 0 65 -18.5t65 -18.5q45 0 80 26l-1 -76q-33 -25 -77 -25q-24 0 -62.5 18.5t-57.5 18.5q-45 0 -51 -39h-60q0 52 27 83t72 31z" />
    <glyph glyph-name="uniFEF6" unicode="&#xfee0;&#xfe82;" horiz-adv-x="671" arabic-form="final" 
d="M457 725h110v-526q0 -44 23 -64t81 -20q10 0 10 -10v-94q0 -11 -10 -11q-102 0 -160 53l-3 2q-54 -24 -107 -37q-71 -18 -140 -18q-145 0 -241 34v110q92 -26 212 -29v6q-2 27 -6 55q-2 17 -6 36.5t-12 55t-16.5 72t-25.5 111t-34 149.5h115q75 -335 85 -414q3 -24 2 -50
v-19q61 4 129 19q-6 26 -6 55v534zM147 771q22 0 65 -18.5t65 -18.5q45 0 80 26l-1 -76q-33 -25 -77 -25q-24 0 -62.5 18.5t-57.5 18.5q-45 0 -51 -39h-60q0 52 27 83t72 31z" />
    <glyph glyph-name="uniFEF7" unicode="&#xfedf;&#xfe84;" horiz-adv-x="595" arabic-form="isolated" 
d="M352 775h110v-237q0 -76 -21 -140q-8 -24 -13 -36l63 -56q74 -66 74 -144q0 -66 -44.5 -114t-140.5 -48h-315l-50 115q100 59 157.5 99t95.5 83q19 22 34 46l-272 247l4 10h131l177 -160q10 41 10 98v237zM278 180q-42 -31 -105 -65h226q56 0 56 47q0 41 -45 83l-34 30
q-43 -54 -98 -95zM120 733h116l-20 -70h-167q-37 0 -75 -12v68q28 10 40 11l28 3l-8 10q-16 20 -16 47q0 39 28 65.5t68 26.5q46 0 84 -20v-66q-43 16 -66 16q-21 0 -36 -11.5t-15 -31.5q0 -16 13 -26q10 -8 26 -10z" />
    <glyph glyph-name="uniFEF8" unicode="&#xfee0;&#xfe84;" horiz-adv-x="671" arabic-form="final" 
d="M457 725h110v-526q0 -44 23 -64t81 -20q10 0 10 -10v-94q0 -11 -10 -11q-102 0 -160 53l-3 2q-54 -24 -107 -37q-71 -18 -140 -18q-145 0 -241 34v110q92 -26 212 -29v6q-2 27 -6 55q-2 17 -6 36.5t-12 55t-16.5 72t-25.5 111t-34 149.5h115q75 -335 85 -414q3 -24 2 -50
v-19q61 4 129 19q-6 26 -6 55v534zM191 733h116l-20 -70h-167q-37 0 -75 -12v68q28 10 39 11l29 3l-9 10q-15 21 -15 47q0 39 28 65.5t68 26.5q46 0 84 -20v-66q-43 16 -66 16q-21 0 -36 -11.5t-15 -31.5q0 -16 13 -26q10 -8 26 -10z" />
    <glyph glyph-name="uniFEF9" unicode="&#xfedf;&#xfe88;" horiz-adv-x="595" arabic-form="isolated" 
d="M352 775h110v-237q0 -76 -21 -140q-8 -24 -13 -36l63 -56q74 -66 74 -144q0 -66 -44.5 -114t-140.5 -48h-315l-50 115q100 59 157.5 99t95.5 83q19 22 34 46l-272 247l4 10h131l177 -160q10 41 10 98v237zM278 180q-42 -31 -105 -65h226q56 0 56 47q0 41 -45 83l-34 30
q-43 -54 -98 -95zM318 -191h114l-20 -70h-167q-37 0 -75 -12v68q26 9 40 12q16 2 28 2l-8 10q-16 20 -16 47q0 39 28 65.5t68 26.5q46 0 84 -20v-66q-43 16 -66 16q-21 0 -36 -11.5t-15 -31.5q0 -16 13 -26q14 -9 28 -10z" />
    <glyph glyph-name="uniFEFA" unicode="&#xfee0;&#xfe88;" horiz-adv-x="671" arabic-form="final" 
d="M457 725h110v-526q0 -44 23 -64t81 -20q10 0 10 -10v-94q0 -11 -10 -11q-102 0 -160 53l-3 2q-54 -24 -107 -37q-71 -18 -140 -18q-145 0 -241 34v110q92 -26 212 -29v6q-2 27 -6 55q-2 17 -6 36.5t-12 55t-16.5 72t-25.5 111t-34 149.5h115q75 -335 85 -414q3 -24 2 -50
v-19q61 4 129 19q-6 26 -6 55v534zM303 -192h109l-20 -70h-167q-37 0 -75 -12v68q26 9 39 12q16 2 29 2l-9 10q-15 21 -15 47q0 39 28 65.5t68 26.5q46 0 84 -20v-66q-43 16 -66 16q-21 0 -36 -11.5t-15 -31.5q0 -16 13 -26t33 -10z" />
    <glyph glyph-name="uniFEFB" unicode="&#xfedf;&#xfe8e;" horiz-adv-x="595" arabic-form="isolated" 
d="M352 775h110v-237q0 -76 -21 -140q-8 -24 -13 -36l63 -56q74 -66 74 -144q0 -66 -44.5 -114t-140.5 -48h-315l-50 115q100 59 157.5 99t95.5 83q19 22 34 46l-272 247l4 10h131l177 -160q10 41 10 98v237zM278 180q-42 -31 -105 -65h226q56 0 56 47q0 41 -45 83l-34 30
q-43 -54 -98 -95z" />
    <glyph glyph-name="uniFEFC" unicode="&#xfee0;&#xfe8e;" horiz-adv-x="671" arabic-form="final" 
d="M457 725h110v-526q0 -44 23 -64t81 -20q10 0 10 -10v-94q0 -11 -10 -11q-102 0 -160 53l-3 2q-54 -24 -107 -37q-71 -18 -140 -18q-145 0 -241 34v110q92 -26 212 -29v6q-2 27 -6 55q-2 17 -6 36.5t-12 55t-16.5 72t-25.5 111t-34 149.5h115q75 -335 85 -414q3 -24 2 -50
v-19q61 4 129 19q-6 26 -6 55v534z" />
    <glyph glyph-name="uni0407_uni0407" unicode="&#x407;&#x407;" horiz-adv-x="532" 
d="M212 725v-725h-127v725h127zM447 725v-725h-127v725h127zM418 884h123v-108h-123v108zM205 884h123v-108h-123v108zM-8 884h123v-108h-123v108z" />
    <glyph glyph-name="uni0457_uni0457" unicode="&#x457;&#x457;" horiz-adv-x="498" 
d="M307 538h119v-538h-119v538zM72 538h119v-538h-119v538zM-27 725h105v-111h-105v111zM421 725h105v-111h-105v111zM197 725h105v-111h-105v111z" />
    <glyph glyph-name="uniFEDF_uniFB51" unicode="&#xfedf;&#xfb51;" horiz-adv-x="595" 
d="M352 775h110v-237q0 -76 -21 -140q-8 -24 -13 -36l63 -56q74 -66 74 -144q0 -66 -44.5 -114t-140.5 -48h-315l-50 115q100 59 157.5 99t95.5 83q19 22 34 46l-272 247l4 10h131l177 -160q10 41 10 98v237zM278 180q-42 -31 -105 -65h226q56 0 56 47q0 41 -45 83l-34 30
q-43 -54 -98 -95zM194 837q41 0 67.5 -26t26.5 -65q0 -49 -40 -76t-113 -27q-76 0 -152 30l20 64q35 -12 41 -13q14 20 32 39q61 74 118 74zM135 713q77 0 77 33q0 24 -30 24q-21 0 -49 -20q-11 -8 -38 -35q30 -2 40 -2z" />
    <glyph glyph-name="uniFEE0_uniFB51" unicode="&#xfee0;&#xfb51;" horiz-adv-x="671" 
d="M457 725h110v-526q0 -44 23 -64t81 -20q10 0 10 -10v-94q0 -11 -10 -11q-102 0 -160 53l-3 2q-54 -24 -107 -37q-71 -18 -140 -18q-145 0 -241 34v110q92 -26 212 -29v6q-2 27 -6 55q-2 17 -6 36.5t-12 55t-16.5 72t-25.5 111t-34 149.5h115q75 -335 85 -414q3 -24 2 -50
v-19q61 4 129 19q-6 26 -6 55v534zM257 840q41 0 67.5 -26t26.5 -65q0 -49 -40 -76t-113 -27q-76 0 -152 30l20 64q35 -12 41 -13q14 20 32 39q61 74 118 74zM198 716q77 0 77 33q0 24 -30 24q-21 0 -49 -20q-15 -11 -39 -35q30 -2 41 -2z" />
    <glyph glyph-name="uni066E.init" unicode="&#x66e;" horiz-adv-x="264" 
d="M74 485h110q30 -214 30 -294q0 -87 -56 -139t-158 -52q-10 0 -10 11v94q0 10 10 10q58 0 81 20t23 64q0 72 -30 286z" />
    <glyph glyph-name="uni066E.medi" unicode="&#x66e;" horiz-adv-x="300" 
d="M113 370h102q0 -91 -11 -162q-6 -35 -17 -69q27 -12 42 -16q37 -8 71 -8q10 0 10 -10v-94q0 -11 -10 -11q-56 0 -101 22q-26 13 -55 36q-52 -58 -144 -58q-10 0 -10 11v94q0 10 10 10q67 0 90 50q23 53 23 205z" />
    <glyph glyph-name="uni066E.fina" unicode="&#x66e;" horiz-adv-x="831" 
d="M644 370h102q0 -146 -27 -231q49 -24 112 -24q10 0 10 -10v-94q0 -11 -10 -11q-87 0 -156 58q-52 -58 -146 -58h-233q-128 0 -197 64t-69 182q0 64 25 194h105q-20 -105 -20 -168q0 -85 38.5 -121t142.5 -36h210q67 0 90 50q23 53 23 205z" />
    <glyph glyph-name="uni066F.fina" unicode="&#x66f;" horiz-adv-x="769" 
d="M494 485q92 0 149 -59.5t63 -168.5l2 -38q2 -50 2 -98v-6h59q10 0 10 -10v-94q0 -11 -10 -11h-61q-5 -33 -18 -61q-34 -74 -119 -114t-214 -40q-170 0 -248.5 68.5t-78.5 210.5q0 15 0.5 29.5t2.5 28.5t3 24t4.5 24.5t5 22t6.5 23t7 22t7.5 24t7.5 23.5h105
q-44 -112 -44 -206q0 -96 56 -138.5t189 -42.5q83 0 137 23t74 61l9 18h-71q-121 0 -193.5 63.5t-72.5 172.5q0 108 65.5 178.5t165.5 70.5zM601 154l-6 94q-10 122 -104 122q-51 0 -84.5 -36.5t-33.5 -93.5q0 -125 171 -125h59q0 15 -2 39z" />
    <glyph glyph-name="uni06A1.init" unicode="&#x6a1;" horiz-adv-x="522" 
d="M264 495q93 0 155.5 -66t62.5 -164q0 -120 -71 -192.5t-188 -72.5h-223q-10 1 -10 11v94q0 10 10 10h98q0 1 -1 2.5t-2 2.5t-1 2q-8 14 -18 27q-42 64 -42 130q0 91 66 153.5t164 62.5zM209 115h17q67 0 106 37t39 103q0 54 -31.5 89t-81.5 35q-51 0 -82.5 -34t-31.5 -83
q0 -40 33 -90q12 -19 27 -46q4 -5 5 -11z" />
    <glyph glyph-name="uni06A1.medi" unicode="&#x6a1;" horiz-adv-x="534" 
d="M268 495q95 0 158 -63.5t63 -163.5q0 -63 -45 -121q-11 -13 -23 -26l17 -2q32 -4 96 -4q10 0 10 -10v-94q0 -11 -10 -11q-85 0 -180 19q-39 7 -76 18q-1 -1 -3 -1q-123 -36 -275 -36q-10 1 -10 11v94q0 10 10 10q66 0 102 4q6 0 9 1q-15 13 -24 25q-43 52 -43 123
q0 92 64.5 159.5t159.5 67.5zM351 174q27 36 27 82q0 55 -31 89t-82 34q-49 0 -80 -33t-31 -86q0 -47 28 -84q27 -36 80 -54q63 16 89 52z" />
    <glyph glyph-name="uni06A1.fina" unicode="&#x6a1;" horiz-adv-x="953" 
d="M687 495q95 0 158 -63.5t63 -163.5q0 -63 -45 -121q-10 -14 -23 -26l17 -2q32 -4 96 -4q10 0 10 -10v-94q0 -11 -10 -11q-85 0 -180 19q-39 7 -76 18q-1 -1 -3 -1q-123 -36 -275 -36q-10 1 -10 11v94q0 10 10 10q66 0 102 4q6 0 9 1q-15 13 -24 25q-43 52 -43 123
q0 92 64.5 159.5t159.5 67.5zM770 174q27 36 27 82q0 55 -31 89t-82 34q-49 0 -80 -33t-31 -86q0 -47 28 -84q27 -36 80 -54q63 16 89 52zM49 388h105q-14 -73 -14 -116q0 -85 38.5 -121t142.5 -36h114q10 0 10 -10v-94q0 -11 -10 -11h-139q-127 0 -196 63.5t-69 179.5
q0 61 18 145z" />
    <glyph glyph-name="uni06AA.init" unicode="&#x6aa;" horiz-adv-x="807" 
d="M259 725h150l-266 -285h374q111 0 180.5 -60.5t69.5 -159.5q0 -100 -61.5 -160t-162.5 -60h-543q-10 0 -10 11v94q0 10 10 10h531q60 0 93 26.5t33 74.5q0 52 -35.5 80.5t-101.5 28.5h-433l-65 115z" />
    <glyph glyph-name="uni06AA.medi" unicode="&#x6aa;" horiz-adv-x="851" 
d="M259 725h150l-266 -285h374q111 0 180.5 -60.5t69.5 -159.5q0 -100 -61.5 -160t-162.5 -60h-543q-10 0 -10 11v94q0 10 10 10h531q60 0 93 26.5t33 74.5q0 52 -35.5 80.5t-101.5 28.5h-433l-65 115zM656 95l50 63q65 -43 145 -43q10 0 10 -10v-94q0 -11 -10 -11
q-106 0 -195 95z" />
    <glyph glyph-name="uni06AA.fina" unicode="&#x6aa;" horiz-adv-x="949" 
d="M360 725h150l-266 -285h374q111 0 180.5 -60.5t69.5 -159.5q0 -100 -61.5 -160t-162.5 -60h-396q-68 0 -117.5 15t-105.5 53l52 98q86 -51 171 -51h384q60 0 93 26.5t33 74.5q0 52 -35.5 80.5t-101.5 28.5h-433l-65 115zM754 95l50 63q65 -43 145 -43q10 0 10 -10v-94
q0 -11 -10 -11q-106 0 -195 95z" />
    <glyph glyph-name="uni06C2.fina" unicode="&#x6c2;" horiz-adv-x="535" 
d="M348 538h110v-345q0 -39 17 -58.5t60 -19.5q10 0 10 -10v-94q0 -11 -10 -11q-49 0 -83 15q-31 13 -54 38q-37 -22 -69 -35q-41 -18 -91 -18q-94 0 -151 54t-57 143q0 70 42 136.5t137 111.5q59 26 139 38v55zM206 325q-66 -47 -66 -119q0 -45 26 -68.5t74 -23.5
q38 0 69 7q21 4 47 15q-8 35 -8 72v169q-88 -13 -142 -52zM402 671h116l-20 -70h-167q-37 0 -75 -12v68q28 10 40 11l28 3l-8 10q-16 20 -16 47q0 39 28 65.5t68 26.5q46 0 84 -20v-66q-43 16 -66 16q-21 0 -36 -11.5t-15 -31.5q0 -16 13 -26q10 -8 26 -10z" />
    <glyph glyph-name="uni06C3.fina" unicode="&#x6c3;" horiz-adv-x="628" 
d="M300 440q67 0 113.5 -41t92.5 -138q3 -6 14.5 -31t16.5 -35t16.5 -29t21 -27.5t24 -16t29.5 -7.5q10 0 10 -10v-94q0 -11 -10 -11q-71 0 -119.5 43t-87.5 144q-31 77 -54.5 107.5t-65.5 30.5q-39 0 -67.5 -33.5t-71.5 -127.5l-37 -84l-95 45l37 84q56 128 108 179.5
t125 51.5zM133 602l88 88l76 -74l75 74l89 -88l-88 -88l-76 74l-75 -74z" />
    <glyph glyph-name="uniFB51" unicode="&#x671;" horiz-adv-x="294" arabic-form="final" 
d="M80 600h110v-401q0 -44 23 -64t81 -20q10 0 10 -10v-94q0 -11 -10 -11q-103 0 -158.5 52t-55.5 139v409zM188 819q41 0 67.5 -26t26.5 -65q0 -49 -40 -76t-113 -27q-76 0 -152 30l20 64q35 -12 41 -13q14 20 32 39q61 74 118 74zM129 695q77 0 77 33q0 24 -30 24
q-21 0 -49 -20q-11 -8 -38 -35q30 -2 40 -2z" />
    <glyph glyph-name="uniFB57" unicode="&#x67e;" horiz-adv-x="831" arabic-form="final" 
d="M644 370h102q0 -146 -27 -231q49 -24 112 -24q10 0 10 -10v-94q0 -11 -10 -11q-87 0 -156 58q-52 -58 -142 -58h-2h-235q-128 0 -197 64t-69 182q0 64 25 194h105q-20 -105 -20 -168q0 -85 38.5 -121t142.5 -36h210q67 0 90 50q23 53 23 205zM268 -158l88 88l81 -79
l80 79l89 -88l-88 -89l-81 80l-80 -80zM367 -289l70 71l71 -71l-70 -70z" />
    <glyph glyph-name="uniFB58" unicode="&#x67e;" horiz-adv-x="339" arabic-form="initial" 
d="M154 485h110q30 -214 30 -294q0 -87 -56 -139t-158 -52h-80q-10 0 -10 11v94q0 10 10 10h80q58 0 81 20t23 64q0 72 -30 286zM-38 -148l88 88l81 -79l80 79l89 -88l-88 -89l-81 80l-80 -80zM61 -279l70 71l71 -71l-70 -70z" />
    <glyph glyph-name="uniFB59" unicode="&#x67e;" horiz-adv-x="370" arabic-form="medial" 
d="M145 370h102q0 -87 -7 -150q-5 -36 -12 -65q29 -17 64 -27q40 -13 78 -13q10 0 10 -10v-94q0 -11 -10 -11q-54 0 -110 27q-35 19 -70 48q-22 -31 -57 -49q-52 -26 -133 -26q-10 0 -10 11v94q0 10 10 10q90 0 119 48q17 28 21.5 73.5t4.5 133.5zM-3 -151l88 88l81 -79
l80 79l89 -88l-88 -89l-81 80l-80 -80zM96 -282l70 71l71 -71l-70 -70z" />
    <glyph glyph-name="uniFB67" unicode="&#x679;" horiz-adv-x="831" arabic-form="final" 
d="M644 370h102q0 -146 -27 -231q49 -24 112 -24q10 0 10 -10v-94q0 -11 -10 -11q-87 0 -156 58q-51 -58 -144 -58h-235q-128 0 -197 64t-69 182q0 64 25 194h105q-20 -105 -20 -168q0 -85 38.5 -121t142.5 -36h217q62 2 83 50q23 53 23 205zM345 670h60v-103q65 76 122 76
q46 0 73.5 -28t27.5 -68q0 -49 -49.5 -78t-132.5 -29h-131l-36 65h66v165zM514 578q-23 0 -46 -15.5t-67 -57.5h45q107 0 107 42q0 14 -11 22.5t-28 8.5z" />
    <glyph glyph-name="uniFB68" unicode="&#x679;" horiz-adv-x="383" arabic-form="initial" 
d="M154 485h110q30 -214 30 -294q0 -87 -56 -139t-158 -52h-80q-10 0 -10 11v94q0 10 10 10h80q58 0 81 20t23 64q0 72 -30 286zM80 768h60v-102q22 25 43 41q44 34 79 34q46 0 73.5 -28t27.5 -68q0 -49 -49.5 -78t-132.5 -29h-131l-36 65h66v165zM138 603h43q107 0 107 42
q0 14 -11 22.5t-28 8.5q-35 0 -95 -57z" />
    <glyph glyph-name="uniFB69" unicode="&#x679;" horiz-adv-x="370" arabic-form="medial" 
d="M145 370h102q0 -87 -7 -150q-5 -36 -12 -65q29 -17 64 -27q40 -13 78 -13q10 0 10 -10v-94q0 -11 -10 -11q-54 0 -110 27q-35 19 -70 48q-22 -31 -57 -49q-52 -26 -133 -26q-10 0 -10 11v94q0 10 10 10q90 0 119 48q17 28 21.5 73.5t4.5 133.5zM80 671h60v-102
q22 25 43 41q44 34 79 34q46 0 73.5 -28t27.5 -68q0 -49 -49.5 -78t-132.5 -29h-131l-36 65h66v165zM138 506h43q107 0 107 42q0 14 -11 22.5t-28 8.5q-35 0 -95 -57l-5 -5t-5.5 -6t-5.5 -5z" />
    <glyph glyph-name="uniFB6B" unicode="&#x6a4;" horiz-adv-x="953" arabic-form="final" 
d="M687 495q95 0 158 -63.5t63 -163.5q0 -63 -45 -121q-10 -14 -23 -26l17 -2q32 -4 96 -4q10 0 10 -10v-94q0 -11 -10 -11q-85 0 -180 19q-39 7 -76 18q-1 -1 -3 -1q-123 -36 -275 -36q-10 1 -10 11v94q0 10 10 10q66 0 102 4q6 0 9 1q-15 13 -24 25q-43 52 -43 123
q0 92 64.5 159.5t159.5 67.5zM770 174q27 36 27 82q0 55 -31 89t-82 34q-49 0 -80 -33t-31 -86q0 -47 28 -84q27 -36 80 -54q63 16 89 52zM49 388h105q-14 -73 -14 -116q0 -85 38.5 -121t142.5 -36h114q10 0 10 -10v-94q0 -11 -10 -11h-139q-127 0 -196 63.5t-69 179.5
q0 61 18 145zM521 627l88 89l81 -80l80 80l89 -89l-88 -88l-81 79l-80 -79zM619 756l70 71l71 -71l-70 -70z" />
    <glyph glyph-name="uniFB6C" unicode="&#x6a4;" horiz-adv-x="522" arabic-form="initial" 
d="M264 495q93 0 155.5 -66t62.5 -164q0 -120 -71 -192.5t-188 -72.5h-223q-10 1 -10 11v94q0 10 10 10h98q0 1 -1 2.5t-2 2.5t-1 2q-8 14 -18 27q-42 64 -42 130q0 91 66 153.5t164 62.5zM209 115h17q67 0 106 37t39 103q0 54 -31.5 89t-81.5 35q-51 0 -82.5 -34t-31.5 -83
q0 -40 33 -90q12 -19 27 -46q4 -5 5 -11zM98 627l88 89l81 -80l80 80l89 -89l-88 -88l-81 79l-80 -79zM196 756l70 71l71 -71l-70 -70z" />
    <glyph glyph-name="uniFB6D" unicode="&#x6a4;" horiz-adv-x="534" arabic-form="medial" 
d="M268 495q95 0 158 -63.5t63 -163.5q0 -63 -45 -121q-11 -13 -23 -26l17 -2q32 -4 96 -4q10 0 10 -10v-94q0 -11 -10 -11q-85 0 -180 19q-39 7 -76 18q-1 -1 -3 -1q-123 -36 -275 -36q-10 1 -10 11v94q0 10 10 10q66 0 102 4q6 0 9 1q-15 13 -24 25q-43 52 -43 123
q0 92 64.5 159.5t159.5 67.5zM351 174q27 36 27 82q0 55 -31 89t-82 34q-49 0 -80 -33t-31 -86q0 -47 28 -84q27 -36 80 -54q63 16 89 52zM105 627l88 89l81 -80l80 80l89 -89l-88 -88l-81 79l-80 -79zM203 756l70 71l71 -71l-70 -70z" />
    <glyph glyph-name="uniFB7B" unicode="&#x686;" horiz-adv-x="651" arabic-form="final" 
d="M199 538q41 0 83.5 -18.5t81 -46.5t77 -57.5t86 -56t94.5 -37.5l-30 -110q-29 0 -57 -4v-23q0 -70 117 -70q10 0 10 -10v-94q0 -11 -10 -11q-192 0 -192 167v30l-47 -11q-110 -27 -186 -81t-76 -126q0 -41 17 -74t63 -80l-109 -40q-81 83 -81 178q0 65 28.5 118t79 90
t110 61.5t131.5 40.5q30 7 64 12q-26 15 -50 32q-5 4 -34 25.5t-37 26.5t-31.5 20t-36.5 19.5t-32.5 9.5t-37.5 5q-54 0 -120 -23v105q54 33 125 33zM278 -154l88 88l81 -79l80 79l89 -88l-88 -89l-81 80l-80 -80zM377 -285l70 71l71 -71l-70 -70z" />
    <glyph glyph-name="uniFB7C" unicode="&#x686;" horiz-adv-x="611" arabic-form="initial" 
d="M189 485q50 0 101.5 -25t90 -56.5t96 -66t114.5 -48.5l-30 -110q-66 -11 -118.5 -34t-89 -46.5t-79.5 -46.5t-111 -37.5t-162 -14.5q-11 0 -11 11v94q0 10 11 10q44 0 82 3t74.5 10.5t59.5 12.5t57 19t45.5 18.5t48 22.5t41.5 20q4 2 17 7.5t20 8.5q-30 14 -63 37
q-6 5 -25 18.5t-25.5 18t-23 15.5t-25 15t-23 11.5t-25.5 10t-24.5 5t-27.5 2.5q-54 0 -120 -23v105q54 33 125 33zM112 -154l88 88l81 -79l80 79l89 -88l-88 -89l-81 80l-80 -80zM211 -285l70 71l71 -71l-70 -70z" />
    <glyph glyph-name="uniFB7D" unicode="&#x686;" horiz-adv-x="631" arabic-form="medial" 
d="M189 485q50 0 101.5 -25t90 -56.5t96 -66t114.5 -48.5l-30 -110l-46 -9q6 -20 23 -34q27 -21 93 -21q10 0 10 -10v-94q0 -11 -10 -11q-174 0 -190 145q-33 -14 -59 -30q-9 -5 -43 -26t-48 -28t-49 -22.5t-64.5 -21.5t-76 -11.5t-100.5 -5.5q-11 0 -11 11v94q0 10 11 10
q44 0 82 3t74.5 10.5t59.5 12.5t57 19t45.5 18.5t48 22.5t41.5 20q4 2 17 7.5t20 8.5q-30 14 -63 37q-6 5 -25 18.5t-25.5 18t-23 15.5t-25 15t-23 11.5t-25.5 10t-24.5 5t-27.5 2.5q-54 0 -120 -23v105q54 33 125 33zM112 -154l88 88l81 -79l80 79l89 -88l-88 -89l-81 80
l-80 -80zM211 -285l70 71l71 -71l-70 -70z" />
    <glyph glyph-name="uniFB89" unicode="&#x688;" horiz-adv-x="513" arabic-form="final" 
d="M10 34v110q100 -29 181 -29q49 0 82 4q18 2 46 8q-14 30 -19 47q-34 100 -73 311h115q36 -218 58 -286q28 -84 113 -84q10 0 10 -10v-94q0 -11 -10 -11q-85 0 -140 52q-37 -24 -78 -37q-50 -15 -104 -15q-51 0 -85.5 6.5t-95.5 27.5zM152 768h60v-102q22 25 43 41
q44 34 79 34q46 0 73.5 -28t27.5 -68q0 -49 -49.5 -78t-132.5 -29h-131l-36 65h66v165zM210 603h43q107 0 107 42q0 14 -11 22.5t-28 8.5q-35 0 -95 -57z" />
    <glyph glyph-name="uniFB8B" unicode="&#x698;" horiz-adv-x="347" arabic-form="final" 
d="M108 440h110q14 -90 22 -200l3 -42l3 -23q5 -33 28.5 -46.5t72.5 -13.5q10 0 10 -10v-94q0 -11 -10 -11q-67 0 -96 35l-2 3v-16q0 -112 -70 -174.5t-189 -62.5v105q72 0 112.5 35.5t40.5 104.5q0 135 -35 410zM-10 594l88 89l81 -80l80 80l89 -89l-88 -88l-81 79l-80 -79
zM88 723l70 71l71 -71l-70 -70z" />
    <glyph glyph-name="uniFB8D" unicode="&#x691;" horiz-adv-x="347" arabic-form="final" 
d="M108 440h110q14 -90 22 -200l3 -42l3 -23q5 -33 28.5 -46.5t72.5 -13.5q10 0 10 -10v-94q0 -11 -10 -11q-67 0 -96 35l-2 3v-16q0 -112 -70 -174.5t-189 -62.5v105q72 0 112.5 35.5t40.5 104.5q0 135 -35 410zM58 725h60v-102q22 25 43 41q44 34 79 34q46 0 73.5 -28
t27.5 -68q0 -49 -49.5 -78t-132.5 -29h-131l-36 65h66v165zM115 560h44q107 0 107 42q0 14 -11 22.5t-28 8.5q-35 0 -95 -57z" />
    <glyph glyph-name="uniFB8F" unicode="&#x6a9;" horiz-adv-x="987" arabic-form="final" 
d="M56 440h105q-20 -105 -20 -168q0 -85 38.5 -121t142.5 -36h234q10 0 10 -10v-94q0 -11 -10 -11h-259q-128 0 -197 64t-69 182q0 64 25 194zM705 795h160v-5l-347 -291l160 -70q192 -86 192 -223q0 -95 -71.5 -150.5t-194.5 -55.5h-282q-10 0 -10 11v94q0 10 10 10h290
q66 0 107 23.5t41 60.5t-32 67t-107 64l-245 108v77zM792 95l50 63q65 -43 145 -43q10 0 10 -10v-94q0 -11 -10 -11q-106 0 -195 95z" />
    <glyph glyph-name="uniFB90" unicode="&#x6a9;" horiz-adv-x="578" arabic-form="initial" 
d="M383 795h160v-5l-347 -291l160 -70q192 -86 192 -223q0 -95 -71.5 -150.5t-194.5 -55.5h-282q-10 0 -10 11v94q0 10 10 10h290q66 0 107 23.5t41 60.5t-32 67t-107 64l-245 108v77z" />
    <glyph glyph-name="uniFB91" unicode="&#x6a9;" horiz-adv-x="645" arabic-form="medial" 
d="M383 795h160v-5l-347 -291l160 -70q192 -86 192 -223q0 -95 -71.5 -150.5t-194.5 -55.5h-282q-10 0 -10 11v94q0 10 10 10h290q66 0 107 23.5t41 60.5t-32 67t-107 64l-245 108v77zM450 95l50 63q65 -43 145 -43q10 0 10 -10v-94q0 -11 -10 -11q-106 0 -195 95z" />
    <glyph glyph-name="uniFB93" unicode="&#x6af;" horiz-adv-x="987" arabic-form="final" 
d="M56 440h105q-20 -105 -20 -168q0 -85 38.5 -121t142.5 -36h234q10 0 10 -10v-94q0 -11 -10 -11h-259q-128 0 -197 64t-69 182q0 64 25 194zM705 795h160v-5l-347 -291l160 -70q192 -86 192 -223q0 -95 -71.5 -150.5t-194.5 -55.5h-282q-10 0 -10 11v94q0 10 10 10h290
q66 0 107 23.5t41 60.5t-32 67t-107 64l-245 108v77zM792 95l50 63q65 -43 145 -43q10 0 10 -10v-94q0 -11 -10 -11q-106 0 -195 95zM545 795v-4l-227 -209l-44 47l171 166h100z" />
    <glyph glyph-name="uniFB94" unicode="&#x6af;" horiz-adv-x="728" arabic-form="initial" 
d="M533 795h160v-5l-347 -291l160 -70q192 -86 192 -223q0 -95 -71.5 -150.5t-194.5 -55.5h-282q-10 0 -10 11v94q0 10 10 10h290q66 0 107 23.5t41 60.5t-32 67t-107 64l-245 108v77zM337 795v-4l-227 -209l-44 47l171 166h100zM0 115h194q10 0 10 -10v-94q0 -11 -10 -11
h-194q-10 0 -10 11v94q0 10 10 10z" />
    <glyph glyph-name="uniFB95" unicode="&#x6af;" horiz-adv-x="805" arabic-form="medial" 
d="M543 795h160v-5l-347 -291l160 -70q192 -86 192 -223q0 -95 -71.5 -150.5t-194.5 -55.5h-282q-10 0 -10 11v94q0 10 10 10h290q66 0 107 23.5t41 60.5t-32 67t-107 64l-245 108v77zM610 95l50 63q65 -43 145 -43q10 0 10 -10v-94q0 -11 -10 -11q-106 0 -195 95zM347 795
v-4l-227 -209l-44 47l171 166h100zM0 115h194q10 0 10 -10v-94q0 -11 -10 -11h-194q-10 0 -10 11v94q0 10 10 10z" />
    <glyph glyph-name="uniFB9F" unicode="&#x6ba;" horiz-adv-x="686" arabic-form="final" 
d="M440 440h110q12 -78 25 -183q5 -29 6 -57l4 -25q5 -33 28.5 -46.5t72.5 -13.5q10 0 10 -10v-94q0 -11 -10 -11q-67 0 -96 35q-3 3 -7 11q-4 -35 -17 -72q-29 -89 -100.5 -139t-178.5 -50q-124 0 -190.5 71.5t-66.5 207.5q0 15 0.5 29.5t2.5 28.5t3 24t4.5 24.5t5 22
t6.5 23t7 22t7.5 24t7.5 23.5h105q-44 -112 -44 -206q0 -81 39 -130t121 -49q185 0 185 199q0 17 -0.5 35t-3 42.5t-4 39t-6.5 50t-7 49.5t-9.5 61t-9.5 64z" />
    <glyph glyph-name="uniFBA7" unicode="&#x6c1;" horiz-adv-x="628" arabic-form="final" 
d="M300 440q67 0 113.5 -41t92.5 -138q3 -6 14.5 -31t16.5 -35t16.5 -29t21 -27.5t24 -16t29.5 -7.5q10 0 10 -10v-94q0 -11 -10 -11q-71 0 -119.5 43t-87.5 144q-31 77 -54.5 107.5t-65.5 30.5q-39 0 -67.5 -33.5t-71.5 -127.5l-37 -84l-95 45l37 84q56 128 108 179.5
t125 51.5z" />
    <glyph glyph-name="uniFBA8" unicode="&#x6c1;" horiz-adv-x="274" arabic-form="initial" 
d="M88 -45h85l-49 -106h65l-20 -124h-133v122zM74 485h110q30 -214 30 -294q0 -87 -56 -139t-158 -52q-10 0 -10 11v94q0 10 10 10q58 0 81 20t23 64q0 72 -30 286z" />
    <glyph glyph-name="uniFBA9" unicode="&#x6c1;" horiz-adv-x="725" arabic-form="medial" 
d="M119 370h110v-334q0 -189 187 -196v40q0 112 51 173.5t145 61.5h113q10 0 10 -11v-94q0 -10 -10 -10h-113q-51 0 -73.5 -30.5t-22.5 -99.5v-45l-93 -100q-304 0 -304 314q-6 -4 -9 -7q-43 -32 -110 -32q-10 0 -10 11v94q0 10 10 10q119 0 119 82v173zM609 -45h85
l-49 -106h65l-20 -124h-133v122z" />
    <glyph glyph-name="uniFBAB" unicode="&#x6be;" horiz-adv-x="624" arabic-form="final" 
d="M333 570h87q150 -131 150 -282q0 -93 -64 -160q12 -3 36 -7q41 -6 82 -6q10 0 10 -11v-94q0 -10 -10 -10q-25 0 -45 4l-43 12q19 -22 27 -41q10 -21 10 -43q0 -66 -47.5 -106.5t-126.5 -40.5q-128 0 -202 91q-25 31 -41 68q-40 -29 -82 -64l-64 83q54 52 117 95
q-3 30 -3 63q0 129 53 246t156 203zM297 138q163 48 163 147q0 65 -32 115q-28 43 -66 73q-21 -18 -40 -43q-89 -120 -89 -287v-28q17 7 64 23zM338 33q-44 -13 -80 -31q10 -22 21 -38q44 -65 115 -65q79 0 79 54q0 30 -16 59q-13 24 -37 53q-31 -16 -82 -32z" />
    <glyph glyph-name="uniFBAC" unicode="&#x6be;" horiz-adv-x="761" arabic-form="initial" 
d="M238 565v115q225 0 354 -101t129 -280q0 -80 -48 -212l-107 -100q-125 0 -252 43l-28 9l-11 -3q-123 -36 -275 -36q-10 1 -10 11v94q0 10 10 10q66 0 102 4q6 0 9 1q-15 13 -24 25q-43 52 -43 123q0 92 64.5 159.5t159.5 67.5t158 -63.5t63 -163.5q0 -62 -45 -120
q-16 -21 -29 -33q23 -5 43 -6q49 -6 108 -6q44 103 44 190q0 124 -99.5 198t-272.5 74zM351 174q27 36 27 82q0 55 -31 89t-82 34q-49 0 -80 -33t-31 -86q0 -47 28 -84q27 -36 80 -54q63 16 89 52z" />
    <glyph glyph-name="uniFBAD" unicode="&#x6be;" horiz-adv-x="553" arabic-form="medial" 
d="M262 570h87q150 -131 150 -282q0 -75 -39 -129q-7 -11 -25 -31q12 -3 36 -7q41 -6 82 -6q10 0 10 -11v-94q0 -10 -10 -10q-25 0 -45 4l-43 12q19 -22 27 -41q10 -21 10 -43q0 -66 -47.5 -106.5t-126.5 -40.5q-93 0 -159.5 50t-96.5 139l-8 27q-21 -1 -64 -1q-10 0 -10 11
v94q0 10 10 10q36 0 53 1q2 67 14 123q45 208 195 331zM157 124l19 4q213 37 213 157q0 65 -32 115q-28 42 -65 73q-24 -21 -44 -48q-42 -56 -66.5 -134t-24.5 -159v-8zM196 17l-20 -4q12 -30 29 -53q47 -61 118 -61q79 0 79 54q0 30 -16 59q-15 28 -38 54q-63 -32 -152 -49
z" />
    <glyph glyph-name="uniFBAF" unicode="&#x6d2;" horiz-adv-x="740" arabic-form="final" 
d="M273 115h467q10 0 10 -10v-94q0 -11 -10 -11h-498q-92 0 -92 -50t120 -50h359l-48 -115h-287q-254 0 -254 159q0 171 233 171z" />
    <glyph glyph-name="uniFBB1" unicode="&#x6d3;" horiz-adv-x="740" arabic-form="final" 
d="M273 115h467q10 0 10 -10v-94q0 -11 -10 -11h-498q-92 0 -92 -50t120 -50h359l-48 -115h-287q-254 0 -254 159q0 171 233 171zM374 320h94l-27 -90h-132q-52 0 -106 -17v87q38 13 56 16l-1 1q-21 23 -21 56q0 44 31 74t86 30q33 0 74 -21v-84q-41 14 -72 14
q-20 0 -32.5 -9t-12.5 -23q0 -34 63 -34z" />
    <glyph glyph-name="uniFBFD" unicode="&#x6cc;" horiz-adv-x="676" arabic-form="final" 
d="M480 34v110q135 -29 196 -29q10 0 10 -10v-94q0 -11 -10 -11h-3q-17 -42 -41 -73q-105 -142 -325 -142q-125 0 -201 73t-76 206q0 15 0.5 29.5t2.5 28.5t3 24t4.5 24.5t5 22t6.5 23t7 22t7.5 24t7.5 23.5h105q-44 -112 -44 -206q0 -179 198 -179q100 0 170 42
q44 26 71 68q-6 2 -18 4.5t-15 3.5q-17 5 -61 16z" />
    <glyph glyph-name="uniFBFE" unicode="&#x6cc;" horiz-adv-x="339" arabic-form="initial" 
d="M154 485h110q30 -214 30 -294q0 -87 -56 -139t-158 -52h-80q-10 0 -10 11v94q0 10 10 10h80q58 0 81 20t23 64q0 72 -30 286zM-21 -153l88 88l76 -74l75 74l89 -88l-88 -88l-76 74l-75 -74z" />
    <glyph glyph-name="uniFBFF" unicode="&#x6cc;" horiz-adv-x="370" arabic-form="medial" 
d="M145 370h102q0 -87 -7 -150q-5 -36 -12 -65q29 -17 64 -27q40 -13 78 -13q10 0 10 -10v-94q0 -11 -10 -11q-54 0 -110 27q-35 19 -70 48q-22 -31 -57 -49q-52 -26 -133 -26q-10 0 -10 11v94q0 10 10 10q90 0 119 48q17 28 21.5 73.5t4.5 133.5zM2 -154l88 88l76 -74
l75 74l89 -88l-88 -88l-76 74l-75 -74z" />
    <glyph glyph-name="uniFC02" unicode="&#xfc02;" horiz-adv-x="546" arabic-form="isolated" 
d="M397 532h10l69 -70q-100 -88 -100 -167q0 -55 38 -98q32 -37 86 -75l16 -10l-60 -104q-47 4 -86 28q-30 18 -51 42q-19 7 -40 10q-31 6 -57 6q-82 0 -82 -79q0 -76 30 -290h-110q-30 214 -30 298q0 81 52.5 134t130.5 53q30 0 85 -11l-6 11q-26 50 -26 104q0 124 131 218
zM429 691h94l-27 -90h-132q-52 0 -106 -17v87q38 13 56 16l-1 1q-21 22 -21 56q0 44 31 74t86 30q33 0 74 -21v-84q-41 14 -72 14q-20 0 -32.5 -9t-12.5 -23q0 -34 63 -34z" />
    <glyph glyph-name="uniFC03" unicode="&#xfc03;" horiz-adv-x="868" arabic-form="isolated" 
d="M663 485h110q30 -214 30 -294q0 -91 -56 -141q-37 -34 -91 -44q-37 -100 -121 -157q-94 -64 -238 -64q-124 0 -195.5 72.5t-71.5 206.5q0 15 0.5 29.5t2.5 28.5t3 24t4.5 24.5t5 22t6.5 23t7 22t7.5 24t7.5 23.5h105q-44 -112 -44 -206t46.5 -136.5t141.5 -42.5
q101 0 165 42q36 22 60 58h-137l19 115h159q58 0 81 20t23 64q0 72 -30 286zM756 626h94l-27 -90h-132q-52 0 -106 -17v87q38 13 56 16l-1 1q-21 23 -21 56q0 44 31 74t86 30q33 0 74 -21v-84q-41 14 -72 14q-20 0 -32.5 -9t-12.5 -23q0 -34 63 -34z" />
    <glyph glyph-name="uniFC04" unicode="&#xfc04;" horiz-adv-x="868" arabic-form="isolated" 
d="M663 485h110q30 -214 30 -294q0 -91 -56 -141q-37 -34 -91 -44q-37 -100 -121 -157q-94 -64 -238 -64q-124 0 -195.5 72.5t-71.5 206.5q0 15 0.5 29.5t2.5 28.5t3 24t4.5 24.5t5 22t6.5 23t7 22t7.5 24t7.5 23.5h105q-44 -112 -44 -206t46.5 -136.5t141.5 -42.5
q101 0 165 42q36 22 60 58h-137l19 115h159q58 0 81 20t23 64q0 72 -30 286zM756 626h94l-27 -90h-132q-52 0 -106 -17v87q38 13 56 16l-1 1q-21 23 -21 56q0 44 31 74t86 30q33 0 74 -21v-84q-41 14 -72 14q-20 0 -32.5 -9t-12.5 -23q0 -34 63 -34zM244 -348l88 88l76 -74
l75 74l89 -88l-88 -88l-76 74l-75 -74z" />
    <glyph glyph-name="uniFC08" unicode="&#xfc08;" horiz-adv-x="546" arabic-form="isolated" 
d="M397 532h10l69 -70q-100 -88 -100 -167q0 -55 38 -98q32 -37 86 -75l16 -10l-60 -104q-47 4 -86 28q-30 18 -51 42q-19 7 -40 10q-31 6 -57 6q-82 0 -82 -79q0 -76 30 -290h-110q-30 214 -30 298q0 81 52.5 134t130.5 53q30 0 85 -11l-6 11q-26 50 -26 104q0 124 131 218
zM235 -152l88 88l89 -88l-88 -88z" />
    <glyph glyph-name="uniFC09" unicode="&#xfc09;" horiz-adv-x="865" arabic-form="isolated" 
d="M663 485h110q30 -214 30 -294q0 -91 -56 -141q-37 -34 -91 -44q-37 -100 -121 -157q-94 -64 -238 -64q-124 0 -195.5 72.5t-71.5 206.5q0 15 0.5 29.5t2.5 28.5t3 24t4.5 24.5t5 22t6.5 23t7 22t7.5 24t7.5 23.5h105q-44 -112 -44 -206t46.5 -136.5t141.5 -42.5
q101 0 165 42q36 22 60 58h-137l19 115h159q58 0 81 20t23 64q0 72 -30 286zM638 -152l88 88l89 -88l-88 -88z" />
    <glyph glyph-name="uniFC0A" unicode="&#xfc0a;" horiz-adv-x="865" arabic-form="isolated" 
d="M663 485h110q30 -214 30 -294q0 -91 -56 -141q-37 -34 -91 -44q-37 -100 -121 -157q-94 -64 -238 -64q-124 0 -195.5 72.5t-71.5 206.5q0 15 0.5 29.5t2.5 28.5t3 24t4.5 24.5t5 22t6.5 23t7 22t7.5 24t7.5 23.5h105q-44 -112 -44 -206t46.5 -136.5t141.5 -42.5
q101 0 165 42q36 22 60 58h-137l19 115h159q58 0 81 20t23 64q0 72 -30 286zM638 -152l88 88l89 -88l-88 -88zM244 -348l88 88l76 -74l75 74l89 -88l-88 -88l-76 74l-75 -74z" />
    <glyph glyph-name="uniFC0E" unicode="&#xfc0e;" horiz-adv-x="546" arabic-form="isolated" 
d="M397 532h10l69 -70q-100 -88 -100 -167q0 -55 38 -98q32 -37 86 -75l16 -10l-60 -104q-47 4 -86 28q-30 18 -51 42q-19 7 -40 10q-31 6 -57 6q-82 0 -82 -79q0 -76 30 -290h-110q-30 214 -30 298q0 81 52.5 134t130.5 53q30 0 85 -11l-6 11q-26 50 -26 104q0 124 131 218
zM244 667l88 88l76 -74l75 74l89 -88l-88 -88l-76 74l-75 -74z" />
    <glyph glyph-name="uniFC0F" unicode="&#xfc0f;" horiz-adv-x="900" arabic-form="isolated" 
d="M663 485h110q30 -214 30 -294q0 -91 -56 -141q-37 -34 -91 -44q-37 -100 -121 -157q-94 -64 -238 -64q-124 0 -195.5 72.5t-71.5 206.5q0 15 0.5 29.5t2.5 28.5t3 24t4.5 24.5t5 22t6.5 23t7 22t7.5 24t7.5 23.5h105q-44 -112 -44 -206t46.5 -136.5t141.5 -42.5
q101 0 165 42q36 22 60 58h-137l19 115h159q58 0 81 20t23 64q0 72 -30 286zM552 637l88 88l76 -74l75 74l89 -88l-88 -88l-76 74l-75 -74z" />
    <glyph glyph-name="uniFC10" unicode="&#xfc10;" horiz-adv-x="900" arabic-form="isolated" 
d="M663 485h110q30 -214 30 -294q0 -91 -56 -141q-37 -34 -91 -44q-37 -100 -121 -157q-94 -64 -238 -64q-124 0 -195.5 72.5t-71.5 206.5q0 15 0.5 29.5t2.5 28.5t3 24t4.5 24.5t5 22t6.5 23t7 22t7.5 24t7.5 23.5h105q-44 -112 -44 -206t46.5 -136.5t141.5 -42.5
q101 0 165 42q36 22 60 58h-137l19 115h159q58 0 81 20t23 64q0 72 -30 286zM552 637l88 88l76 -74l75 74l89 -88l-88 -88l-76 74l-75 -74zM244 -348l88 88l76 -74l75 74l89 -88l-88 -88l-76 74l-75 -74z" />
    <glyph glyph-name="uniFC12" unicode="&#xfc12;" horiz-adv-x="546" arabic-form="isolated" 
d="M397 532h10l69 -70q-100 -88 -100 -167q0 -55 38 -98q32 -37 86 -75l16 -10l-60 -104q-47 4 -86 28q-30 18 -51 42q-19 7 -40 10q-31 6 -57 6q-82 0 -82 -79q0 -76 30 -290h-110q-30 214 -30 298q0 81 52.5 134t130.5 53q30 0 85 -11l-6 11q-26 50 -26 104q0 124 131 218
zM242 677l88 89l81 -80l80 80l89 -89l-88 -88l-81 79l-80 -79zM340 806l70 71l71 -71l-70 -70z" />
    <glyph glyph-name="uniFC13" unicode="&#xfc13;" horiz-adv-x="910" arabic-form="isolated" 
d="M663 485h110q30 -214 30 -294q0 -91 -56 -141q-37 -34 -91 -44q-37 -100 -121 -157q-94 -64 -238 -64q-124 0 -195.5 72.5t-71.5 206.5q0 15 0.5 29.5t2.5 28.5t3 24t4.5 24.5t5 22t6.5 23t7 22t7.5 24t7.5 23.5h105q-44 -112 -44 -206t46.5 -136.5t141.5 -42.5
q101 0 165 42q36 22 60 58h-137l19 115h159q58 0 81 20t23 64q0 72 -30 286zM552 626l88 89l81 -80l80 80l89 -89l-88 -88l-81 79l-80 -79zM650 755l70 71l71 -71l-70 -70z" />
    <glyph glyph-name="uniFC14" unicode="&#xfc14;" horiz-adv-x="910" arabic-form="isolated" 
d="M663 485h110q30 -214 30 -294q0 -91 -56 -141q-37 -34 -91 -44q-37 -100 -121 -157q-94 -64 -238 -64q-124 0 -195.5 72.5t-71.5 206.5q0 15 0.5 29.5t2.5 28.5t3 24t4.5 24.5t5 22t6.5 23t7 22t7.5 24t7.5 23.5h105q-44 -112 -44 -206t46.5 -136.5t141.5 -42.5
q101 0 165 42q36 22 60 58h-137l19 115h159q58 0 81 20t23 64q0 72 -30 286zM552 626l88 89l81 -80l80 80l89 -89l-88 -88l-81 79l-80 -79zM650 755l70 71l71 -71l-70 -70zM244 -348l88 88l76 -74l75 74l89 -88l-88 -88l-76 74l-75 -74z" />
    <glyph glyph-name="uniFC31" unicode="&#xfc31;" horiz-adv-x="862" arabic-form="isolated" 
d="M603 593q92 0 149.5 -61t63.5 -170q6 -102 6 -142q0 -156 -163 -204q-39 -112 -131 -171.5t-231 -59.5q-124 0 -195.5 72.5t-71.5 206.5q0 15 0.5 29.5t2.5 28.5t3 24t4.5 24.5t5 22t6.5 23t7 22t7.5 24t7.5 23.5h105q-44 -112 -44 -206t46.5 -136.5t141.5 -42.5
q159 0 226 100h-148l19 115h129q82 0 119 21t43 69q-51 -25 -109 -25q-98 0 -151 50.5t-53 143.5q0 94 58.5 156.5t146.5 62.5zM595 478q-38 0 -62.5 -28.5t-24.5 -71.5q0 -49 28 -76t79 -27t93 14l-4 64q-10 125 -109 125zM518 740l88 88l89 -88l-88 -88z" />
    <glyph glyph-name="uniFC32" unicode="&#xfc32;" horiz-adv-x="862" arabic-form="isolated" 
d="M603 593q92 0 149.5 -61t63.5 -170q6 -102 6 -142q0 -156 -163 -204q-39 -112 -131 -171.5t-231 -59.5q-124 0 -195.5 72.5t-71.5 206.5q0 15 0.5 29.5t2.5 28.5t3 24t4.5 24.5t5 22t6.5 23t7 22t7.5 24t7.5 23.5h105q-44 -112 -44 -206t46.5 -136.5t141.5 -42.5
q159 0 226 100h-148l19 115h129q82 0 119 21t43 69q-51 -25 -109 -25q-98 0 -151 50.5t-53 143.5q0 94 58.5 156.5t146.5 62.5zM595 478q-38 0 -62.5 -28.5t-24.5 -71.5q0 -49 28 -76t79 -27t93 14l-4 64q-10 125 -109 125zM508 740l88 88l89 -88l-88 -88zM214 -348l88 88
l76 -74l75 74l89 -88l-88 -88l-76 74l-75 -74z" />
    <glyph glyph-name="uniFC35" unicode="&#xfc35;" horiz-adv-x="862" arabic-form="isolated" 
d="M603 593q92 0 149.5 -61t63.5 -170q6 -102 6 -142q0 -156 -163 -204q-39 -112 -131 -171.5t-231 -59.5q-124 0 -195.5 72.5t-71.5 206.5q0 15 0.5 29.5t2.5 28.5t3 24t4.5 24.5t5 22t6.5 23t7 22t7.5 24t7.5 23.5h105q-44 -112 -44 -206t46.5 -136.5t141.5 -42.5
q159 0 226 100h-148l19 115h129q82 0 119 21t43 69q-51 -25 -109 -25q-98 0 -151 50.5t-53 143.5q0 94 58.5 156.5t146.5 62.5zM595 478q-38 0 -62.5 -28.5t-24.5 -71.5q0 -49 28 -76t79 -27t93 14l-4 64q-10 125 -109 125zM443 740l88 88l76 -74l75 74l89 -88l-88 -88
l-76 74l-75 -74z" />
    <glyph glyph-name="uniFC36" unicode="&#xfc36;" horiz-adv-x="862" arabic-form="isolated" 
d="M603 593q92 0 149.5 -61t63.5 -170q6 -102 6 -142q0 -156 -163 -204q-39 -112 -131 -171.5t-231 -59.5q-124 0 -195.5 72.5t-71.5 206.5q0 15 0.5 29.5t2.5 28.5t3 24t4.5 24.5t5 22t6.5 23t7 22t7.5 24t7.5 23.5h105q-44 -112 -44 -206t46.5 -136.5t141.5 -42.5
q159 0 226 100h-148l19 115h129q82 0 119 21t43 69q-51 -25 -109 -25q-98 0 -151 50.5t-53 143.5q0 94 58.5 156.5t146.5 62.5zM595 478q-38 0 -62.5 -28.5t-24.5 -71.5q0 -49 28 -76t79 -27t93 14l-4 64q-10 125 -109 125zM443 740l88 88l76 -74l75 74l89 -88l-88 -88
l-76 74l-75 -74zM234 -348l88 88l76 -74l75 74l89 -88l-88 -88l-76 74l-75 -74z" />
    <glyph glyph-name="uniFC3D" unicode="&#xfc3d;" horiz-adv-x="1425" arabic-form="isolated" 
d="M1229 795h160v-5l-346 -291l160 -70q192 -86 192 -223q0 -95 -71.5 -150.5t-194.5 -55.5h-242h-2h-3q-48 0 -90 14q-62 21 -97 70t-35 116q0 43 6 95q4 37 14 82q-51 -4 -103 -16q-73 -17 -113 -47.5t-40 -63.5q0 -22 15.5 -38.5t60.5 -46.5l37 -24q106 -70 106 -160
q0 -85 -82.5 -140.5t-213.5 -55.5q-164 0 -240.5 68.5t-76.5 210.5q0 15 0.5 29.5t2.5 28.5t3 24t4.5 24.5t5 22t6.5 23t7 22t7.5 24t7.5 23.5h105q-44 -112 -44 -206q0 -96 56 -138.5t189 -42.5q65 0 113.5 19.5t48.5 49.5q0 28 -77 79l-45 31q-50 35 -73.5 73t-23.5 90
q0 94 92.5 165t285.5 90l90 -68q-33 -134 -33 -199q0 -52 33.5 -82.5t93.5 -30.5h2h250q66 0 107 23.5t41 60.5t-32 67t-107 64l-245 108v77z" />
    <glyph glyph-name="uniFC3E" unicode="&#xfc3e;" horiz-adv-x="1425" arabic-form="isolated" 
d="M1229 795h160v-5l-346 -291l160 -70q192 -86 192 -223q0 -95 -71.5 -150.5t-194.5 -55.5h-242h-2h-3q-48 0 -90 14q-62 21 -97 70t-35 116q0 43 6 95q4 37 14 82q-51 -4 -103 -16q-73 -17 -113 -47.5t-40 -63.5q0 -22 15.5 -38.5t60.5 -46.5l37 -24q106 -70 106 -160
q0 -85 -82.5 -140.5t-213.5 -55.5q-164 0 -240.5 68.5t-76.5 210.5q0 15 0.5 29.5t2.5 28.5t3 24t4.5 24.5t5 22t6.5 23t7 22t7.5 24t7.5 23.5h105q-44 -112 -44 -206q0 -96 56 -138.5t189 -42.5q65 0 113.5 19.5t48.5 49.5q0 28 -77 79l-45 31q-50 35 -73.5 73t-23.5 90
q0 94 92.5 165t285.5 90l90 -68q-33 -134 -33 -199q0 -52 33.5 -82.5t93.5 -30.5h2h250q66 0 107 23.5t41 60.5t-32 67t-107 64l-245 108v77zM244 -348l88 88l76 -74l75 74l89 -88l-88 -88l-76 74l-75 -74z" />
    <glyph glyph-name="uniFC42" unicode="&#xfc42;" horiz-adv-x="546" arabic-form="isolated" 
d="M295 725h110v-542q19 -7 42 -18q43 -21 89 -53l-60 -104q-47 4 -86 28q-30 18 -51 42q-19 7 -40 10q-31 6 -57 6q-82 0 -82 -79q0 -76 30 -290h-110q-30 214 -30 298q0 81 52.5 134t130.5 53q28 0 70 -9q-4 24 -6 47q-2 36 -2 49v428z" />
    <glyph glyph-name="uniFC44" unicode="&#xfc44;" horiz-adv-x="853" arabic-form="isolated" 
d="M663 725h110v-534q0 -88 -55 -138q-24 -22 -59 -36q-36 -108 -124 -168q-94 -64 -238 -64q-124 0 -195.5 72.5t-71.5 206.5q0 15 0.5 29.5t2.5 28.5t3 24t4.5 24.5t5 22t6.5 23t7 22t7.5 24t7.5 23.5h105q-44 -112 -44 -206t46.5 -136.5t141.5 -42.5q101 0 165 42
q36 22 60 58h-137l19 115h129q58 0 81 20t23 64v526zM224 -348l88 88l76 -74l75 74l89 -88l-88 -88l-76 74l-75 -74z" />
    <glyph glyph-name="uniFC4E" unicode="&#xfc4e;" horiz-adv-x="546" arabic-form="isolated" 
d="M397 532h10l69 -70q-100 -88 -100 -167q0 -55 38 -98q32 -37 86 -75l16 -10l-60 -104q-47 4 -86 28q-30 18 -51 42q-19 7 -40 10q-31 6 -57 6q-82 0 -82 -79q0 -76 30 -290h-110q-30 214 -30 298q0 81 52.5 134t130.5 53q30 0 85 -11l-6 11q-26 50 -26 104q0 124 131 218
zM322 685l88 88l89 -88l-88 -88z" />
    <glyph glyph-name="uniFC4F" unicode="&#xfc4f;" horiz-adv-x="853" arabic-form="isolated" 
d="M663 485h110q30 -214 30 -294q0 -91 -56 -141q-37 -34 -91 -44q-37 -100 -121 -157q-94 -64 -238 -64q-124 0 -195.5 72.5t-71.5 206.5q0 15 0.5 29.5t2.5 28.5t3 24t4.5 24.5t5 22t6.5 23t7 22t7.5 24t7.5 23.5h105q-44 -112 -44 -206t46.5 -136.5t141.5 -42.5
q101 0 165 42q36 22 60 58h-137l19 115h159q58 0 81 20t23 64q0 72 -30 286zM623 632l88 88l89 -88l-88 -88z" />
    <glyph glyph-name="uniFC50" unicode="&#xfc50;" horiz-adv-x="853" arabic-form="isolated" 
d="M663 485h110q30 -214 30 -294q0 -91 -56 -141q-37 -34 -91 -44q-37 -100 -121 -157q-94 -64 -238 -64q-124 0 -195.5 72.5t-71.5 206.5q0 15 0.5 29.5t2.5 28.5t3 24t4.5 24.5t5 22t6.5 23t7 22t7.5 24t7.5 23.5h105q-44 -112 -44 -206t46.5 -136.5t141.5 -42.5
q101 0 165 42q36 22 60 58h-137l19 115h159q58 0 81 20t23 64q0 72 -30 286zM623 632l88 88l89 -88l-88 -88zM244 -348l88 88l76 -74l75 74l89 -88l-88 -88l-76 74l-75 -74z" />
    <glyph glyph-name="uniFC58" unicode="&#xfc58;" horiz-adv-x="546" arabic-form="isolated" 
d="M397 532h10l69 -70q-100 -88 -100 -167q0 -55 38 -98q32 -37 86 -75l16 -10l-60 -104q-47 4 -86 28q-30 18 -51 42q-19 7 -40 10q-31 6 -57 6q-82 0 -82 -79q0 -76 30 -290h-110q-30 214 -30 298q0 81 52.5 134t130.5 53q30 0 85 -11l-6 11q-26 50 -26 104q0 124 131 218
zM191 -146l88 88l76 -74l75 74l89 -88l-88 -88l-76 74l-75 -74z" />
    <glyph glyph-name="uniFC64" unicode="&#xfc64;" horiz-adv-x="599" arabic-form="final" 
d="M436 459l100 -55q-21 -92 -21 -172q0 -117 84 -117q10 0 10 -10v-94q0 -11 -10 -11q-187 0 -187 182q0 35 5 87q7 51 10 71q-97 -47 -191 -63q1 -21 5 -49q8 -83 8 -206q0 -111 -72.5 -174t-186.5 -63v105q67 0 110 36t43 104q0 85 -4.5 141.5t-20.5 186.5l10 12
q90 8 159.5 29.5t148.5 59.5zM489 639h94l-27 -90h-132q-52 0 -106 -17v87q38 13 56 16l-1 1q-21 22 -21 56q0 44 31 74t86 30q33 0 74 -21v-84q-41 14 -72 14q-20 0 -32.5 -9t-12.5 -23q0 -34 63 -34z" />
    <glyph glyph-name="uniFC65" unicode="&#xfc65;" horiz-adv-x="599" arabic-form="final" 
d="M436 459l100 -55q-21 -92 -21 -172q0 -117 84 -117q10 0 10 -10v-94q0 -11 -10 -11q-187 0 -187 182q0 35 5 87q7 51 10 71q-97 -47 -191 -63q1 -21 5 -49q8 -83 8 -206q0 -111 -72.5 -174t-186.5 -63v105q67 0 110 36t43 104q0 85 -4.5 141.5t-20.5 186.5l10 12
q90 8 159.5 29.5t148.5 59.5zM53 545l88 88l89 -88l-88 -88zM509 639h94l-27 -90h-132q-52 0 -106 -17v87q38 13 56 16l-1 1q-21 22 -21 56q0 44 31 74t86 30q33 0 74 -21v-84q-41 14 -72 14q-20 0 -32.5 -9t-12.5 -23q0 -34 63 -34z" />
    <glyph glyph-name="uniFC67" unicode="&#xfc67;" horiz-adv-x="935" arabic-form="final" 
d="M772 459l100 -55q-21 -92 -21 -172q0 -117 84 -117q10 0 10 -10v-94q0 -11 -10 -11q-187 0 -187 182q0 35 5 87q7 51 10 71q-49 -25 -90 -38q-48 -16 -99 -24q7 -68 8 -88q4 -41 4 -91q0 -140 -78.5 -227t-220.5 -87q-124 0 -190.5 71.5t-66.5 207.5q0 15 0.5 29.5
t2.5 28.5t3 24t4.5 24.5t5 22t6.5 23t7 22t7.5 24t7.5 23.5h105q-44 -112 -44 -206q0 -81 39 -130t121 -49q93 0 137 49t44 150q0 29 -2 60.5t-4 51t-7.5 70t-8.5 77.5l10 12q90 8 159.5 29.5t148.5 59.5zM814 637h94l-27 -90h-132q-52 0 -106 -17v87q37 13 55 16l-1 1
q-20 23 -20 56q0 44 31 74t86 30q33 0 74 -21v-84q-41 14 -72 14q-20 0 -32.5 -9t-12.5 -23q0 -34 63 -34zM199 470l88 88l89 -88l-88 -88z" />
    <glyph glyph-name="uniFC68" unicode="&#xfc68;" horiz-adv-x="889" arabic-form="final" 
d="M701 495l90 -55q-33 -134 -33 -212q0 -52 34.5 -82.5t96.5 -30.5q10 0 10 -10v-94q0 -11 -10 -11q-104 0 -166.5 54.5t-62.5 145.5q0 43 6 95q4 37 14 82q-51 -4 -103 -16q-73 -17 -113 -47.5t-40 -63.5q0 -22 15.5 -38.5t60.5 -46.5l37 -24q106 -70 106 -160
q0 -85 -82.5 -140.5t-213.5 -55.5q-164 0 -240.5 68.5t-76.5 210.5q0 15 0.5 29.5t2.5 28.5t3 24t4.5 24.5t5 22t6.5 23t7 22t7.5 24t7.5 23.5h105q-44 -112 -44 -206q0 -96 56 -138.5t189 -42.5q65 0 113.5 19.5t48.5 49.5q0 28 -77 79l-45 31q-50 35 -73.5 73t-23.5 90
q0 94 92.5 165t285.5 90zM732 672h94l-27 -90h-132q-52 0 -106 -17v87q38 13 56 16l-1 1q-21 23 -21 56q0 44 31 74t86 30q33 0 74 -21v-84q-41 14 -72 14q-20 0 -32.5 -9t-12.5 -23q0 -34 63 -34z" />
    <glyph glyph-name="uniFC69" unicode="&#xfc69;" horiz-adv-x="889" arabic-form="final" 
d="M701 495l90 -55q-33 -134 -33 -212q0 -52 34.5 -82.5t96.5 -30.5q10 0 10 -10v-94q0 -11 -10 -11q-104 0 -166.5 54.5t-62.5 145.5q0 43 6 95q4 37 14 82q-51 -4 -103 -16q-73 -17 -113 -47.5t-40 -63.5q0 -22 15.5 -38.5t60.5 -46.5l37 -24q106 -70 106 -160
q0 -85 -82.5 -140.5t-213.5 -55.5q-164 0 -240.5 68.5t-76.5 210.5q0 15 0.5 29.5t2.5 28.5t3 24t4.5 24.5t5 22t6.5 23t7 22t7.5 24t7.5 23.5h105q-44 -112 -44 -206q0 -96 56 -138.5t189 -42.5q65 0 113.5 19.5t48.5 49.5q0 28 -77 79l-45 31q-50 35 -73.5 73t-23.5 90
q0 94 92.5 165t285.5 90zM732 672h94l-27 -90h-132q-52 0 -106 -17v87q38 13 56 16l-1 1q-21 23 -21 56q0 44 31 74t86 30q33 0 74 -21v-84q-41 14 -72 14q-20 0 -32.5 -9t-12.5 -23q0 -34 63 -34zM244 -348l88 88l76 -74l75 74l89 -88l-88 -88l-76 74l-75 -74z" />
    <glyph glyph-name="uniFC6A" unicode="&#xfc6a;" horiz-adv-x="599" arabic-form="final" 
d="M436 459l100 -55q-21 -92 -21 -172q0 -117 84 -117q10 0 10 -10v-94q0 -11 -10 -11q-187 0 -187 182q0 35 5 87q7 51 10 71q-97 -47 -191 -63q1 -21 5 -49q8 -83 8 -206q0 -111 -72.5 -174t-186.5 -63v105q67 0 110 36t43 104q0 85 -4.5 141.5t-20.5 186.5l10 12
q90 8 159.5 29.5t148.5 59.5zM301 -152l88 88l89 -88l-88 -88z" />
    <glyph glyph-name="uniFC6B" unicode="&#xfc6b;" horiz-adv-x="599" arabic-form="final" 
d="M436 459l100 -55q-21 -92 -21 -172q0 -117 84 -117q10 0 10 -10v-94q0 -11 -10 -11q-187 0 -187 182q0 35 5 87q7 51 10 71q-97 -47 -191 -63q1 -21 5 -49q8 -83 8 -206q0 -111 -72.5 -174t-186.5 -63v105q67 0 110 36t43 104q0 85 -4.5 141.5t-20.5 186.5l10 12
q90 8 159.5 29.5t148.5 59.5zM53 545l88 88l89 -88l-88 -88zM301 -152l88 88l89 -88l-88 -88z" />
    <glyph glyph-name="uniFC6D" unicode="&#xfc6d;" horiz-adv-x="935" arabic-form="final" 
d="M772 459l100 -55q-21 -92 -21 -172q0 -117 84 -117q10 0 10 -10v-94q0 -11 -10 -11q-187 0 -187 182q0 35 5 87q7 51 10 71q-49 -25 -90 -38q-48 -16 -99 -24q7 -68 8 -88q4 -41 4 -91q0 -140 -78.5 -227t-220.5 -87q-124 0 -190.5 71.5t-66.5 207.5q0 15 0.5 29.5
t2.5 28.5t3 24t4.5 24.5t5 22t6.5 23t7 22t7.5 24t7.5 23.5h105q-44 -112 -44 -206q0 -81 39 -130t121 -49q93 0 137 49t44 150q0 29 -2 60.5t-4 51t-7.5 70t-8.5 77.5l10 12q90 8 159.5 29.5t148.5 59.5zM608 -153l88 88l89 -88l-88 -88zM199 470l88 88l89 -88l-88 -88z
" />
    <glyph glyph-name="uniFC6E" unicode="&#xfc6e;" horiz-adv-x="889" arabic-form="final" 
d="M701 495l90 -55q-33 -134 -33 -212q0 -52 34.5 -82.5t96.5 -30.5q10 0 10 -10v-94q0 -11 -10 -11q-104 0 -166.5 54.5t-62.5 145.5q0 43 6 95q4 37 14 82q-51 -4 -103 -16q-73 -17 -113 -47.5t-40 -63.5q0 -22 15.5 -38.5t60.5 -46.5l37 -24q106 -70 106 -160
q0 -85 -82.5 -140.5t-213.5 -55.5q-164 0 -240.5 68.5t-76.5 210.5q0 15 0.5 29.5t2.5 28.5t3 24t4.5 24.5t5 22t6.5 23t7 22t7.5 24t7.5 23.5h105q-44 -112 -44 -206q0 -96 56 -138.5t189 -42.5q65 0 113.5 19.5t48.5 49.5q0 28 -77 79l-45 31q-50 35 -73.5 73t-23.5 90
q0 94 92.5 165t285.5 90zM676 -152l88 88l89 -88l-88 -88z" />
    <glyph glyph-name="uniFC6F" unicode="&#xfc6f;" horiz-adv-x="889" arabic-form="final" 
d="M701 495l90 -55q-33 -134 -33 -212q0 -52 34.5 -82.5t96.5 -30.5q10 0 10 -10v-94q0 -11 -10 -11q-104 0 -166.5 54.5t-62.5 145.5q0 43 6 95q4 37 14 82q-51 -4 -103 -16q-73 -17 -113 -47.5t-40 -63.5q0 -22 15.5 -38.5t60.5 -46.5l37 -24q106 -70 106 -160
q0 -85 -82.5 -140.5t-213.5 -55.5q-164 0 -240.5 68.5t-76.5 210.5q0 15 0.5 29.5t2.5 28.5t3 24t4.5 24.5t5 22t6.5 23t7 22t7.5 24t7.5 23.5h105q-44 -112 -44 -206q0 -96 56 -138.5t189 -42.5q65 0 113.5 19.5t48.5 49.5q0 28 -77 79l-45 31q-50 35 -73.5 73t-23.5 90
q0 94 92.5 165t285.5 90zM676 -152l88 88l89 -88l-88 -88zM244 -348l88 88l76 -74l75 74l89 -88l-88 -88l-76 74l-75 -74z" />
    <glyph glyph-name="uniFC70" unicode="&#xfc70;" horiz-adv-x="599" arabic-form="final" 
d="M436 459l100 -55q-21 -92 -21 -172q0 -117 84 -117q10 0 10 -10v-94q0 -11 -10 -11q-187 0 -187 182q0 35 5 87q7 51 10 71q-97 -47 -191 -63q1 -21 5 -49q8 -83 8 -206q0 -111 -72.5 -174t-186.5 -63v105q67 0 110 36t43 104q0 85 -4.5 141.5t-20.5 186.5l10 12
q90 8 159.5 29.5t148.5 59.5zM269 625l88 88l76 -74l75 74l89 -88l-88 -88l-76 74l-75 -74z" />
    <glyph glyph-name="uniFC71" unicode="&#xfc71;" horiz-adv-x="599" arabic-form="final" 
d="M436 459l100 -55q-21 -92 -21 -172q0 -117 84 -117q10 0 10 -10v-94q0 -11 -10 -11q-187 0 -187 182q0 35 5 87q7 51 10 71q-97 -47 -191 -63q1 -21 5 -49q8 -83 8 -206q0 -111 -72.5 -174t-186.5 -63v105q67 0 110 36t43 104q0 85 -4.5 141.5t-20.5 186.5l10 12
q90 8 159.5 29.5t148.5 59.5zM53 545l88 88l89 -88l-88 -88zM289 625l88 88l76 -74l75 74l89 -88l-88 -88l-76 74l-75 -74z" />
    <glyph glyph-name="uniFC73" unicode="&#xfc73;" horiz-adv-x="935" arabic-form="final" 
d="M772 459l100 -55q-21 -92 -21 -172q0 -117 84 -117q10 0 10 -10v-94q0 -11 -10 -11q-187 0 -187 182q0 35 5 87q7 51 10 71q-49 -25 -90 -38q-48 -16 -99 -24q7 -68 8 -88q4 -41 4 -91q0 -140 -78.5 -227t-220.5 -87q-124 0 -190.5 71.5t-66.5 207.5q0 15 0.5 29.5
t2.5 28.5t3 24t4.5 24.5t5 22t6.5 23t7 22t7.5 24t7.5 23.5h105q-44 -112 -44 -206q0 -81 39 -130t121 -49q93 0 137 49t44 150q0 29 -2 60.5t-4 51t-7.5 70t-8.5 77.5l10 12q90 8 159.5 29.5t148.5 59.5zM597 626l88 88l76 -74l75 74l89 -88l-88 -88l-76 74l-75 -74z
M199 470l88 88l89 -88l-88 -88z" />
    <glyph glyph-name="uniFC74" unicode="&#xfc74;" horiz-adv-x="889" arabic-form="final" 
d="M701 495l90 -55q-33 -134 -33 -212q0 -52 34.5 -82.5t96.5 -30.5q10 0 10 -10v-94q0 -11 -10 -11q-104 0 -166.5 54.5t-62.5 145.5q0 43 6 95q4 37 14 82q-51 -4 -103 -16q-73 -17 -113 -47.5t-40 -63.5q0 -22 15.5 -38.5t60.5 -46.5l37 -24q106 -70 106 -160
q0 -85 -82.5 -140.5t-213.5 -55.5q-164 0 -240.5 68.5t-76.5 210.5q0 15 0.5 29.5t2.5 28.5t3 24t4.5 24.5t5 22t6.5 23t7 22t7.5 24t7.5 23.5h105q-44 -112 -44 -206q0 -96 56 -138.5t189 -42.5q65 0 113.5 19.5t48.5 49.5q0 28 -77 79l-45 31q-50 35 -73.5 73t-23.5 90
q0 94 92.5 165t285.5 90zM519 663l88 88l76 -74l75 74l89 -88l-88 -88l-76 74l-75 -74z" />
    <glyph glyph-name="uniFC75" unicode="&#xfc75;" horiz-adv-x="889" arabic-form="final" 
d="M701 495l90 -55q-33 -134 -33 -212q0 -52 34.5 -82.5t96.5 -30.5q10 0 10 -10v-94q0 -11 -10 -11q-104 0 -166.5 54.5t-62.5 145.5q0 43 6 95q4 37 14 82q-51 -4 -103 -16q-73 -17 -113 -47.5t-40 -63.5q0 -22 15.5 -38.5t60.5 -46.5l37 -24q106 -70 106 -160
q0 -85 -82.5 -140.5t-213.5 -55.5q-164 0 -240.5 68.5t-76.5 210.5q0 15 0.5 29.5t2.5 28.5t3 24t4.5 24.5t5 22t6.5 23t7 22t7.5 24t7.5 23.5h105q-44 -112 -44 -206q0 -96 56 -138.5t189 -42.5q65 0 113.5 19.5t48.5 49.5q0 28 -77 79l-45 31q-50 35 -73.5 73t-23.5 90
q0 94 92.5 165t285.5 90zM519 663l88 88l76 -74l75 74l89 -88l-88 -88l-76 74l-75 -74zM245 -348l88 88l76 -74l75 74l89 -88l-88 -88l-76 74l-75 -74z" />
    <glyph glyph-name="uniFC76" unicode="&#xfc76;" horiz-adv-x="599" arabic-form="final" 
d="M436 459l100 -55q-21 -92 -21 -172q0 -117 84 -117q10 0 10 -10v-94q0 -11 -10 -11q-187 0 -187 182q0 35 5 87q7 51 10 71q-97 -47 -191 -63q1 -21 5 -49q8 -83 8 -206q0 -111 -72.5 -174t-186.5 -63v105q67 0 110 36t43 104q0 85 -4.5 141.5t-20.5 186.5l10 12
q90 8 159.5 29.5t148.5 59.5zM262 627l88 89l81 -80l80 80l89 -89l-88 -88l-81 79l-80 -79zM360 756l70 71l71 -71l-70 -70z" />
    <glyph glyph-name="uniFC77" unicode="&#xfc77;" horiz-adv-x="599" arabic-form="final" 
d="M436 459l100 -55q-21 -92 -21 -172q0 -117 84 -117q10 0 10 -10v-94q0 -11 -10 -11q-187 0 -187 182q0 35 5 87q7 51 10 71q-97 -47 -191 -63q1 -21 5 -49q8 -83 8 -206q0 -111 -72.5 -174t-186.5 -63v105q67 0 110 36t43 104q0 85 -4.5 141.5t-20.5 186.5l10 12
q90 8 159.5 29.5t148.5 59.5zM53 545l88 88l89 -88l-88 -88zM270 627l88 89l81 -80l80 80l89 -89l-88 -88l-81 79l-80 -79zM368 756l70 71l71 -71l-70 -70z" />
    <glyph glyph-name="uniFC79" unicode="&#xfc79;" horiz-adv-x="935" arabic-form="final" 
d="M772 459l100 -55q-21 -92 -21 -172q0 -117 84 -117q10 0 10 -10v-94q0 -11 -10 -11q-187 0 -187 182q0 35 5 87q7 51 10 71q-49 -25 -90 -38q-48 -16 -99 -24q7 -68 8 -88q4 -41 4 -91q0 -140 -78.5 -227t-220.5 -87q-124 0 -190.5 71.5t-66.5 207.5q0 15 0.5 29.5
t2.5 28.5t3 24t4.5 24.5t5 22t6.5 23t7 22t7.5 24t7.5 23.5h105q-44 -112 -44 -206q0 -81 39 -130t121 -49q93 0 137 49t44 150q0 29 -2 60.5t-4 51t-7.5 70t-8.5 77.5l10 12q90 8 159.5 29.5t148.5 59.5zM594 628l88 89l81 -80l80 80l89 -89l-88 -88l-81 79l-80 -79z
M199 470l88 88l89 -88l-88 -88zM692 757l70 71l71 -71l-70 -70z" />
    <glyph glyph-name="uniFC7A" unicode="&#xfc7a;" horiz-adv-x="889" arabic-form="final" 
d="M701 495l90 -55q-33 -134 -33 -212q0 -52 34.5 -82.5t96.5 -30.5q10 0 10 -10v-94q0 -11 -10 -11q-104 0 -166.5 54.5t-62.5 145.5q0 43 6 95q4 37 14 82q-51 -4 -103 -16q-73 -17 -113 -47.5t-40 -63.5q0 -22 15.5 -38.5t60.5 -46.5l37 -24q106 -70 106 -160
q0 -85 -82.5 -140.5t-213.5 -55.5q-164 0 -240.5 68.5t-76.5 210.5q0 15 0.5 29.5t2.5 28.5t3 24t4.5 24.5t5 22t6.5 23t7 22t7.5 24t7.5 23.5h105q-44 -112 -44 -206q0 -96 56 -138.5t189 -42.5q65 0 113.5 19.5t48.5 49.5q0 28 -77 79l-45 31q-50 35 -73.5 73t-23.5 90
q0 94 92.5 165t285.5 90zM522 636l88 89l81 -80l80 80l89 -89l-88 -88l-81 79l-80 -79zM620 765l70 71l71 -71l-70 -70z" />
    <glyph glyph-name="uniFC7B" unicode="&#xfc7b;" horiz-adv-x="889" arabic-form="final" 
d="M701 495l90 -55q-33 -134 -33 -212q0 -52 34.5 -82.5t96.5 -30.5q10 0 10 -10v-94q0 -11 -10 -11q-104 0 -166.5 54.5t-62.5 145.5q0 43 6 95q4 37 14 82q-51 -4 -103 -16q-73 -17 -113 -47.5t-40 -63.5q0 -22 15.5 -38.5t60.5 -46.5l37 -24q106 -70 106 -160
q0 -85 -82.5 -140.5t-213.5 -55.5q-164 0 -240.5 68.5t-76.5 210.5q0 15 0.5 29.5t2.5 28.5t3 24t4.5 24.5t5 22t6.5 23t7 22t7.5 24t7.5 23.5h105q-44 -112 -44 -206q0 -96 56 -138.5t189 -42.5q65 0 113.5 19.5t48.5 49.5q0 28 -77 79l-45 31q-50 35 -73.5 73t-23.5 90
q0 94 92.5 165t285.5 90zM522 636l88 89l81 -80l80 80l89 -89l-88 -88l-81 79l-80 -79zM620 765l70 71l71 -71l-70 -70zM244 -348l88 88l76 -74l75 74l89 -88l-88 -88l-76 74l-75 -74z" />
    <glyph glyph-name="uniFC83" unicode="&#xfc83;" horiz-adv-x="1505" arabic-form="final" 
d="M1229 795h160v-5l-346 -291l160 -70q192 -86 192 -223q0 -95 -71.5 -150.5t-194.5 -55.5h-242h-2h-3q-48 0 -90 14q-62 21 -97 70t-35 116q0 43 6 95q4 37 14 82q-51 -4 -103 -16q-73 -17 -113 -47.5t-40 -63.5q0 -22 15.5 -38.5t60.5 -46.5l37 -24q106 -70 106 -160
q0 -85 -82.5 -140.5t-213.5 -55.5q-164 0 -240.5 68.5t-76.5 210.5q0 15 0.5 29.5t2.5 28.5t3 24t4.5 24.5t5 22t6.5 23t7 22t7.5 24t7.5 23.5h105q-44 -112 -44 -206q0 -96 56 -138.5t189 -42.5q65 0 113.5 19.5t48.5 49.5q0 28 -77 79l-45 31q-50 35 -73.5 73t-23.5 90
q0 94 92.5 165t285.5 90l90 -68q-33 -134 -33 -199q0 -52 33.5 -82.5t93.5 -30.5h2h250q66 0 107 23.5t41 60.5t-32 67t-107 64l-245 108v77zM1310 95l50 63q65 -43 145 -43q10 0 10 -10v-94q0 -11 -10 -11q-106 0 -195 95z" />
    <glyph glyph-name="uniFC84" unicode="&#xfc84;" horiz-adv-x="1505" arabic-form="final" 
d="M1229 795h160v-5l-346 -291l160 -70q192 -86 192 -223q0 -95 -71.5 -150.5t-194.5 -55.5h-242h-2h-3q-48 0 -90 14q-62 21 -97 70t-35 116q0 43 6 95q4 37 14 82q-51 -4 -103 -16q-73 -17 -113 -47.5t-40 -63.5q0 -22 15.5 -38.5t60.5 -46.5l37 -24q106 -70 106 -160
q0 -85 -82.5 -140.5t-213.5 -55.5q-164 0 -240.5 68.5t-76.5 210.5q0 15 0.5 29.5t2.5 28.5t3 24t4.5 24.5t5 22t6.5 23t7 22t7.5 24t7.5 23.5h105q-44 -112 -44 -206q0 -96 56 -138.5t189 -42.5q65 0 113.5 19.5t48.5 49.5q0 28 -77 79l-45 31q-50 35 -73.5 73t-23.5 90
q0 94 92.5 165t285.5 90l90 -68q-33 -134 -33 -199q0 -52 33.5 -82.5t93.5 -30.5h2h250q66 0 107 23.5t41 60.5t-32 67t-107 64l-245 108v77zM1310 95l50 63q65 -43 145 -43q10 0 10 -10v-94q0 -11 -10 -11q-106 0 -195 95zM244 -348l88 88l76 -74l75 74l89 -88l-88 -88
l-76 74l-75 -74z" />
    <glyph glyph-name="uniFC87" unicode="&#xfc87;" horiz-adv-x="877" arabic-form="final" 
d="M663 725h110v-526q0 -44 23 -64t81 -20q10 0 10 -10v-94q0 -11 -10 -11q-102 0 -160 53l-8 7l-2 -2q-16 -16 -38 -30q-1 0 -8 -5q-35 -113 -126 -174q-94 -64 -238 -64q-124 0 -195.5 72.5t-71.5 206.5q0 15 0.5 29.5t2.5 28.5t3 24t4.5 24.5t5 22t6.5 23t7 22t7.5 24
t7.5 23.5h105q-44 -112 -44 -206t46.5 -136.5t141.5 -42.5q101 0 165 42q36 22 60 58h-137l19 115h129q41 0 73 12q21 8 35 18q-4 20 -4 46v534zM224 -348l88 88l76 -74l75 74l89 -88l-88 -88l-76 74l-75 -74z" />
    <glyph glyph-name="uniFC8A" unicode="&#xfc8a;" horiz-adv-x="599" arabic-form="final" 
d="M436 459l100 -55q-21 -92 -21 -172q0 -117 84 -117q10 0 10 -10v-94q0 -11 -10 -11q-187 0 -187 182q0 35 5 87q7 51 10 71q-97 -47 -191 -63q1 -21 5 -49q8 -83 8 -206q0 -111 -72.5 -174t-186.5 -63v105q67 0 110 36t43 104q0 85 -4.5 141.5t-20.5 186.5l10 12
q90 8 159.5 29.5t148.5 59.5zM355 628l88 88l89 -88l-88 -88z" />
    <glyph glyph-name="uniFC8B" unicode="&#xfc8b;" horiz-adv-x="599" arabic-form="final" 
d="M436 459l100 -55q-21 -92 -21 -172q0 -117 84 -117q10 0 10 -10v-94q0 -11 -10 -11q-187 0 -187 182q0 35 5 87q7 51 10 71q-97 -47 -191 -63q1 -21 5 -49q8 -83 8 -206q0 -111 -72.5 -174t-186.5 -63v105q67 0 110 36t43 104q0 85 -4.5 141.5t-20.5 186.5l10 12
q90 8 159.5 29.5t148.5 59.5zM53 545l88 88l89 -88l-88 -88zM355 628l88 88l89 -88l-88 -88z" />
    <glyph glyph-name="uniFC8D" unicode="&#xfc8d;" horiz-adv-x="935" arabic-form="final" 
d="M772 459l100 -55q-21 -92 -21 -172q0 -117 84 -117q10 0 10 -10v-94q0 -11 -10 -11q-187 0 -187 182q0 35 5 87q7 51 10 71q-49 -25 -90 -38q-48 -16 -99 -24q7 -68 8 -88q4 -41 4 -91q0 -140 -78.5 -227t-220.5 -87q-124 0 -190.5 71.5t-66.5 207.5q0 15 0.5 29.5
t2.5 28.5t3 24t4.5 24.5t5 22t6.5 23t7 22t7.5 24t7.5 23.5h105q-44 -112 -44 -206q0 -81 39 -130t121 -49q93 0 137 49t44 150q0 29 -2 60.5t-4 51t-7.5 70t-8.5 77.5l10 12q90 8 159.5 29.5t148.5 59.5zM679 652l88 88l89 -88l-88 -88zM199 470l88 88l89 -88l-88 -88z" />
    <glyph glyph-name="uniFC8E" unicode="&#xfc8e;" horiz-adv-x="889" arabic-form="final" 
d="M701 495l90 -55q-33 -134 -33 -212q0 -52 34.5 -82.5t96.5 -30.5q10 0 10 -10v-94q0 -11 -10 -11q-104 0 -166.5 54.5t-62.5 145.5q0 43 6 95q4 37 14 82q-51 -4 -103 -16q-73 -17 -113 -47.5t-40 -63.5q0 -22 15.5 -38.5t60.5 -46.5l37 -24q106 -70 106 -160
q0 -85 -82.5 -140.5t-213.5 -55.5q-164 0 -240.5 68.5t-76.5 210.5q0 15 0.5 29.5t2.5 28.5t3 24t4.5 24.5t5 22t6.5 23t7 22t7.5 24t7.5 23.5h105q-44 -112 -44 -206q0 -96 56 -138.5t189 -42.5q65 0 113.5 19.5t48.5 49.5q0 28 -77 79l-45 31q-50 35 -73.5 73t-23.5 90
q0 94 92.5 165t285.5 90zM609 680l88 88l89 -88l-88 -88z" />
    <glyph glyph-name="uniFC8F" unicode="&#xfc8f;" horiz-adv-x="889" arabic-form="final" 
d="M701 495l90 -55q-33 -134 -33 -212q0 -52 34.5 -82.5t96.5 -30.5q10 0 10 -10v-94q0 -11 -10 -11q-104 0 -166.5 54.5t-62.5 145.5q0 43 6 95q4 37 14 82q-51 -4 -103 -16q-73 -17 -113 -47.5t-40 -63.5q0 -22 15.5 -38.5t60.5 -46.5l37 -24q106 -70 106 -160
q0 -85 -82.5 -140.5t-213.5 -55.5q-164 0 -240.5 68.5t-76.5 210.5q0 15 0.5 29.5t2.5 28.5t3 24t4.5 24.5t5 22t6.5 23t7 22t7.5 24t7.5 23.5h105q-44 -112 -44 -206q0 -96 56 -138.5t189 -42.5q65 0 113.5 19.5t48.5 49.5q0 28 -77 79l-45 31q-50 35 -73.5 73t-23.5 90
q0 94 92.5 165t285.5 90zM609 680l88 88l89 -88l-88 -88zM244 -348l88 88l76 -74l75 74l89 -88l-88 -88l-76 74l-75 -74z" />
    <glyph glyph-name="uniFC91" unicode="&#xfc91;" horiz-adv-x="599" arabic-form="final" 
d="M436 459l100 -55q-21 -92 -21 -172q0 -117 84 -117q10 0 10 -10v-94q0 -11 -10 -11q-187 0 -187 182q0 35 5 87q7 51 10 71q-97 -47 -191 -63q1 -21 5 -49q8 -83 8 -206q0 -111 -72.5 -174t-186.5 -63v105q67 0 110 36t43 104q0 85 -4.5 141.5t-20.5 186.5l10 12
q90 8 159.5 29.5t148.5 59.5zM241 -146l88 88l76 -74l75 74l89 -88l-88 -88l-76 74l-75 -74z" />
    <glyph glyph-name="uniFC92" unicode="&#xfc92;" horiz-adv-x="599" arabic-form="final" 
d="M436 459l100 -55q-21 -92 -21 -172q0 -117 84 -117q10 0 10 -10v-94q0 -11 -10 -11q-187 0 -187 182q0 35 5 87q7 51 10 71q-97 -47 -191 -63q1 -21 5 -49q8 -83 8 -206q0 -111 -72.5 -174t-186.5 -63v105q67 0 110 36t43 104q0 85 -4.5 141.5t-20.5 186.5l10 12
q90 8 159.5 29.5t148.5 59.5zM53 545l88 88l89 -88l-88 -88zM241 -146l88 88l76 -74l75 74l89 -88l-88 -88l-76 74l-75 -74z" />
    <glyph glyph-name="uniFC94" unicode="&#xfc94;" horiz-adv-x="935" arabic-form="final" 
d="M772 459l100 -55q-21 -92 -21 -172q0 -117 84 -117q10 0 10 -10v-94q0 -11 -10 -11q-187 0 -187 182q0 35 5 87q7 51 10 71q-49 -25 -90 -38q-48 -16 -99 -24q7 -68 8 -88q4 -41 4 -91q0 -140 -78.5 -227t-220.5 -87q-124 0 -190.5 71.5t-66.5 207.5q0 15 0.5 29.5
t2.5 28.5t3 24t4.5 24.5t5 22t6.5 23t7 22t7.5 24t7.5 23.5h105q-44 -112 -44 -206q0 -81 39 -130t121 -49q93 0 137 49t44 150q0 29 -2 60.5t-4 51t-7.5 70t-8.5 77.5l10 12q90 8 159.5 29.5t148.5 59.5zM566 -146l88 88l76 -74l75 74l89 -88l-88 -88l-76 74l-75 -74z
M199 470l88 88l89 -88l-88 -88z" />
    <glyph glyph-name="uniFCCC" unicode="&#xfccc;" horiz-adv-x="300" arabic-form="initial" 
d="M0 115q34 0 66 -3q20 -2 39 -6l-3 14q-9 65 -9 102v503h110v-638l29 -14q38 -17 88 -52l-55 -100q-50 11 -84 29q-28 14 -50 33l-18 4q-55 13 -113 13q-10 0 -10 10v94q0 11 10 11z" />
    <glyph glyph-name="uniFCFB" unicode="&#xfcfb;" horiz-adv-x="1470" arabic-form="isolated" 
d="M1280 485h110q30 -206 30 -298q0 -81 -58.5 -134t-145.5 -53q-80 0 -174 58q-18 -20 -47 -34q-48 -24 -111 -24q-100 0 -162 55t-62 145q0 43 6 95q4 37 14 82q-51 -4 -103 -16q-73 -17 -113 -47.5t-40 -63.5q0 -22 15.5 -38.5t60.5 -46.5l37 -24q106 -70 106 -160
q0 -85 -82.5 -140.5t-213.5 -55.5q-164 0 -240.5 68.5t-76.5 210.5q0 15 0.5 29.5t2.5 28.5t3 24t4.5 24.5t5 22t6.5 23t7 22t7.5 24t7.5 23.5h105q-44 -112 -44 -206q0 -96 56 -138.5t189 -42.5q65 0 113.5 19.5t48.5 49.5q0 28 -77 79l-45 31q-50 35 -73.5 73t-23.5 90
q0 94 92.5 165t285.5 90l90 -55q-33 -134 -33 -212q0 -52 33.5 -82.5t92.5 -30.5q82 0 105 50q23 53 23 205h102q0 -91 -11 -162q-7 -39 -16 -65q25 -11 48 -18q34 -10 71 -10q104 0 104 80q0 93 -30 290z" />
    <glyph glyph-name="uniFCFC" unicode="&#xfcfc;" horiz-adv-x="1470" arabic-form="isolated" 
d="M1280 485h110q30 -206 30 -298q0 -81 -58.5 -134t-145.5 -53q-80 0 -174 58q-18 -20 -47 -34q-48 -24 -111 -24q-100 0 -162 55t-62 145q0 43 6 95q4 37 14 82q-51 -4 -103 -16q-73 -17 -113 -47.5t-40 -63.5q0 -22 15.5 -38.5t60.5 -46.5l37 -24q106 -70 106 -160
q0 -85 -82.5 -140.5t-213.5 -55.5q-164 0 -240.5 68.5t-76.5 210.5q0 15 0.5 29.5t2.5 28.5t3 24t4.5 24.5t5 22t6.5 23t7 22t7.5 24t7.5 23.5h105q-44 -112 -44 -206q0 -96 56 -138.5t189 -42.5q65 0 113.5 19.5t48.5 49.5q0 28 -77 79l-45 31q-50 35 -73.5 73t-23.5 90
q0 94 92.5 165t285.5 90l90 -55q-33 -134 -33 -212q0 -52 33.5 -82.5t92.5 -30.5q82 0 105 50q23 53 23 205h102q0 -91 -11 -162q-7 -39 -16 -65q25 -11 48 -18q34 -10 71 -10q104 0 104 80q0 93 -30 290zM244 -348l88 88l76 -74l75 74l89 -88l-88 -88l-76 74l-75 -74z" />
    <glyph glyph-name="uniFCFD" unicode="&#xfcfd;" horiz-adv-x="1470" arabic-form="isolated" 
d="M1280 485h110q30 -206 30 -298q0 -81 -58.5 -134t-145.5 -53q-80 0 -174 58q-18 -20 -47 -34q-48 -24 -111 -24q-100 0 -162 55t-62 145q0 43 6 95q4 37 14 82q-51 -4 -103 -16q-73 -17 -113 -47.5t-40 -63.5q0 -22 15.5 -38.5t60.5 -46.5l37 -24q106 -70 106 -160
q0 -85 -82.5 -140.5t-213.5 -55.5q-164 0 -240.5 68.5t-76.5 210.5q0 15 0.5 29.5t2.5 28.5t3 24t4.5 24.5t5 22t6.5 23t7 22t7.5 24t7.5 23.5h105q-44 -112 -44 -206q0 -96 56 -138.5t189 -42.5q65 0 113.5 19.5t48.5 49.5q0 28 -77 79l-45 31q-50 35 -73.5 73t-23.5 90
q0 94 92.5 165t285.5 90l90 -55q-33 -134 -33 -212q0 -52 33.5 -82.5t92.5 -30.5q82 0 105 50q23 53 23 205h102q0 -91 -11 -162q-7 -39 -16 -65q25 -11 48 -18q34 -10 71 -10q104 0 104 80q0 93 -30 290zM910 548l88 89l81 -80l80 80l89 -89l-88 -88l-81 79l-80 -79z
M1008 677l70 71l71 -71l-70 -70z" />
    <glyph glyph-name="uniFCFE" unicode="&#xfcfe;" horiz-adv-x="1470" arabic-form="isolated" 
d="M1280 485h110q30 -206 30 -298q0 -81 -58.5 -134t-145.5 -53q-80 0 -174 58q-18 -20 -47 -34q-48 -24 -111 -24q-100 0 -162 55t-62 145q0 43 6 95q4 37 14 82q-51 -4 -103 -16q-73 -17 -113 -47.5t-40 -63.5q0 -22 15.5 -38.5t60.5 -46.5l37 -24q106 -70 106 -160
q0 -85 -82.5 -140.5t-213.5 -55.5q-164 0 -240.5 68.5t-76.5 210.5q0 15 0.5 29.5t2.5 28.5t3 24t4.5 24.5t5 22t6.5 23t7 22t7.5 24t7.5 23.5h105q-44 -112 -44 -206q0 -96 56 -138.5t189 -42.5q65 0 113.5 19.5t48.5 49.5q0 28 -77 79l-45 31q-50 35 -73.5 73t-23.5 90
q0 94 92.5 165t285.5 90l90 -55q-33 -134 -33 -212q0 -52 33.5 -82.5t92.5 -30.5q82 0 105 50q23 53 23 205h102q0 -91 -11 -162q-7 -39 -16 -65q25 -11 48 -18q34 -10 71 -10q104 0 104 80q0 93 -30 290zM244 -348l88 88l76 -74l75 74l89 -88l-88 -88l-76 74l-75 -74z
M895 548l88 89l81 -80l80 80l89 -89l-88 -88l-81 79l-80 -79zM993 677l70 71l71 -71l-70 -70z" />
    <glyph glyph-name="uniFD05" unicode="&#xfd05;" horiz-adv-x="1497" arabic-form="isolated" 
d="M1242 538q92 0 153.5 -62t61.5 -155q0 -145 -112.5 -233t-297.5 -88h-162q-108 0 -166.5 52t-58.5 148q0 43 6 95q4 37 14 82q-51 -4 -103 -16q-73 -17 -113 -47.5t-40 -63.5q0 -22 15.5 -38.5t60.5 -46.5l37 -24q106 -70 106 -160q0 -85 -82.5 -140.5t-213.5 -55.5
q-164 0 -240.5 68.5t-76.5 210.5q0 15 0.5 29.5t2.5 28.5t3 24t4.5 24.5t5 22t6.5 23t7 22t7.5 24t7.5 23.5h105q-44 -112 -44 -206q0 -96 56 -138.5t189 -42.5q65 0 113.5 19.5t48.5 49.5q0 28 -77 79l-45 31q-50 35 -73.5 73t-23.5 90q0 94 92.5 165t285.5 90l90 -55
q-33 -137 -33 -212q0 -34 8 -58l3 -7q73 93 142 171q105 117 179.5 160.5t151.5 43.5zM889 115h146q141 0 226 51.5t85 137.5q0 51 -35.5 84.5t-87.5 33.5q-59 0 -118 -41t-146 -144q-61 -71 -101 -121q10 -1 31 -1z" />
    <glyph glyph-name="uniFD06" unicode="&#xfd06;" horiz-adv-x="1497" arabic-form="isolated" 
d="M1242 538q92 0 153.5 -62t61.5 -155q0 -145 -112.5 -233t-297.5 -88h-162q-108 0 -166.5 52t-58.5 148q0 43 6 95q4 37 14 82q-51 -4 -103 -16q-73 -17 -113 -47.5t-40 -63.5q0 -22 15.5 -38.5t60.5 -46.5l37 -24q106 -70 106 -160q0 -85 -82.5 -140.5t-213.5 -55.5
q-164 0 -240.5 68.5t-76.5 210.5q0 15 0.5 29.5t2.5 28.5t3 24t4.5 24.5t5 22t6.5 23t7 22t7.5 24t7.5 23.5h105q-44 -112 -44 -206q0 -96 56 -138.5t189 -42.5q65 0 113.5 19.5t48.5 49.5q0 28 -77 79l-45 31q-50 35 -73.5 73t-23.5 90q0 94 92.5 165t285.5 90l90 -55
q-33 -137 -33 -212q0 -34 8 -58l3 -7q73 93 142 171q105 117 179.5 160.5t151.5 43.5zM889 115h146q141 0 226 51.5t85 137.5q0 51 -35.5 84.5t-87.5 33.5q-59 0 -118 -41t-146 -144q-61 -71 -101 -121q10 -1 31 -1zM244 -348l88 88l76 -74l75 74l89 -88l-88 -88l-76 74
l-75 -74z" />
    <glyph glyph-name="uniFD07" unicode="&#xfd07;" horiz-adv-x="1497" arabic-form="isolated" 
d="M1242 538q92 0 153.5 -62t61.5 -155q0 -145 -112.5 -233t-297.5 -88h-162q-108 0 -166.5 52t-58.5 148q0 43 6 95q4 37 14 82q-51 -4 -103 -16q-73 -17 -113 -47.5t-40 -63.5q0 -22 15.5 -38.5t60.5 -46.5l37 -24q106 -70 106 -160q0 -85 -82.5 -140.5t-213.5 -55.5
q-164 0 -240.5 68.5t-76.5 210.5q0 15 0.5 29.5t2.5 28.5t3 24t4.5 24.5t5 22t6.5 23t7 22t7.5 24t7.5 23.5h105q-44 -112 -44 -206q0 -96 56 -138.5t189 -42.5q65 0 113.5 19.5t48.5 49.5q0 28 -77 79l-45 31q-50 35 -73.5 73t-23.5 90q0 94 92.5 165t285.5 90l90 -55
q-33 -137 -33 -212q0 -34 8 -58l3 -7q73 93 142 171q105 117 179.5 160.5t151.5 43.5zM889 115h146q141 0 226 51.5t85 137.5q0 51 -35.5 84.5t-87.5 33.5q-59 0 -118 -41t-146 -144q-61 -71 -101 -121q10 -1 31 -1zM922 642l88 88l89 -88l-88 -88z" />
    <glyph glyph-name="uniFD08" unicode="&#xfd08;" horiz-adv-x="1497" arabic-form="isolated" 
d="M1242 538q92 0 153.5 -62t61.5 -155q0 -145 -112.5 -233t-297.5 -88h-162q-108 0 -166.5 52t-58.5 148q0 43 6 95q4 37 14 82q-51 -4 -103 -16q-73 -17 -113 -47.5t-40 -63.5q0 -22 15.5 -38.5t60.5 -46.5l37 -24q106 -70 106 -160q0 -85 -82.5 -140.5t-213.5 -55.5
q-164 0 -240.5 68.5t-76.5 210.5q0 15 0.5 29.5t2.5 28.5t3 24t4.5 24.5t5 22t6.5 23t7 22t7.5 24t7.5 23.5h105q-44 -112 -44 -206q0 -96 56 -138.5t189 -42.5q65 0 113.5 19.5t48.5 49.5q0 28 -77 79l-45 31q-50 35 -73.5 73t-23.5 90q0 94 92.5 165t285.5 90l90 -55
q-33 -137 -33 -212q0 -34 8 -58l3 -7q73 93 142 171q105 117 179.5 160.5t151.5 43.5zM889 115h146q141 0 226 51.5t85 137.5q0 51 -35.5 84.5t-87.5 33.5q-59 0 -118 -41t-146 -144q-61 -71 -101 -121q10 -1 31 -1zM244 -348l88 88l76 -74l75 74l89 -88l-88 -88l-76 74
l-75 -74zM922 642l88 88l89 -88l-88 -88z" />
    <glyph glyph-name="uniFD0D" unicode="&#xfd0d;" horiz-adv-x="1220" arabic-form="isolated" 
d="M446 495h100q-39 -179 -39 -229q0 -81 31.5 -116t105.5 -35q72 0 95 50q23 53 23 205h102q0 -91 -11 -162q-7 -39 -16 -65q25 -11 48 -18q34 -10 71 -10q104 0 104 80q0 93 -30 290h110q30 -206 30 -298q0 -81 -58.5 -134t-145.5 -53q-80 0 -174 58q-20 -21 -44 -34
q-44 -24 -104 -24q-116 0 -176.5 63t-60.5 180q0 40 4 72l2 14q-61 -14 -82 -19q-63 -17 -96 -28l6 -55q8 -81 8 -205q0 -111 -72.5 -174t-186.5 -63v105q67 0 110 36t43 104q0 138 -18 279l79 83q32 7 131 28q53 11 97 15l2 10zM646 548l88 89l81 -80l80 80l89 -89l-88 -88
l-81 79l-80 -79zM744 677l70 71l71 -71l-70 -70z" />
    <glyph glyph-name="uniFD0E" unicode="&#xfd0e;" horiz-adv-x="1220" arabic-form="isolated" 
d="M446 495h100q-39 -179 -39 -229q0 -81 31.5 -116t105.5 -35q72 0 95 50q23 53 23 205h102q0 -91 -11 -162q-7 -39 -16 -65q25 -11 48 -18q34 -10 71 -10q104 0 104 80q0 93 -30 290h110q30 -206 30 -298q0 -81 -58.5 -134t-145.5 -53q-80 0 -174 58q-20 -21 -44 -34
q-44 -24 -104 -24q-116 0 -176.5 63t-60.5 180q0 40 4 72l2 14q-61 -14 -82 -19q-63 -17 -96 -28l6 -55q8 -81 8 -205q0 -111 -72.5 -174t-186.5 -63v105q67 0 110 36t43 104q0 138 -18 279l79 83q32 7 131 28q53 11 97 15l2 10z" />
    <glyph glyph-name="uniFD0F" unicode="&#xfd0f;" horiz-adv-x="1291" arabic-form="isolated" 
d="M1036 538q92 0 153.5 -62t61.5 -155q0 -145 -112.5 -233t-297.5 -88h-98q-336 0 -336 243q0 40 4 72l2 14q-61 -14 -82 -19q-63 -17 -96 -28l6 -55q8 -81 8 -205q0 -111 -72.5 -174t-186.5 -63v105q67 0 110 36t43 104q0 138 -18 279l79 83q32 7 131 28q53 11 97 15l2 10
l12 50h100q-39 -179 -39 -229q0 -41 11 -71q11 -27 35 -44q87 109 153 183q105 116 179.5 160t150.5 44zM753 115h76q141 0 226 51.5t85 137.5q0 51 -35.5 84.5t-87.5 33.5q-58 0 -117 -41.5t-147 -144.5q-38 -43 -97 -117q36 -4 97 -4z" />
    <glyph glyph-name="uniFD10" unicode="&#xfd10;" horiz-adv-x="1291" arabic-form="isolated" 
d="M1036 538q92 0 153.5 -62t61.5 -155q0 -145 -112.5 -233t-297.5 -88h-98q-336 0 -336 243q0 40 4 72l2 14q-61 -14 -82 -19q-63 -17 -96 -28l6 -55q8 -81 8 -205q0 -111 -72.5 -174t-186.5 -63v105q67 0 110 36t43 104q0 138 -18 279l79 83q32 7 131 28q53 11 97 15l2 10
l12 50h100q-39 -179 -39 -229q0 -41 11 -71q11 -27 35 -44q87 109 153 183q105 116 179.5 160t150.5 44zM753 115h76q141 0 226 51.5t85 137.5q0 51 -35.5 84.5t-87.5 33.5q-58 0 -117 -41.5t-147 -144.5q-38 -43 -97 -117q36 -4 97 -4zM672 627l88 88l89 -88l-88 -88z" />
    <glyph glyph-name="uniFD17" unicode="&#xfd17;" horiz-adv-x="1509" arabic-form="final" 
d="M1305 440h102v-70q0 -91 -11 -162q-5 -26 -14 -62q26 -14 56 -23q37 -8 71 -8q10 0 10 -10v-94q0 -11 -10 -11q-56 0 -101 22q-31 15 -65 44q-53 -66 -151 -66q-36 0 -74 15q-32 12 -83 45q-52 -60 -146 -60q-105 0 -167 54.5t-62 145.5q0 43 6 95q4 37 14 82
q-51 -4 -103 -16q-73 -17 -113 -47.5t-40 -63.5q0 -22 15.5 -38.5t60.5 -46.5l37 -24q106 -70 106 -160q0 -85 -82.5 -140.5t-213.5 -55.5q-164 0 -240.5 68.5t-76.5 210.5q0 15 0.5 29.5t2.5 28.5t3 24t4.5 24.5t5 22t6.5 23t7 22t7.5 24t7.5 23.5h105q-44 -112 -44 -206
q0 -96 56 -138.5t189 -42.5q65 0 113.5 19.5t48.5 49.5q0 28 -77 79l-45 31q-50 35 -73.5 73t-23.5 90q0 94 92.5 165t285.5 90l90 -55q-33 -134 -33 -212q0 -52 34.5 -82.5t96.5 -30.5q67 0 90 50q23 53 23 205h102q0 -91 -11 -162q-6 -36 -15 -65q21 -11 49 -19
q36 -9 65 -9q67 0 90 50q23 53 23 205v70z" />
    <glyph glyph-name="uniFD18" unicode="&#xfd18;" horiz-adv-x="1509" arabic-form="final" 
d="M1305 440h102v-70q0 -91 -11 -162q-5 -26 -14 -62q26 -14 56 -23q37 -8 71 -8q10 0 10 -10v-94q0 -11 -10 -11q-56 0 -101 22q-31 15 -65 44q-53 -66 -151 -66q-36 0 -74 15q-32 12 -83 45q-52 -60 -146 -60q-105 0 -167 54.5t-62 145.5q0 43 6 95q4 37 14 82
q-51 -4 -103 -16q-73 -17 -113 -47.5t-40 -63.5q0 -22 15.5 -38.5t60.5 -46.5l37 -24q106 -70 106 -160q0 -85 -82.5 -140.5t-213.5 -55.5q-164 0 -240.5 68.5t-76.5 210.5q0 15 0.5 29.5t2.5 28.5t3 24t4.5 24.5t5 22t6.5 23t7 22t7.5 24t7.5 23.5h105q-44 -112 -44 -206
q0 -96 56 -138.5t189 -42.5q65 0 113.5 19.5t48.5 49.5q0 28 -77 79l-45 31q-50 35 -73.5 73t-23.5 90q0 94 92.5 165t285.5 90l90 -55q-33 -134 -33 -212q0 -52 34.5 -82.5t96.5 -30.5q67 0 90 50q23 53 23 205h102q0 -91 -11 -162q-6 -36 -15 -65q21 -11 49 -19
q36 -9 65 -9q67 0 90 50q23 53 23 205v70zM244 -349l88 88l76 -74l75 74l89 -88l-88 -88l-76 74l-75 -74z" />
    <glyph glyph-name="uniFD19" unicode="&#xfd19;" horiz-adv-x="1509" arabic-form="final" 
d="M1305 440h102v-70q0 -91 -11 -162q-5 -26 -14 -62q26 -14 56 -23q37 -8 71 -8q10 0 10 -10v-94q0 -11 -10 -11q-56 0 -101 22q-31 15 -65 44q-53 -66 -151 -66q-36 0 -74 15q-32 12 -83 45q-52 -60 -146 -60q-105 0 -167 54.5t-62 145.5q0 43 6 95q4 37 14 82
q-51 -4 -103 -16q-73 -17 -113 -47.5t-40 -63.5q0 -22 15.5 -38.5t60.5 -46.5l37 -24q106 -70 106 -160q0 -85 -82.5 -140.5t-213.5 -55.5q-164 0 -240.5 68.5t-76.5 210.5q0 15 0.5 29.5t2.5 28.5t3 24t4.5 24.5t5 22t6.5 23t7 22t7.5 24t7.5 23.5h105q-44 -112 -44 -206
q0 -96 56 -138.5t189 -42.5q65 0 113.5 19.5t48.5 49.5q0 28 -77 79l-45 31q-50 35 -73.5 73t-23.5 90q0 94 92.5 165t285.5 90l90 -55q-33 -134 -33 -212q0 -52 34.5 -82.5t96.5 -30.5q67 0 90 50q23 53 23 205h102q0 -91 -11 -162q-6 -36 -15 -65q21 -11 49 -19
q36 -9 65 -9q67 0 90 50q23 53 23 205v70zM884 547l88 89l81 -80l80 80l89 -89l-88 -88l-81 79l-80 -79zM982 676l70 71l71 -71l-70 -70z" />
    <glyph glyph-name="uniFD1A" unicode="&#xfd1a;" horiz-adv-x="1509" arabic-form="final" 
d="M1305 440h102v-70q0 -91 -11 -162q-5 -26 -14 -62q26 -14 56 -23q37 -8 71 -8q10 0 10 -10v-94q0 -11 -10 -11q-56 0 -101 22q-31 15 -65 44q-53 -66 -151 -66q-36 0 -74 15q-32 12 -83 45q-52 -60 -146 -60q-105 0 -167 54.5t-62 145.5q0 43 6 95q4 37 14 82
q-51 -4 -103 -16q-73 -17 -113 -47.5t-40 -63.5q0 -22 15.5 -38.5t60.5 -46.5l37 -24q106 -70 106 -160q0 -85 -82.5 -140.5t-213.5 -55.5q-164 0 -240.5 68.5t-76.5 210.5q0 15 0.5 29.5t2.5 28.5t3 24t4.5 24.5t5 22t6.5 23t7 22t7.5 24t7.5 23.5h105q-44 -112 -44 -206
q0 -96 56 -138.5t189 -42.5q65 0 113.5 19.5t48.5 49.5q0 28 -77 79l-45 31q-50 35 -73.5 73t-23.5 90q0 94 92.5 165t285.5 90l90 -55q-33 -134 -33 -212q0 -52 34.5 -82.5t96.5 -30.5q67 0 90 50q23 53 23 205h102q0 -91 -11 -162q-6 -36 -15 -65q21 -11 49 -19
q36 -9 65 -9q67 0 90 50q23 53 23 205v70zM878 547l88 89l81 -80l80 80l89 -89l-88 -88l-81 79l-80 -79zM244 -349l88 88l76 -74l75 74l89 -88l-88 -88l-76 74l-75 -74zM976 676l70 71l71 -71l-70 -70z" />
    <glyph glyph-name="uniFD21" unicode="&#xfd21;" horiz-adv-x="1522" arabic-form="final" 
d="M1242 538q92 0 153.5 -62t61.5 -155q0 -145 -112.5 -233t-297.5 -88h-162q-108 0 -166.5 52t-58.5 148q0 43 6 95q4 37 14 82q-51 -4 -103 -16q-73 -17 -113 -47.5t-40 -63.5q0 -22 15.5 -38.5t60.5 -46.5l37 -24q106 -70 106 -160q0 -85 -82.5 -140.5t-213.5 -55.5
q-164 0 -240.5 68.5t-76.5 210.5q0 15 0.5 29.5t2.5 28.5t3 24t4.5 24.5t5 22t6.5 23t7 22t7.5 24t7.5 23.5h105q-44 -112 -44 -206q0 -96 56 -138.5t189 -42.5q65 0 113.5 19.5t48.5 49.5q0 28 -77 79l-45 31q-50 35 -73.5 73t-23.5 90q0 94 92.5 165t285.5 90l90 -55
q-33 -137 -33 -212q0 -34 8 -58l3 -7q73 93 142 171q105 117 179.5 160.5t151.5 43.5zM889 115h146q141 0 226 51.5t85 137.5q0 51 -35.5 84.5t-87.5 33.5q-59 0 -118 -41t-146 -144q-61 -71 -101 -121q10 -1 31 -1zM1327 95l50 63q65 -43 145 -43q10 0 10 -10v-94
q0 -11 -10 -11q-106 0 -195 95z" />
    <glyph glyph-name="uniFD22" unicode="&#xfd22;" horiz-adv-x="1522" arabic-form="final" 
d="M1242 538q92 0 153.5 -62t61.5 -155q0 -145 -112.5 -233t-297.5 -88h-162q-108 0 -166.5 52t-58.5 148q0 43 6 95q4 37 14 82q-51 -4 -103 -16q-73 -17 -113 -47.5t-40 -63.5q0 -22 15.5 -38.5t60.5 -46.5l37 -24q106 -70 106 -160q0 -85 -82.5 -140.5t-213.5 -55.5
q-164 0 -240.5 68.5t-76.5 210.5q0 15 0.5 29.5t2.5 28.5t3 24t4.5 24.5t5 22t6.5 23t7 22t7.5 24t7.5 23.5h105q-44 -112 -44 -206q0 -96 56 -138.5t189 -42.5q65 0 113.5 19.5t48.5 49.5q0 28 -77 79l-45 31q-50 35 -73.5 73t-23.5 90q0 94 92.5 165t285.5 90l90 -55
q-33 -137 -33 -212q0 -34 8 -58l3 -7q73 93 142 171q105 117 179.5 160.5t151.5 43.5zM889 115h146q141 0 226 51.5t85 137.5q0 51 -35.5 84.5t-87.5 33.5q-59 0 -118 -41t-146 -144q-61 -71 -101 -121q10 -1 31 -1zM1327 95l50 63q65 -43 145 -43q10 0 10 -10v-94
q0 -11 -10 -11q-106 0 -195 95zM244 -348l88 88l76 -74l75 74l89 -88l-88 -88l-76 74l-75 -74z" />
    <glyph glyph-name="uniFD23" unicode="&#xfd23;" horiz-adv-x="1522" arabic-form="final" 
d="M1242 538q92 0 153.5 -62t61.5 -155q0 -145 -112.5 -233t-297.5 -88h-162q-108 0 -166.5 52t-58.5 148q0 43 6 95q4 37 14 82q-51 -4 -103 -16q-73 -17 -113 -47.5t-40 -63.5q0 -22 15.5 -38.5t60.5 -46.5l37 -24q106 -70 106 -160q0 -85 -82.5 -140.5t-213.5 -55.5
q-164 0 -240.5 68.5t-76.5 210.5q0 15 0.5 29.5t2.5 28.5t3 24t4.5 24.5t5 22t6.5 23t7 22t7.5 24t7.5 23.5h105q-44 -112 -44 -206q0 -96 56 -138.5t189 -42.5q65 0 113.5 19.5t48.5 49.5q0 28 -77 79l-45 31q-50 35 -73.5 73t-23.5 90q0 94 92.5 165t285.5 90l90 -55
q-33 -137 -33 -212q0 -34 8 -58l3 -7q73 93 142 171q105 117 179.5 160.5t151.5 43.5zM889 115h146q141 0 226 51.5t85 137.5q0 51 -35.5 84.5t-87.5 33.5q-59 0 -118 -41t-146 -144q-61 -71 -101 -121q10 -1 31 -1zM1327 95l50 63q65 -43 145 -43q10 0 10 -10v-94
q0 -11 -10 -11q-106 0 -195 95zM922 642l88 88l89 -88l-88 -88z" />
    <glyph glyph-name="uniFD24" unicode="&#xfd24;" horiz-adv-x="1522" arabic-form="final" 
d="M1242 538q92 0 153.5 -62t61.5 -155q0 -145 -112.5 -233t-297.5 -88h-162q-108 0 -166.5 52t-58.5 148q0 43 6 95q4 37 14 82q-51 -4 -103 -16q-73 -17 -113 -47.5t-40 -63.5q0 -22 15.5 -38.5t60.5 -46.5l37 -24q106 -70 106 -160q0 -85 -82.5 -140.5t-213.5 -55.5
q-164 0 -240.5 68.5t-76.5 210.5q0 15 0.5 29.5t2.5 28.5t3 24t4.5 24.5t5 22t6.5 23t7 22t7.5 24t7.5 23.5h105q-44 -112 -44 -206q0 -96 56 -138.5t189 -42.5q65 0 113.5 19.5t48.5 49.5q0 28 -77 79l-45 31q-50 35 -73.5 73t-23.5 90q0 94 92.5 165t285.5 90l90 -55
q-33 -137 -33 -212q0 -34 8 -58l3 -7q73 93 142 171q105 117 179.5 160.5t151.5 43.5zM889 115h146q141 0 226 51.5t85 137.5q0 51 -35.5 84.5t-87.5 33.5q-59 0 -118 -41t-146 -144q-61 -71 -101 -121q10 -1 31 -1zM1327 95l50 63q65 -43 145 -43q10 0 10 -10v-94
q0 -11 -10 -11q-106 0 -195 95zM244 -348l88 88l76 -74l75 74l89 -88l-88 -88l-76 74l-75 -74zM922 642l88 88l89 -88l-88 -88z" />
    <glyph glyph-name="uniFD29" unicode="&#xfd29;" horiz-adv-x="1259" arabic-form="final" 
d="M446 495h100q-39 -179 -39 -229q1 -81 33.5 -116t98.5 -35q67 0 90 50q23 53 23 205h102q0 -91 -11 -162q-6 -36 -15 -65q21 -11 49 -19q36 -9 65 -9q67 0 90 50q23 53 23 205v70h102v-70q0 -91 -11 -162q-5 -26 -14 -62q26 -14 56 -23q37 -8 71 -8q10 0 10 -10v-94
q0 -11 -10 -11q-56 0 -101 22q-31 15 -65 44q-53 -66 -151 -66q-36 0 -74 15q-32 12 -83 45q-53 -60 -146 -60q-108 0 -169.5 61.5t-62.5 181.5q0 40 4 72q1 5 1 13q-40 -8 -81 -18q-63 -17 -96 -28l6 -55q8 -81 8 -205q0 -111 -72.5 -174t-186.5 -63v105q67 0 110 36
t43 104q0 138 -18 279l79 83q32 7 131 28q53 11 97 15l2 10zM636 547l88 89l81 -80l80 80l89 -89l-88 -88l-81 79l-80 -79zM734 676l70 71l71 -71l-70 -70z" />
    <glyph glyph-name="uniFD2A" unicode="&#xfd2a;" horiz-adv-x="1259" arabic-form="final" 
d="M446 495h100q-39 -179 -39 -229q1 -81 33.5 -116t98.5 -35q67 0 90 50q23 53 23 205h102q0 -91 -11 -162q-6 -36 -15 -65q21 -11 49 -19q36 -9 65 -9q67 0 90 50q23 53 23 205v70h102v-70q0 -91 -11 -162q-5 -26 -14 -62q26 -14 56 -23q37 -8 71 -8q10 0 10 -10v-94
q0 -11 -10 -11q-56 0 -101 22q-31 15 -65 44q-53 -66 -151 -66q-36 0 -74 15q-32 12 -83 45q-53 -60 -146 -60q-108 0 -169.5 61.5t-62.5 181.5q0 40 4 72q1 5 1 13q-40 -8 -81 -18q-63 -17 -96 -28l6 -55q8 -81 8 -205q0 -111 -72.5 -174t-186.5 -63v105q67 0 110 36
t43 104q0 138 -18 279l79 83q32 7 131 28q53 11 97 15l2 10z" />
    <glyph glyph-name="uniFD2B" unicode="&#xfd2b;" horiz-adv-x="1312" arabic-form="final" 
d="M1036 538q92 0 153.5 -62t61.5 -155q0 -145 -112.5 -233t-297.5 -88h-98q-336 0 -336 243q0 40 4 72l2 14q-61 -14 -82 -19q-63 -17 -96 -28l6 -55q8 -81 8 -205q0 -111 -72.5 -174t-186.5 -63v105q67 0 110 36t43 104q0 138 -18 279l79 83q32 7 131 28q53 11 97 15l2 10
l12 50h100q-39 -179 -39 -229q0 -41 11 -71q11 -27 35 -44q87 109 153 183q105 116 179.5 160t150.5 44zM753 115h76q141 0 226 51.5t85 137.5q0 51 -35.5 84.5t-87.5 33.5q-58 0 -117 -41.5t-147 -144.5q-38 -43 -97 -117q36 -4 97 -4zM1117 95l50 63q65 -43 145 -43
q10 0 10 -10v-94q0 -11 -10 -11q-106 0 -195 95z" />
    <glyph glyph-name="uniFD2C" unicode="&#xfd2c;" horiz-adv-x="1312" arabic-form="final" 
d="M1036 538q92 0 153.5 -62t61.5 -155q0 -145 -112.5 -233t-297.5 -88h-98q-336 0 -336 243q0 40 4 72l2 14q-61 -14 -82 -19q-63 -17 -96 -28l6 -55q8 -81 8 -205q0 -111 -72.5 -174t-186.5 -63v105q67 0 110 36t43 104q0 138 -18 279l79 83q32 7 131 28q53 11 97 15l2 10
l12 50h100q-39 -179 -39 -229q0 -41 11 -71q11 -27 35 -44q87 109 153 183q105 116 179.5 160t150.5 44zM753 115h76q141 0 226 51.5t85 137.5q0 51 -35.5 84.5t-87.5 33.5q-58 0 -117 -41.5t-147 -144.5q-38 -43 -97 -117q36 -4 97 -4zM1117 95l50 63q65 -43 145 -43
q10 0 10 -10v-94q0 -11 -10 -11q-106 0 -195 95zM672 627l88 88l89 -88l-88 -88z" />
    <glyph glyph-name="uniFE82" unicode="&#x622;" horiz-adv-x="294" arabic-form="final" 
d="M80 600h110v-401q0 -44 23 -64t81 -20q10 0 10 -10v-94q0 -11 -10 -11q-103 0 -158.5 52t-55.5 139v409zM69 759q22 0 65 -18.5t65 -18.5q45 0 80 26l-1 -76q-33 -25 -77 -25q-24 0 -62.5 18.5t-57.5 18.5q-45 0 -51 -39h-60q0 52 27 83t72 31z" />
    <glyph glyph-name="uniFE84" unicode="&#x623;" horiz-adv-x="294" arabic-form="final" 
d="M80 600h110v-401q0 -44 23 -64t81 -20q10 0 10 -10v-94q0 -11 -10 -11q-103 0 -158.5 52t-55.5 139v409zM150 725h116l-20 -70h-167q-37 0 -75 -12v68q28 10 40 11l28 3l-8 10q-16 20 -16 47q0 39 28 65.5t68 26.5q46 0 84 -20v-66q-43 16 -66 16q-21 0 -36 -11.5
t-15 -31.5q0 -16 13 -26q10 -8 26 -10z" />
    <glyph glyph-name="uniFE86" unicode="&#x624;" horiz-adv-x="546" arabic-form="final" 
d="M271 485q92 0 149 -59.5t63 -168.5q4 -76 4 -138v-4h59q10 0 10 -10v-94q0 -11 -10 -11h-59q-4 -30 -15 -59q-27 -73 -114.5 -114.5t-233.5 -41.5v105q130 0 194 41q46 30 58 69h-70q-121 0 -193.5 63.5t-72.5 172.5q0 108 65.5 178.5t165.5 70.5zM380 115l-2 40
q-1 19 -3.5 49.5t-2.5 43.5q-10 122 -104 122q-51 0 -84.5 -36.5t-33.5 -93.5q0 -125 171 -125h59zM300 649h94l-27 -90h-132q-52 0 -106 -17v87q38 13 56 16l-1 1q-21 22 -21 56q0 44 31 74t86 30q33 0 74 -21v-84q-41 14 -72 14q-20 0 -32.5 -9t-12.5 -23q0 -34 63 -34z
" />
    <glyph glyph-name="uniFE88" unicode="&#x625;" horiz-adv-x="294" arabic-form="final" 
d="M80 725h110v-526q0 -44 23 -64t81 -20q10 0 10 -10v-94q0 -11 -10 -11q-103 0 -158.5 52t-55.5 139v534zM148 -194h114l-20 -70h-167q-37 0 -75 -12v68q26 9 40 12q16 2 28 2l-8 10q-16 20 -16 47q0 39 28 65.5t68 26.5q46 0 84 -20v-66q-43 16 -66 16q-21 0 -36 -11.5
t-15 -31.5q0 -16 13 -26q14 -9 28 -10z" />
    <glyph glyph-name="uniFE8A" unicode="&#x626;" horiz-adv-x="676" arabic-form="final" 
d="M480 34v110q135 -29 196 -29q10 0 10 -10v-94q0 -11 -10 -11h-3q-17 -42 -41 -73q-105 -142 -325 -142q-125 0 -201 73t-76 206q0 15 0.5 29.5t2.5 28.5t3 24t4.5 24.5t5 22t6.5 23t7 22t7.5 24t7.5 23.5h105q-44 -112 -44 -206q0 -179 198 -179q100 0 170 42
q44 26 71 68q-6 2 -18 4.5t-15 3.5q-17 5 -61 16zM528 330h94l-27 -90h-132q-52 0 -106 -17v87q38 13 56 16l-1 1q-21 23 -21 56q0 44 31 74t86 30q33 0 74 -21v-84q-41 14 -72 14q-20 0 -32.5 -9t-12.5 -23q0 -34 63 -34z" />
    <glyph glyph-name="uniFE8B" unicode="&#x626;" horiz-adv-x="339" arabic-form="initial" 
d="M154 485h110q30 -214 30 -294q0 -87 -56 -139t-158 -52h-80q-10 0 -10 11v94q0 10 10 10h80q58 0 81 20t23 64q0 72 -30 286zM243 629h94l-27 -90h-132q-52 0 -106 -17v87q38 13 56 16l-1 1q-21 22 -21 56q0 44 31 74t86 30q33 0 74 -21v-84q-41 14 -72 14
q-20 0 -32.5 -9t-12.5 -23q0 -34 63 -34z" />
    <glyph glyph-name="uniFE8C" unicode="&#x626;" horiz-adv-x="370" arabic-form="medial" 
d="M145 370h102q0 -87 -7 -150q-5 -36 -12 -65q29 -17 64 -27q40 -13 78 -13q10 0 10 -10v-94q0 -11 -10 -11q-54 0 -110 27q-35 19 -70 48q-22 -31 -57 -49q-52 -26 -133 -26q-10 0 -10 11v94q0 10 10 10q90 0 119 48q17 28 21.5 73.5t4.5 133.5zM240 532h94l-27 -90h-132
q-52 0 -106 -17v87q38 13 56 16l-1 1q-21 23 -21 56q0 44 31 74t86 30q33 0 74 -21v-84q-41 14 -72 14q-20 0 -32.5 -9t-12.5 -23q0 -34 63 -34z" />
    <glyph glyph-name="uniFE8E" unicode="&#x627;" horiz-adv-x="294" arabic-form="final" 
d="M80 725h110v-526q0 -44 23 -64t81 -20q10 0 10 -10v-94q0 -11 -10 -11q-103 0 -158.5 52t-55.5 139v534z" />
    <glyph glyph-name="uniFE90" unicode="&#x628;" horiz-adv-x="831" arabic-form="final" 
d="M644 370h102q0 -146 -27 -231q49 -24 112 -24q10 0 10 -10v-94q0 -11 -10 -11q-87 0 -156 58q-52 -58 -141 -58h-238q-128 0 -197 64t-69 182q0 64 25 194h105q-20 -105 -20 -168q0 -85 38.5 -121t142.5 -36h210q67 0 90 50q23 53 23 205zM341 -144l88 88l89 -88l-88 -88
z" />
    <glyph glyph-name="uniFE91" unicode="&#x628;" horiz-adv-x="264" arabic-form="initial" 
d="M74 485h110q30 -214 30 -294q0 -87 -56 -139t-158 -52q-10 0 -10 11v94q0 10 10 10q58 0 81 20t23 64q0 72 -30 286zM16 -151l88 88l89 -88l-88 -88z" />
    <glyph glyph-name="uniFE92" unicode="&#x628;" horiz-adv-x="300" arabic-form="medial" 
d="M113 370h102q0 -91 -11 -162q-6 -35 -17 -69q27 -12 42 -16q37 -8 71 -8q10 0 10 -10v-94q0 -11 -10 -11q-56 0 -101 22q-26 13 -55 36q-52 -58 -144 -58q-10 0 -10 11v94q0 10 10 10q67 0 90 50q23 53 23 205zM59 -152l88 88l89 -88l-88 -88z" />
    <glyph glyph-name="uniFE94" unicode="&#x629;" horiz-adv-x="535" arabic-form="final" 
d="M348 538h110v-345q0 -39 17 -58.5t60 -19.5q10 0 10 -10v-94q0 -11 -10 -11q-49 0 -83 15q-31 13 -54 38q-37 -22 -69 -35q-41 -18 -91 -18q-94 0 -151 54t-57 143q0 70 42 136.5t137 111.5q59 26 139 38v55zM206 325q-66 -47 -66 -119q0 -45 26 -68.5t74 -23.5
q38 0 69 7q21 4 47 15q-8 35 -8 72v169q-88 -13 -142 -52zM194 686l88 88l76 -74l75 74l89 -88l-88 -88l-76 74l-75 -74z" />
    <glyph glyph-name="uniFE96" unicode="&#x62a;" horiz-adv-x="831" arabic-form="final" 
d="M644 370h102q0 -146 -27 -231q49 -24 112 -24q10 0 10 -10v-94q0 -11 -10 -11q-87 0 -156 58q-51 -58 -144 -58h-235q-128 0 -197 64t-69 182q0 64 25 194h105q-20 -105 -20 -168q0 -85 38.5 -121t142.5 -36h217q62 2 83 50q23 53 23 205zM278 528l88 88l76 -74l75 74
l89 -88l-88 -88l-76 74l-75 -74z" />
    <glyph glyph-name="uniFE97" unicode="&#x62a;" horiz-adv-x="381" arabic-form="initial" 
d="M154 485h110q30 -214 30 -294q0 -87 -56 -139t-158 -52h-80q-10 0 -10 11v94q0 10 10 10h80q58 0 81 20t23 64q0 72 -30 286zM33 637l88 88l76 -74l75 74l89 -88l-88 -88l-76 74l-75 -74z" />
    <glyph glyph-name="uniFE98" unicode="&#x62a;" horiz-adv-x="370" arabic-form="medial" 
d="M145 370h102q0 -87 -7 -150q-5 -36 -12 -65q29 -17 64 -27q40 -13 78 -13q10 0 10 -10v-94q0 -11 -10 -11q-54 0 -110 27q-35 19 -70 48q-22 -31 -57 -49q-52 -26 -133 -26q-10 0 -10 11v94q0 10 10 10q90 0 119 48q17 28 21.5 73.5t4.5 133.5zM32 528l88 88l76 -74
l75 74l89 -88l-88 -88l-76 74l-75 -74z" />
    <glyph glyph-name="uniFE9A" unicode="&#x62b;" horiz-adv-x="831" arabic-form="final" 
d="M644 370h102q0 -146 -27 -231q49 -24 112 -24q10 0 10 -10v-94q0 -11 -10 -11q-87 0 -156 58q-52 -58 -142 -58h-237q-128 0 -197 64t-69 182q0 64 25 194h105q-20 -105 -20 -168q0 -85 38.5 -121t142.5 -36h210q67 0 90 50q23 53 23 205zM261 529l88 89l81 -80l80 80
l89 -89l-88 -88l-81 79l-80 -79zM359 658l70 71l71 -71l-70 -70z" />
    <glyph glyph-name="uniFE9B" unicode="&#x62b;" horiz-adv-x="387" arabic-form="initial" 
d="M154 485h110q30 -214 30 -294q0 -87 -56 -139t-158 -52h-80q-10 0 -10 11v94q0 10 10 10h80q58 0 81 20t23 64q0 72 -30 286zM29 634l88 89l81 -80l80 80l89 -89l-88 -88l-81 79l-80 -79zM127 763l70 71l71 -71l-70 -70z" />
    <glyph glyph-name="uniFE9C" unicode="&#x62b;" horiz-adv-x="370" arabic-form="medial" 
d="M145 370h102q0 -87 -7 -150q-5 -36 -12 -65q29 -17 64 -27q40 -13 78 -13q10 0 10 -10v-94q0 -11 -10 -11q-54 0 -110 27q-35 19 -70 48q-22 -31 -57 -49q-52 -26 -133 -26q-10 0 -10 11v94q0 10 10 10q90 0 119 48q17 28 21.5 73.5t4.5 133.5zM18 528l88 89l81 -80
l80 80l89 -89l-88 -88l-81 79l-80 -79zM116 657l70 71l71 -71l-70 -70z" />
    <glyph glyph-name="uniFE9E" unicode="&#x62c;" horiz-adv-x="651" arabic-form="final" 
d="M189 538q41 0 83.5 -18.5t81 -46.5t77 -57.5t86 -56t94.5 -37.5l-30 -110q-22 0 -47 -3v-24q0 -70 117 -70q10 0 10 -10v-94q0 -11 -10 -11q-192 0 -192 167v32q-19 -3 -57 -13q-110 -27 -186 -81t-76 -126q0 -66 47 -102.5t133 -36.5q107 0 231 38v-106
q-142 -47 -236 -47q-137 0 -211 62t-74 176q0 65 28.5 118t79 90t110 61.5t131.5 40.5q30 7 64 12q-26 15 -50 32q-5 4 -34 25.5t-37 26.5t-31.5 20t-36.5 19.5t-32.5 9.5t-37.5 5q-54 0 -120 -23v105q54 33 125 33zM270 6l88 88l89 -88l-88 -88z" />
    <glyph glyph-name="uniFE9F" unicode="&#x62c;" horiz-adv-x="611" arabic-form="initial" 
d="M189 485q50 0 101.5 -25t90 -56.5t96 -66t114.5 -48.5l-30 -110q-66 -11 -118.5 -34t-89 -46.5t-79.5 -46.5t-111 -37.5t-162 -14.5q-11 0 -11 11v94q0 10 11 10q44 0 82 3t74.5 10.5t59.5 12.5t57 19t45.5 18.5t48 22.5t41.5 20q4 2 17 7.5t20 8.5q-30 14 -63 37
q-6 5 -25 18.5t-25.5 18t-23 15.5t-25 15t-23 11.5t-25.5 10t-24.5 5t-27.5 2.5q-54 0 -120 -23v105q54 33 125 33zM161 -151l88 88l89 -88l-88 -88z" />
    <glyph glyph-name="uniFEA0" unicode="&#x62c;" horiz-adv-x="631" arabic-form="medial" 
d="M189 485q50 0 101.5 -25t90 -56.5t96 -66t114.5 -48.5l-30 -110l-46 -9q6 -20 23 -34q27 -21 93 -21q10 0 10 -10v-94q0 -11 -10 -11q-174 0 -190 145q-33 -14 -59 -30q-9 -5 -43 -26t-48 -28t-49 -22.5t-64.5 -21.5t-76 -11.5t-100.5 -5.5q-11 0 -11 11v94q0 10 11 10
q44 0 82 3t74.5 10.5t59.5 12.5t57 19t45.5 18.5t48 22.5t41.5 20q4 2 17 7.5t20 8.5q-30 14 -63 37q-6 5 -25 18.5t-25.5 18t-23 15.5t-25 15t-23 11.5t-25.5 10t-24.5 5t-27.5 2.5q-54 0 -120 -23v105q54 33 125 33zM161 -152l88 88l89 -88l-88 -88z" />
    <glyph glyph-name="uniFEA2" unicode="&#x62d;" horiz-adv-x="651" arabic-form="final" 
d="M189 538q41 0 83.5 -18.5t81 -46.5t77 -57.5t86 -56t94.5 -37.5l-30 -110q-22 0 -47 -3v-24q0 -70 117 -70q10 0 10 -10v-94q0 -11 -10 -11q-192 0 -192 167v32q-19 -3 -57 -13q-110 -27 -186 -81t-76 -126q0 -66 47 -102.5t133 -36.5q107 0 231 38v-106
q-142 -47 -236 -47q-137 0 -211 62t-74 176q0 65 28.5 118t79 90t110 61.5t131.5 40.5q30 7 64 12q-26 15 -50 32q-5 4 -34 25.5t-37 26.5t-31.5 20t-36.5 19.5t-32.5 9.5t-37.5 5q-54 0 -120 -23v105q54 33 125 33z" />
    <glyph glyph-name="uniFEA3" unicode="&#x62d;" horiz-adv-x="611" arabic-form="initial" 
d="M189 485q50 0 101.5 -25t90 -56.5t96 -66t114.5 -48.5l-30 -110q-66 -11 -118.5 -34t-89 -46.5t-79.5 -46.5t-111 -37.5t-162 -14.5q-11 0 -11 11v94q0 10 11 10q44 0 82 3t74.5 10.5t59.5 12.5t57 19t45.5 18.5t48 22.5t41.5 20q4 2 17 7.5t20 8.5q-30 14 -63 37
q-6 5 -25 18.5t-25.5 18t-23 15.5t-25 15t-23 11.5t-25.5 10t-24.5 5t-27.5 2.5q-54 0 -120 -23v105q54 33 125 33z" />
    <glyph glyph-name="uniFEA4" unicode="&#x62d;" horiz-adv-x="631" arabic-form="medial" 
d="M189 485q50 0 101.5 -25t90 -56.5t96 -66t114.5 -48.5l-30 -110l-46 -9q6 -20 23 -34q27 -21 93 -21q10 0 10 -10v-94q0 -11 -10 -11q-174 0 -190 145q-33 -14 -59 -30q-9 -5 -43 -26t-48 -28t-49 -22.5t-64.5 -21.5t-76 -11.5t-100.5 -5.5q-11 0 -11 11v94q0 10 11 10
q44 0 82 3t74.5 10.5t59.5 12.5t57 19t45.5 18.5t48 22.5t41.5 20q4 2 17 7.5t20 8.5q-30 14 -63 37q-6 5 -25 18.5t-25.5 18t-23 15.5t-25 15t-23 11.5t-25.5 10t-24.5 5t-27.5 2.5q-54 0 -120 -23v105q54 33 125 33z" />
    <glyph glyph-name="uniFEA6" unicode="&#x62e;" horiz-adv-x="651" arabic-form="final" 
d="M189 538q41 0 83.5 -18.5t81 -46.5t77 -57.5t86 -56t94.5 -37.5l-30 -110q-22 0 -47 -3v-24q0 -70 117 -70q10 0 10 -10v-94q0 -11 -10 -11q-192 0 -192 167v32q-19 -3 -57 -13q-110 -27 -186 -81t-76 -126q0 -66 47 -102.5t133 -36.5q107 0 231 38v-106
q-142 -47 -236 -47q-137 0 -211 62t-74 176q0 65 28.5 118t79 90t110 61.5t131.5 40.5q30 7 64 12q-26 15 -50 32q-5 4 -34 25.5t-37 26.5t-31.5 20t-36.5 19.5t-32.5 9.5t-37.5 5q-54 0 -120 -23v105q54 33 125 33zM337 626l88 88l89 -88l-88 -88z" />
    <glyph glyph-name="uniFEA7" unicode="&#x62e;" horiz-adv-x="611" arabic-form="initial" 
d="M189 485q50 0 101.5 -25t90 -56.5t96 -66t114.5 -48.5l-30 -110q-66 -11 -118.5 -34t-89 -46.5t-79.5 -46.5t-111 -37.5t-162 -14.5q-11 0 -11 11v94q0 10 11 10q44 0 82 3t74.5 10.5t59.5 12.5t57 19t45.5 18.5t48 22.5t41.5 20q4 2 17 7.5t20 8.5q-30 14 -63 37
q-6 5 -25 18.5t-25.5 18t-23 15.5t-25 15t-23 11.5t-25.5 10t-24.5 5t-27.5 2.5q-54 0 -120 -23v105q54 33 125 33zM158 634l88 88l89 -88l-88 -88z" />
    <glyph glyph-name="uniFEA8" unicode="&#x62e;" horiz-adv-x="631" arabic-form="medial" 
d="M189 485q50 0 101.5 -25t90 -56.5t96 -66t114.5 -48.5l-30 -110l-46 -9q6 -20 23 -34q27 -21 93 -21q10 0 10 -10v-94q0 -11 -10 -11q-174 0 -190 145q-33 -14 -59 -30q-9 -5 -43 -26t-48 -28t-49 -22.5t-64.5 -21.5t-76 -11.5t-100.5 -5.5q-11 0 -11 11v94q0 10 11 10
q44 0 82 3t74.5 10.5t59.5 12.5t57 19t45.5 18.5t48 22.5t41.5 20q4 2 17 7.5t20 8.5q-30 14 -63 37q-6 5 -25 18.5t-25.5 18t-23 15.5t-25 15t-23 11.5t-25.5 10t-24.5 5t-27.5 2.5q-54 0 -120 -23v105q54 33 125 33zM158 634l88 88l89 -88l-88 -88z" />
    <glyph glyph-name="uniFEAA" unicode="&#x62f;" horiz-adv-x="513" arabic-form="final" 
d="M10 34v110q100 -29 181 -29q49 0 82 4q18 2 46 8q-14 30 -19 47q-34 100 -73 311h115q36 -218 58 -286q28 -84 113 -84q10 0 10 -10v-94q0 -11 -10 -11q-85 0 -140 52q-37 -24 -78 -37q-50 -15 -104 -15q-51 0 -85.5 6.5t-95.5 27.5z" />
    <glyph glyph-name="uniFEAC" unicode="&#x630;" horiz-adv-x="513" arabic-form="final" 
d="M10 34v110q100 -29 181 -29q49 0 82 4q18 2 46 8q-14 30 -19 47q-34 100 -73 311h115q36 -218 58 -286q28 -84 113 -84q10 0 10 -10v-94q0 -11 -10 -11q-85 0 -140 52q-37 -24 -78 -37q-50 -15 -104 -15q-51 0 -85.5 6.5t-95.5 27.5zM195 632l88 88l89 -88l-88 -88z" />
    <glyph glyph-name="uniFEAE" unicode="&#x631;" horiz-adv-x="347" arabic-form="final" 
d="M108 440h110q14 -90 22 -200l3 -42l3 -23q5 -33 28.5 -46.5t72.5 -13.5q10 0 10 -10v-94q0 -11 -10 -11q-67 0 -96 35l-2 3v-16q0 -112 -70 -174.5t-189 -62.5v105q72 0 112.5 35.5t40.5 104.5q0 135 -35 410z" />
    <glyph glyph-name="uniFEB0" unicode="&#x632;" horiz-adv-x="347" arabic-form="final" 
d="M108 440h110q14 -90 22 -200l3 -42l3 -23q5 -33 28.5 -46.5t72.5 -13.5q10 0 10 -10v-94q0 -11 -10 -11q-67 0 -96 35l-2 3v-16q0 -112 -70 -174.5t-189 -62.5v105q72 0 112.5 35.5t40.5 104.5q0 135 -35 410zM65 593l88 88l89 -88l-88 -88z" />
    <glyph glyph-name="uniFEB2" unicode="&#x633;" horiz-adv-x="1318" arabic-form="final" 
d="M440 440h110q12 -78 25 -183q9 -70 10 -115q23 -10 48 -18q36 -9 65 -9q67 0 90 50q23 53 23 205h102q0 -91 -11 -162q-6 -36 -15 -65q21 -11 49 -19q36 -9 65 -9q67 0 90 50q23 53 23 205v70h102v-70q0 -91 -11 -162q-5 -26 -14 -62q26 -14 56 -23q37 -8 71 -8
q10 0 10 -10v-94q0 -11 -10 -11q-56 0 -101 22q-31 15 -65 44q-52 -66 -151 -66q-37 0 -74 15q-32 12 -83 45q-52 -60 -146 -60q-36 0 -74 15q-18 7 -43 21q-5 -34 -15 -62q-29 -89 -100.5 -139t-178.5 -50q-124 0 -190.5 71.5t-66.5 207.5q0 15 0.5 29.5t2.5 28.5t3 24
t4.5 24.5t5 22t6.5 23t7 22t7.5 24t7.5 23.5h105q-44 -112 -44 -206q0 -81 39 -130t121 -49q185 0 185 199q0 17 -0.5 35t-3 42.5t-4 39t-6.5 50t-7 49.5t-9.5 61t-9.5 64z" />
    <glyph glyph-name="uniFEB3" unicode="&#x633;" horiz-adv-x="871" arabic-form="initial" 
d="M105 370h102q0 -91 -11 -162q-6 -32 -15 -62q27 -15 54 -22q36 -9 65 -9q67 0 90 50q23 53 23 205h102q0 -91 -11 -162q-7 -39 -16 -65q26 -11 48 -18q34 -10 71 -10q104 0 104 80q0 93 -30 290h110q30 -206 30 -298q0 -81 -58.5 -134t-145.5 -53q-81 0 -173 58
q-52 -58 -144 -58q-36 0 -74 15q-34 13 -86 47q-50 -62 -140 -62q-10 0 -10 11v94q0 10 10 10q61 0 82 50q23 53 23 205z" />
    <glyph glyph-name="uniFEB4" unicode="&#x633;" horiz-adv-x="920" arabic-form="medial" 
d="M105 370h102q0 -91 -11 -162q-6 -32 -15 -62q27 -15 54 -22q36 -9 65 -9q67 0 90 50q23 53 23 205h102q0 -91 -11 -162q-6 -36 -15 -65q21 -11 49 -19q36 -9 65 -9q67 0 90 50q23 53 23 205v70h102v-70q0 -91 -11 -162q-5 -26 -14 -62q26 -14 56 -23q37 -8 71 -8
q10 0 10 -10v-94q0 -11 -10 -11q-56 0 -101 22q-31 15 -65 44q-52 -66 -151 -66q-37 0 -74 15q-32 12 -83 45q-52 -60 -146 -60q-36 0 -74 15q-34 13 -86 47q-50 -62 -140 -62q-10 0 -10 11v94q0 10 10 10q61 0 82 50q23 53 23 205z" />
    <glyph glyph-name="uniFEB6" unicode="&#x634;" horiz-adv-x="1318" arabic-form="final" 
d="M440 440h110q12 -78 25 -183q9 -70 10 -115q23 -10 48 -18q36 -9 65 -9q67 0 90 50q23 53 23 205h102q0 -91 -11 -162q-6 -36 -15 -65q21 -11 49 -19q36 -9 65 -9q67 0 90 50q23 53 23 205v70h102v-70q0 -91 -11 -162q-5 -26 -14 -62q26 -14 56 -23q37 -8 71 -8
q10 0 10 -10v-94q0 -11 -10 -11q-56 0 -101 22q-31 15 -65 44q-52 -66 -151 -66q-37 0 -74 15q-32 12 -83 45q-52 -60 -146 -60q-36 0 -74 15q-18 7 -43 21q-5 -34 -15 -62q-29 -89 -100.5 -139t-178.5 -50q-124 0 -190.5 71.5t-66.5 207.5q0 15 0.5 29.5t2.5 28.5t3 24
t4.5 24.5t5 22t6.5 23t7 22t7.5 24t7.5 23.5h105q-44 -112 -44 -206q0 -81 39 -130t121 -49q185 0 185 199q0 17 -0.5 35t-3 42.5t-4 39t-6.5 50t-7 49.5t-9.5 61t-9.5 64zM689 552l88 89l81 -80l80 80l89 -89l-88 -88l-81 79l-80 -79zM787 681l70 71l71 -71l-70 -70z" />
    <glyph glyph-name="uniFEB7" unicode="&#x634;" horiz-adv-x="871" arabic-form="initial" 
d="M105 370h102q0 -91 -11 -162q-6 -32 -15 -62q27 -15 54 -22q36 -9 65 -9q67 0 90 50q23 53 23 205h102q0 -91 -11 -162q-7 -39 -16 -65q26 -11 48 -18q34 -10 71 -10q104 0 104 80q0 93 -30 290h110q30 -206 30 -298q0 -81 -58.5 -134t-145.5 -53q-81 0 -173 58
q-52 -58 -144 -58q-36 0 -74 15q-34 13 -86 47q-50 -62 -140 -62q-10 0 -10 11v94q0 10 10 10q61 0 82 50q23 53 23 205zM291 549l88 89l81 -80l80 80l89 -89l-88 -88l-81 79l-80 -79zM389 678l70 71l71 -71l-70 -70z" />
    <glyph glyph-name="uniFEB8" unicode="&#x634;" horiz-adv-x="920" arabic-form="medial" 
d="M105 370h102q0 -91 -11 -162q-6 -32 -15 -62q27 -15 54 -22q36 -9 65 -9q67 0 90 50q23 53 23 205h102q0 -91 -11 -162q-6 -36 -15 -65q21 -11 49 -19q36 -9 65 -9q67 0 90 50q23 53 23 205v70h102v-70q0 -91 -11 -162q-5 -26 -14 -62q26 -14 56 -23q37 -8 71 -8
q10 0 10 -10v-94q0 -11 -10 -11q-56 0 -101 22q-31 15 -65 44q-52 -66 -151 -66q-37 0 -74 15q-32 12 -83 45q-52 -60 -146 -60q-36 0 -74 15q-34 13 -86 47q-50 -62 -140 -62q-10 0 -10 11v94q0 10 10 10q61 0 82 50q23 53 23 205zM289 548l88 89l81 -80l80 80l89 -89
l-88 -88l-81 79l-80 -79zM387 677l70 71l71 -71l-70 -70z" />
    <glyph glyph-name="uniFEBA" unicode="&#x635;" horiz-adv-x="1282" arabic-form="final" 
d="M440 440h110q12 -78 25 -183l1 -7q63 64 105 104q99 93 174.5 133.5t152.5 40.5q92 0 153.5 -62t61.5 -155q0 -69 -30 -126q-14 -26 -28 -44q25 -12 46 -18q37 -8 71 -8q10 0 10 -10v-94q0 -11 -10 -11q-56 0 -101 22q-41 19 -80 58q-50 -37 -120 -58q-73 -22 -168 -22
q-81 0 -200 22l-33 6q-4 -26 -14 -54q-29 -89 -100.5 -139t-178.5 -50q-124 0 -190.5 71.5t-66.5 207.5q0 15 0.5 29.5t2.5 28.5t3 24t4.5 24.5t5 22t6.5 23t7 22t7.5 24t7.5 23.5h105q-44 -112 -44 -206q0 -81 39 -130t121 -49q185 0 185 199q0 17 -0.5 35t-3 42.5t-4 39
t-6.5 50t-7 49.5t-9.5 61t-9.5 64zM680 120q68 -5 121 -5q139 0 225 50t86 129q0 51 -35.5 84.5t-87.5 33.5t-114.5 -35t-155.5 -117q-48 -43 -134 -124v-3q56 -10 95 -13z" />
    <glyph glyph-name="uniFEBB" unicode="&#x635;" horiz-adv-x="1001" arabic-form="initial" 
d="M148 370h100q-14 -128 -23 -171q-4 -22 -7 -33l19 -7l27 -8q85 106 151 178q106 113 180 156t151 43q92 0 153.5 -62t61.5 -155q0 -139 -113 -225t-297 -86q-195 0 -338 54l-44 17q-18 -17 -37 -31q-64 -40 -132 -40q-10 0 -10 11v94q0 10 10 10q51 0 79.5 17.5
t41.5 56.5q18 54 27 181zM415 122q52 -7 124 -7q139 0 225 50t86 129q0 51 -35.5 84.5t-87.5 33.5q-58 0 -117.5 -41t-147.5 -141q-20 -22 -89 -103q25 -4 42 -5z" />
    <glyph glyph-name="uniFEBC" unicode="&#x635;" horiz-adv-x="1025" arabic-form="medial" 
d="M148 370h100q-14 -128 -23 -171q-4 -22 -7 -33l19 -7l27 -8q85 106 151 178q106 113 180 156t151 43q92 0 153.5 -62t61.5 -155q0 -139 -113 -225t-297 -86q-195 0 -338 54l-44 17q-18 -17 -37 -31q-64 -40 -132 -40q-10 0 -10 11v94q0 10 10 10q51 0 79.5 17.5
t41.5 56.5q18 54 27 181zM415 122q52 -7 124 -7q139 0 225 50t86 129q0 51 -35.5 84.5t-87.5 33.5q-58 0 -117.5 -41t-147.5 -141q-20 -22 -89 -103q25 -4 42 -5zM830 95l50 63q65 -43 145 -43q10 0 10 -10v-94q0 -11 -10 -11q-106 0 -195 95z" />
    <glyph glyph-name="uniFEBE" unicode="&#x636;" horiz-adv-x="1282" arabic-form="final" 
d="M440 440h110q12 -78 25 -183l1 -7q63 64 105 104q99 93 174.5 133.5t152.5 40.5q92 0 153.5 -62t61.5 -155q0 -69 -30 -126q-14 -26 -28 -44q25 -12 46 -18q37 -8 71 -8q10 0 10 -10v-94q0 -11 -10 -11q-56 0 -101 22q-41 19 -80 58q-50 -37 -120 -58q-73 -22 -168 -22
q-81 0 -200 22l-33 6q-4 -26 -14 -54q-29 -89 -100.5 -139t-178.5 -50q-124 0 -190.5 71.5t-66.5 207.5q0 15 0.5 29.5t2.5 28.5t3 24t4.5 24.5t5 22t6.5 23t7 22t7.5 24t7.5 23.5h105q-44 -112 -44 -206q0 -81 39 -130t121 -49q185 0 185 199q0 17 -0.5 35t-3 42.5t-4 39
t-6.5 50t-7 49.5t-9.5 61t-9.5 64zM680 120q68 -5 121 -5q139 0 225 50t86 129q0 51 -35.5 84.5t-87.5 33.5t-114.5 -35t-155.5 -117q-48 -43 -134 -124v-3q56 -10 95 -13zM656 632l88 88l89 -88l-88 -88z" />
    <glyph glyph-name="uniFEBF" unicode="&#x636;" horiz-adv-x="1001" arabic-form="initial" 
d="M148 370h100q-14 -128 -23 -171q-4 -22 -7 -33l19 -7l27 -8q85 106 151 178q106 113 180 156t151 43q92 0 153.5 -62t61.5 -155q0 -139 -113 -225t-297 -86q-195 0 -338 54l-44 17q-18 -17 -37 -31q-64 -40 -132 -40q-10 0 -10 11v94q0 10 10 10q51 0 79.5 17.5
t41.5 56.5q18 54 27 181zM415 122q52 -7 124 -7q139 0 225 50t86 129q0 51 -35.5 84.5t-87.5 33.5q-58 0 -117.5 -41t-147.5 -141q-20 -22 -89 -103q25 -4 42 -5zM382 626l88 88l89 -88l-88 -88z" />
    <glyph glyph-name="uniFEC0" unicode="&#x636;" horiz-adv-x="1025" arabic-form="medial" 
d="M148 370h100q-14 -128 -23 -171q-4 -22 -7 -33l19 -7l27 -8q85 106 151 178q106 113 180 156t151 43q92 0 153.5 -62t61.5 -155q0 -139 -113 -225t-297 -86q-195 0 -338 54l-44 17q-18 -17 -37 -31q-64 -40 -132 -40q-10 0 -10 11v94q0 10 10 10q51 0 79.5 17.5
t41.5 56.5q18 54 27 181zM415 122q52 -7 124 -7q139 0 225 50t86 129q0 51 -35.5 84.5t-87.5 33.5q-58 0 -117.5 -41t-147.5 -141q-20 -22 -89 -103q25 -4 42 -5zM830 95l50 63q65 -43 145 -43q10 0 10 -10v-94q0 -11 -10 -11q-106 0 -195 95zM382 626l88 88l89 -88l-88 -88
z" />
    <glyph glyph-name="uniFEC2" unicode="&#x637;" horiz-adv-x="885" arabic-form="final" 
d="M166 725h110v-240q0 -66 -14 -142l-12 -61l39 44q107 117 175.5 159.5t145.5 42.5q92 0 153.5 -62t61.5 -155q0 -139 -113 -225t-297 -86q-233 0 -405 43v110q63 -14 113 -20l43 51v541zM403 115q139 0 225 50t86 129q0 51 -35.5 84.5t-87.5 33.5q-56 0 -109.5 -39
t-145.5 -141l-100 -111q82 -6 167 -6zM690 95l50 63q65 -43 145 -43q10 0 10 -10v-94q0 -11 -10 -11q-106 0 -195 95z" />
    <glyph glyph-name="uniFEC3" unicode="&#x637;" horiz-adv-x="792" arabic-form="initial" 
d="M103 725h110v-240q0 -66 -14 -142q-8 -44 -13 -65l25 30q103 122 177.5 171t148.5 49q92 0 153.5 -62t61.5 -155q0 -139 -113 -225t-297 -86h-342q-10 0 -10 11v94q0 10 10 10h59l44 57v553zM167 115h163q139 0 225 50t86 129q0 51 -35.5 84.5t-87.5 33.5
q-54 0 -110 -43.5t-152 -152.5z" />
    <glyph glyph-name="uniFEC4" unicode="&#x637;" horiz-adv-x="816" arabic-form="medial" 
d="M103 725h110v-240q0 -66 -14 -142q-8 -44 -13 -65l25 30q103 122 177.5 171t148.5 49q92 0 153.5 -62t61.5 -155q0 -139 -113 -225t-297 -86h-342q-10 0 -10 11v94q0 10 10 10h59l44 57v553zM167 115h163q139 0 225 50t86 129q0 51 -35.5 84.5t-87.5 33.5
q-54 0 -110 -43.5t-152 -152.5zM621 95l50 63q65 -43 145 -43q10 0 10 -10v-94q0 -11 -10 -11q-106 0 -195 95z" />
    <glyph glyph-name="uniFEC6" unicode="&#x638;" horiz-adv-x="885" arabic-form="final" 
d="M166 725h110v-240q0 -66 -14 -142l-12 -61l39 44q107 117 175.5 159.5t145.5 42.5q92 0 153.5 -62t61.5 -155q0 -139 -113 -225t-297 -86q-233 0 -405 43v110q63 -14 113 -20l43 51v541zM403 115q139 0 225 50t86 129q0 51 -35.5 84.5t-87.5 33.5q-56 0 -109.5 -39
t-145.5 -141l-100 -111q82 -6 167 -6zM690 95l50 63q65 -43 145 -43q10 0 10 -10v-94q0 -11 -10 -11q-106 0 -195 95zM348 632l88 88l89 -88l-88 -88z" />
    <glyph glyph-name="uniFEC7" unicode="&#x638;" horiz-adv-x="792" arabic-form="initial" 
d="M103 725h110v-240q0 -66 -14 -142q-8 -44 -13 -65l25 30q103 122 177.5 171t148.5 49q92 0 153.5 -62t61.5 -155q0 -139 -113 -225t-297 -86h-342q-10 0 -10 11v94q0 10 10 10h59l44 57v553zM167 115h163q139 0 225 50t86 129q0 51 -35.5 84.5t-87.5 33.5
q-54 0 -110 -43.5t-152 -152.5zM274 632l88 88l89 -88l-88 -88z" />
    <glyph glyph-name="uniFEC8" unicode="&#x638;" horiz-adv-x="816" arabic-form="medial" 
d="M103 725h110v-240q0 -66 -14 -142q-8 -44 -13 -65l25 30q103 122 177.5 171t148.5 49q92 0 153.5 -62t61.5 -155q0 -139 -113 -225t-297 -86h-342q-10 0 -10 11v94q0 10 10 10h59l44 57v553zM167 115h163q139 0 225 50t86 129q0 51 -35.5 84.5t-87.5 33.5
q-54 0 -110 -43.5t-152 -152.5zM621 95l50 63q65 -43 145 -43q10 0 10 -10v-94q0 -11 -10 -11q-106 0 -195 95zM274 632l88 88l89 -88l-88 -88z" />
    <glyph glyph-name="uniFECA" unicode="&#x639;" horiz-adv-x="591" arabic-form="final" 
d="M316 538q96 0 160.5 -53t64.5 -130q0 -104 -124 -192l-21 -14l32 -12q67 -22 163 -22q10 0 10 -10v-94q0 -11 -10 -11q-76 0 -131.5 15t-112.5 49l-43 28l-30 -18q-60 -36 -91.5 -68t-31.5 -69q0 -47 46.5 -72t133.5 -25q107 0 231 38v-106q-142 -47 -236 -47
q-285 0 -285 196q0 107 140 201l39 26l-33 54q-48 76 -88 120q-9 11 -31 33l-38 -19v106q61 43 138.5 69.5t147.5 26.5zM305 202l17 11q107 66 107 115q0 42 -33 68t-89 26q-58 0 -130 -24l-14 -4q70 -70 142 -192z" />
    <glyph glyph-name="uniFECB" unicode="&#x639;" horiz-adv-x="543" arabic-form="initial" 
d="M523 157l-23 -114q-240 -43 -500 -43q-10 0 -10 11v94q0 10 10 10q87 0 125 1q-82 61 -82 162q0 93 65.5 155t164.5 62q66 0 173 -40v-105q-93 31 -160 31q-60 0 -96.5 -29.5t-36.5 -79.5q0 -56 51.5 -101.5t142.5 -39.5l-2 -1q31 4 50 7q49 6 128 20z" />
    <glyph glyph-name="uniFECC" unicode="&#x639;" horiz-adv-x="590" arabic-form="medial" 
d="M315 495q96 0 160.5 -53t64.5 -130q0 -101 -83 -179l-11 -9q10 -2 30 -4q44 -5 114 -5q10 0 10 -10v-94q0 -11 -10 -11q-106 0 -185 21q-37 10 -79 26l-37 -13q-103 -34 -289 -34q-10 1 -10 11v94q0 10 10 10q72 0 128 3q29 2 77 8q-7 13 -21 35q-44 69 -89 119
q-15 18 -29 31q-16 -7 -37 -18v106q61 43 138.5 69.5t147.5 26.5zM310 142l19 9q45 26 72 61.5t27 72.5q0 42 -33 68t-89 26q-58 0 -130 -24l-14 -4q34 -34 66 -79q38 -54 82 -130z" />
    <glyph glyph-name="uniFECE" unicode="&#x63a;" horiz-adv-x="591" arabic-form="final" 
d="M316 538q96 0 160.5 -53t64.5 -130q0 -104 -124 -192l-21 -14l32 -12q67 -22 163 -22q10 0 10 -10v-94q0 -11 -10 -11q-76 0 -131.5 15t-112.5 49l-43 28l-30 -18q-60 -36 -91.5 -68t-31.5 -69q0 -47 46.5 -72t133.5 -25q107 0 231 38v-106q-142 -47 -236 -47
q-285 0 -285 196q0 107 140 201l39 26l-33 54q-48 76 -88 120q-9 11 -31 33l-38 -19v106q61 43 138.5 69.5t147.5 26.5zM305 202l17 11q107 66 107 115q0 42 -33 68t-89 26q-58 0 -130 -24l-14 -4q70 -70 142 -192zM217 678l88 88l89 -88l-88 -88z" />
    <glyph glyph-name="uniFECF" unicode="&#x63a;" horiz-adv-x="543" arabic-form="initial" 
d="M523 157l-23 -114q-240 -43 -500 -43q-10 0 -10 11v94q0 10 10 10q87 0 125 1q-82 61 -82 162q0 93 65.5 155t164.5 62q66 0 173 -40v-105q-93 31 -160 31q-60 0 -96.5 -29.5t-36.5 -79.5q0 -56 51.5 -101.5t142.5 -39.5l-2 -1q31 4 50 7q49 6 128 20zM170 634l88 88
l89 -88l-88 -88z" />
    <glyph glyph-name="uniFED0" unicode="&#x63a;" horiz-adv-x="590" arabic-form="medial" 
d="M315 495q96 0 160.5 -53t64.5 -130q0 -101 -83 -179l-11 -9q10 -2 30 -4q44 -5 114 -5q10 0 10 -10v-94q0 -11 -10 -11q-106 0 -185 21q-37 10 -79 26l-37 -13q-103 -34 -289 -34q-10 1 -10 11v94q0 10 10 10q72 0 128 3q29 2 77 8q-7 13 -21 35q-44 69 -89 119
q-15 18 -29 31q-16 -7 -37 -18v106q61 43 138.5 69.5t147.5 26.5zM310 142l19 9q45 26 72 61.5t27 72.5q0 42 -33 68t-89 26q-58 0 -130 -24l-14 -4q34 -34 66 -79q38 -54 82 -130zM208 634l88 88l89 -88l-88 -88z" />
    <glyph glyph-name="uniFED2" unicode="&#x641;" horiz-adv-x="953" arabic-form="final" 
d="M687 495q95 0 158 -63.5t63 -163.5q0 -63 -45 -121q-10 -14 -23 -26l17 -2q32 -4 96 -4q10 0 10 -10v-94q0 -11 -10 -11q-85 0 -180 19q-39 7 -76 18q-1 -1 -3 -1q-123 -36 -275 -36q-10 1 -10 11v94q0 10 10 10q66 0 102 4q6 0 9 1q-15 13 -24 25q-43 52 -43 123
q0 92 64.5 159.5t159.5 67.5zM770 174q27 36 27 82q0 55 -31 89t-82 34q-49 0 -80 -33t-31 -86q0 -47 28 -84q27 -36 80 -54q63 16 89 52zM49 388h105q-14 -73 -14 -116q0 -85 38.5 -121t142.5 -36h114q10 0 10 -10v-94q0 -11 -10 -11h-139q-127 0 -196 63.5t-69 179.5
q0 61 18 145zM596 632l88 88l89 -88l-88 -88z" />
    <glyph glyph-name="uniFED3" unicode="&#x641;" horiz-adv-x="522" arabic-form="initial" 
d="M264 495q93 0 155.5 -66t62.5 -164q0 -120 -71 -192.5t-188 -72.5h-223q-10 1 -10 11v94q0 10 10 10h98q0 1 -1 2.5t-2 2.5t-1 2q-8 14 -18 27q-42 64 -42 130q0 91 66 153.5t164 62.5zM209 115h17q67 0 106 37t39 103q0 54 -31.5 89t-81.5 35q-51 0 -82.5 -34t-31.5 -83
q0 -40 33 -90q12 -19 27 -46q4 -5 5 -11zM176 632l88 88l89 -88l-88 -88z" />
    <glyph glyph-name="uniFED4" unicode="&#x641;" horiz-adv-x="534" arabic-form="medial" 
d="M268 495q95 0 158 -63.5t63 -163.5q0 -63 -45 -121q-11 -13 -23 -26l17 -2q32 -4 96 -4q10 0 10 -10v-94q0 -11 -10 -11q-85 0 -180 19q-39 7 -76 18q-1 -1 -3 -1q-123 -36 -275 -36q-10 1 -10 11v94q0 10 10 10q66 0 102 4q6 0 9 1q-15 13 -24 25q-43 52 -43 123
q0 92 64.5 159.5t159.5 67.5zM351 174q27 36 27 82q0 55 -31 89t-82 34q-49 0 -80 -33t-31 -86q0 -47 28 -84q27 -36 80 -54q63 16 89 52zM182 632l88 88l89 -88l-88 -88z" />
    <glyph glyph-name="uniFED6" unicode="&#x642;" horiz-adv-x="769" arabic-form="final" 
d="M494 485q92 0 149 -59.5t63 -168.5l2 -38q2 -50 2 -98v-6h59q10 0 10 -10v-94q0 -11 -10 -11h-61q-5 -33 -18 -61q-34 -74 -119 -114t-214 -40q-170 0 -248.5 68.5t-78.5 210.5q0 15 0.5 29.5t2.5 28.5t3 24t4.5 24.5t5 22t6.5 23t7 22t7.5 24t7.5 23.5h105
q-44 -112 -44 -206q0 -96 56 -138.5t189 -42.5q83 0 137 23t74 61l9 18h-71q-121 0 -193.5 63.5t-72.5 172.5q0 108 65.5 178.5t165.5 70.5zM601 154l-6 94q-10 122 -104 122q-51 0 -84.5 -36.5t-33.5 -93.5q0 -125 171 -125h59q0 15 -2 39zM328 636l88 88l76 -74l75 74
l89 -88l-88 -88l-76 74l-75 -74z" />
    <glyph glyph-name="uniFED7" unicode="&#x642;" horiz-adv-x="522" arabic-form="initial" 
d="M264 495q93 0 155.5 -66t62.5 -164q0 -120 -71 -192.5t-188 -72.5h-223q-10 1 -10 11v94q0 10 10 10h98q0 1 -1 2.5t-2 2.5t-1 2q-8 14 -18 27q-42 64 -42 130q0 91 66 153.5t164 62.5zM209 115h17q67 0 106 37t39 103q0 54 -31.5 89t-81.5 35q-51 0 -82.5 -34t-31.5 -83
q0 -40 33 -90q12 -19 27 -46q4 -5 5 -11zM101 636l88 88l76 -74l75 74l89 -88l-88 -88l-76 74l-75 -74z" />
    <glyph glyph-name="uniFED8" unicode="&#x642;" horiz-adv-x="534" arabic-form="medial" 
d="M268 495q95 0 158 -63.5t63 -163.5q0 -63 -45 -121q-11 -13 -23 -26l17 -2q32 -4 96 -4q10 0 10 -10v-94q0 -11 -10 -11q-85 0 -180 19q-39 7 -76 18q-1 -1 -3 -1q-123 -36 -275 -36q-10 1 -10 11v94q0 10 10 10q66 0 102 4q6 0 9 1q-15 13 -24 25q-43 52 -43 123
q0 92 64.5 159.5t159.5 67.5zM351 174q27 36 27 82q0 55 -31 89t-82 34q-49 0 -80 -33t-31 -86q0 -47 28 -84q27 -36 80 -54q63 16 89 52zM101 636l88 88l76 -74l75 74l89 -88l-88 -88l-76 74l-75 -74z" />
    <glyph glyph-name="uniFEDA" unicode="&#x643;" horiz-adv-x="882" arabic-form="final" 
d="M48 388h105q-14 -73 -14 -116q0 -85 38.5 -121t142.5 -36h106q93 0 158 13q54 12 86 26q-2 24 -2 37v534h110v-526q0 -44 23 -64t81 -20q10 0 10 -10v-94q0 -11 -10 -11q-102 0 -160 53q-9 8 -17 17q-48 -32 -108 -49q-73 -21 -171 -21h-131q-127 0 -196 63.5t-69 179.5
q0 61 18 145zM459 433h94l-27 -90h-132q-52 0 -106 -17v87q38 13 55 16l-1 1q-20 23 -20 56q0 44 31 74t86 30q33 0 74 -21v-84q-41 14 -72 14q-20 0 -32.5 -9t-12.5 -23q0 -34 63 -34z" />
    <glyph glyph-name="uniFEDB" unicode="&#x643;" horiz-adv-x="578" arabic-form="initial" 
d="M383 795h160v-5l-347 -291l160 -70q192 -86 192 -223q0 -95 -71.5 -150.5t-194.5 -55.5h-282q-10 0 -10 11v94q0 10 10 10h290q66 0 107 23.5t41 60.5t-32 67t-107 64l-245 108v77z" />
    <glyph glyph-name="uniFEDC" unicode="&#x643;" horiz-adv-x="645" arabic-form="medial" 
d="M383 795h160v-5l-347 -291l160 -70q192 -86 192 -223q0 -95 -71.5 -150.5t-194.5 -55.5h-282q-10 0 -10 11v94q0 10 10 10h290q66 0 107 23.5t41 60.5t-32 67t-107 64l-245 108v77zM450 95l50 63q65 -43 145 -43q10 0 10 -10v-94q0 -11 -10 -11q-106 0 -195 95z" />
    <glyph glyph-name="uniFEDE" unicode="&#x644;" horiz-adv-x="690" arabic-form="final" 
d="M476 725h110v-530q0 -80 104 -80q10 0 10 -10v-94q0 -11 -10 -11q-68 0 -108 37q-4 -33 -15 -63q-28 -89 -98.5 -139t-176.5 -50q-124 0 -193 71.5t-69 207.5q0 15 0.5 29.5t2.5 28.5t3 24t4.5 24.5t5 22t6.5 23t7 22t7.5 24t7.5 23.5h105q-44 -112 -44 -206
q0 -80 41 -129.5t124 -49.5q92 0 134 49t42 150v626z" />
    <glyph glyph-name="uniFEDF" unicode="&#x644;" horiz-adv-x="294" arabic-form="initial" 
d="M104 725h110v-534q0 -87 -55.5 -139t-158.5 -52q-10 0 -10 11v94q0 10 10 10q58 0 81 20t23 64v526z" />
    <glyph glyph-name="uniFEE0" unicode="&#x644;" horiz-adv-x="318" arabic-form="medial" 
d="M104 725h110v-526q0 -44 23 -64t81 -20q10 0 10 -10v-94q0 -11 -10 -11q-102 0 -160 53l-8 7l-2 -2q-58 -58 -148 -58q-10 0 -10 11v94q0 10 10 10q41 0 73 12q21 8 35 18q-4 20 -4 46v534z" />
    <glyph glyph-name="uniFEE2" unicode="&#x645;" horiz-adv-x="661" arabic-form="final" 
d="M389 471q126 0 167 -152l23 -86q18 -65 35.5 -91.5t46.5 -26.5q10 0 10 -10v-94q0 -11 -10 -11q-75 0 -121 61q-4 6 -11 17.5t-9 14.5l-22 -93q-192 0 -280 63q-18 13 -29 27q-49 -13 -49 -75q0 -76 30 -290h-110q-30 214 -30 298q0 60 30.5 106t80.5 67q9 4 20 7
q1 13 6 30q20 92 79.5 165t142.5 73zM505 127q-15 41 -26 79l-15 50q-28 99 -84 99q-38 0 -74.5 -48t-56.5 -132q76 -44 178 -56q32 -4 83 -4q-1 4 -5 12z" />
    <glyph glyph-name="uniFEE3" unicode="&#x645;" horiz-adv-x="553" arabic-form="initial" 
d="M317 471q184 0 206 -355l-82 -129q-98 0 -191 17q-83 17 -145 46l-2 -3q-40 -47 -103 -47q-10 1 -10 11v94q0 10 10 10q29 0 45.5 27.5t54.5 129.5q38 101 88.5 150t128.5 49zM286 113q67 -10 133 -10q-6 123 -34 185q-30 67 -75 67q-41 0 -69 -33t-61 -116l-22 -55
q59 -27 128 -38z" />
    <glyph glyph-name="uniFEE4" unicode="&#x645;" horiz-adv-x="561" arabic-form="medial" 
d="M289 471q126 0 167 -152l23 -86q18 -65 35.5 -91.5t46.5 -26.5q10 0 10 -10v-94q0 -11 -10 -11q-75 0 -121 61q-4 6 -11 17.5t-9 14.5l-22 -93q-84 0 -160 14q-61 12 -103 37l-29 -21q-44 -30 -106 -30q-10 0 -10 11v94q0 10 10 10q39 0 68 10q-8 24 -8 49q0 42 16 92
t44 96.5t73 77.5t96 31zM405 127q-15 41 -26 79l-15 50q-28 99 -84 99q-38 0 -74.5 -48t-56.5 -132q76 -44 178 -56q32 -4 83 -4q-1 4 -5 12z" />
    <glyph glyph-name="uniFEE6" unicode="&#x646;" horiz-adv-x="686" arabic-form="final" 
d="M440 440h110q12 -78 25 -183q5 -29 6 -57l4 -25q5 -33 28.5 -46.5t72.5 -13.5q10 0 10 -10v-94q0 -11 -10 -11q-67 0 -96 35q-3 3 -7 11q-4 -35 -17 -72q-29 -89 -100.5 -139t-178.5 -50q-124 0 -190.5 71.5t-66.5 207.5q0 15 0.5 29.5t2.5 28.5t3 24t4.5 24.5t5 22
t6.5 23t7 22t7.5 24t7.5 23.5h105q-44 -112 -44 -206q0 -81 39 -130t121 -49q185 0 185 199q0 17 -0.5 35t-3 42.5t-4 39t-6.5 50t-7 49.5t-9.5 61t-9.5 64zM209 470l88 88l89 -88l-88 -88z" />
    <glyph glyph-name="uniFEE7" unicode="&#x646;" horiz-adv-x="264" arabic-form="initial" 
d="M74 485h110q30 -214 30 -294q0 -87 -56 -139t-158 -52q-10 0 -10 11v94q0 10 10 10q58 0 81 20t23 64q0 72 -30 286zM36 632l88 88l89 -88l-88 -88z" />
    <glyph glyph-name="uniFEE8" unicode="&#x646;" horiz-adv-x="300" arabic-form="medial" 
d="M113 370h102q0 -91 -11 -162q-6 -35 -17 -69q27 -12 42 -16q37 -8 71 -8q10 0 10 -10v-94q0 -11 -10 -11q-56 0 -101 22q-26 13 -55 36q-52 -58 -144 -58q-10 0 -10 11v94q0 10 10 10q67 0 90 50q23 53 23 205zM71 527l88 88l89 -88l-88 -88z" />
    <glyph glyph-name="uniFEE9" unicode="&#x647;" horiz-adv-x="837" arabic-form="isolated" 
d="M314 565v115q225 0 354 -101t129 -280q0 -80 -48 -212l-107 -100q-125 0 -252 43l-27 9l-16 -6q-103 -33 -202 -33q-63 0 -135 23v110q70 -18 130 -18q26 0 48 3l-25 27q-43 52 -43 123q0 92 64.5 159.5t159.5 67.5t158 -63.5t63 -163.5q0 -63 -45 -121q-18 -22 -29 -32
q22 -4 43 -6q50 -6 108 -6q44 103 44 190q0 124 -99.5 198t-272.5 74zM427 174q27 36 27 82q0 55 -31 89t-82 34q-49 0 -80 -33t-31 -86q0 -47 28 -84q27 -36 81 -54q62 17 88 52z" />
    <glyph glyph-name="uniFEEA" unicode="&#x647;" horiz-adv-x="535" arabic-form="final" 
d="M348 538h110v-345q0 -39 17 -58.5t60 -19.5q10 0 10 -10v-94q0 -11 -10 -11q-49 0 -83 15q-31 13 -54 38q-37 -22 -69 -35q-41 -18 -91 -18q-94 0 -151 54t-57 143q0 70 42 136.5t137 111.5q59 26 139 38v55zM206 325q-66 -47 -66 -119q0 -45 26 -68.5t74 -23.5
q38 0 69 7q21 4 47 15q-8 35 -8 72v169q-88 -13 -142 -52z" />
    <glyph glyph-name="uniFEEB" unicode="&#x647;" horiz-adv-x="761" arabic-form="initial" 
d="M238 565v115q225 0 354 -101t129 -280q0 -80 -48 -212l-107 -100q-125 0 -252 43l-28 9l-11 -3q-123 -36 -275 -36q-10 1 -10 11v94q0 10 10 10q66 0 102 4q6 0 9 1q-15 13 -24 25q-43 52 -43 123q0 92 64.5 159.5t159.5 67.5t158 -63.5t63 -163.5q0 -62 -45 -120
q-16 -21 -29 -33q23 -5 43 -6q49 -6 108 -6q44 103 44 190q0 124 -99.5 198t-272.5 74zM351 174q27 36 27 82q0 55 -31 89t-82 34q-49 0 -80 -33t-31 -86q0 -47 28 -84q27 -36 80 -54q63 16 89 52z" />
    <glyph glyph-name="uniFEEC" unicode="&#x647;" horiz-adv-x="553" arabic-form="medial" 
d="M262 570h87q150 -131 150 -282q0 -75 -39 -129q-7 -11 -25 -31q12 -3 36 -7q41 -6 82 -6q10 0 10 -11v-94q0 -10 -10 -10q-25 0 -45 4l-43 12q19 -22 27 -41q10 -21 10 -43q0 -66 -47.5 -106.5t-126.5 -40.5q-93 0 -159.5 50t-96.5 139l-8 27q-21 -1 -64 -1q-10 0 -10 11
v94q0 10 10 10q36 0 53 1q2 67 14 123q45 208 195 331zM157 124l19 4q213 37 213 157q0 65 -32 115q-28 42 -65 73q-24 -21 -44 -48q-42 -56 -66.5 -134t-24.5 -159v-8zM196 17l-20 -4q12 -30 29 -53q47 -61 118 -61q79 0 79 54q0 30 -16 59q-15 28 -38 54q-63 -32 -152 -49
z" />
    <glyph glyph-name="uniFEEE" unicode="&#x648;" horiz-adv-x="546" arabic-form="final" 
d="M271 485q92 0 149 -59.5t63 -168.5q4 -76 4 -138v-4h59q10 0 10 -10v-94q0 -11 -10 -11h-59q-4 -30 -15 -59q-27 -73 -114.5 -114.5t-233.5 -41.5v105q130 0 194 41q46 30 58 69h-70q-121 0 -193.5 63.5t-72.5 172.5q0 108 65.5 178.5t165.5 70.5zM380 115l-2 40
q-1 19 -3.5 49.5t-2.5 43.5q-10 122 -104 122q-51 0 -84.5 -36.5t-33.5 -93.5q0 -125 171 -125h59z" />
    <glyph glyph-name="uniFEF0" unicode="&#x649;" horiz-adv-x="676" arabic-form="final" 
d="M480 34v110q135 -29 196 -29q10 0 10 -10v-94q0 -11 -10 -11h-3q-17 -42 -41 -73q-105 -142 -325 -142q-125 0 -201 73t-76 206q0 15 0.5 29.5t2.5 28.5t3 24t4.5 24.5t5 22t6.5 23t7 22t7.5 24t7.5 23.5h105q-44 -112 -44 -206q0 -179 198 -179q100 0 170 42
q44 26 71 68q-6 2 -18 4.5t-15 3.5q-17 5 -61 16z" />
    <glyph glyph-name="uniFEF2" unicode="&#x64a;" horiz-adv-x="676" arabic-form="final" 
d="M480 34v110q135 -29 196 -29q10 0 10 -10v-94q0 -11 -10 -11h-3q-17 -42 -41 -73q-105 -142 -325 -142q-125 0 -201 73t-76 206q0 15 0.5 29.5t2.5 28.5t3 24t4.5 24.5t5 22t6.5 23t7 22t7.5 24t7.5 23.5h105q-44 -112 -44 -206q0 -179 198 -179q100 0 170 42
q44 26 71 68q-6 2 -18 4.5t-15 3.5q-17 5 -61 16zM224 -348l88 88l76 -74l75 74l89 -88l-88 -88l-76 74l-75 -74z" />
    <glyph glyph-name="uniFEF3" unicode="&#x64a;" horiz-adv-x="339" arabic-form="initial" 
d="M154 485h110q30 -214 30 -294q0 -87 -56 -139t-158 -52h-80q-10 0 -10 11v94q0 10 10 10h80q58 0 81 20t23 64q0 72 -30 286zM-21 -153l88 88l76 -74l75 74l89 -88l-88 -88l-76 74l-75 -74z" />
    <glyph glyph-name="uniFEF4" unicode="&#x64a;" horiz-adv-x="370" arabic-form="medial" 
d="M145 370h102q0 -87 -7 -150q-5 -36 -12 -65q29 -17 64 -27q40 -13 78 -13q10 0 10 -10v-94q0 -11 -10 -11q-54 0 -110 27q-35 19 -70 48q-22 -31 -57 -49q-52 -26 -133 -26q-10 0 -10 11v94q0 10 10 10q90 0 119 48q17 28 21.5 73.5t4.5 133.5zM2 -154l88 88l76 -74
l75 74l89 -88l-88 -88l-76 74l-75 -74z" />
    <glyph glyph-name=".notdef" horiz-adv-x="500" 
d="M0 0v725h500v-725h-500zM239 362l-220 334v-667zM260 362l221 -333v667zM250 346l-217 -327h433zM33 706l217 -328l216 328h-433z" />
    <glyph glyph-name=".null" 
 />
    <glyph glyph-name="nonmarkingreturn" horiz-adv-x="333" 
 />
    <glyph glyph-name="space" unicode=" " horiz-adv-x="230" 
 />
    <glyph glyph-name="exclam" unicode="!" horiz-adv-x="240" 
d="M160 213h-78l-22 313v199h120v-199zM188 0h-136v136h136v-136z" />
    <glyph glyph-name="quotedbl" unicode="&#x22;" horiz-adv-x="327" 
d="M18 725h128l-20 -257h-88zM181 725h128l-20 -257h-88z" />
    <glyph glyph-name="numbersign" unicode="#" horiz-adv-x="702" 
d="M60 550h141l24 175h104l-24 -175h142l24 175h105l-24 -175h136l-12 -94h-137l-23 -165h136l-11 -93h-138l-27 -198h-105l27 198h-142l-27 -198h-104l27 198h-138l12 93h139l23 165h-138zM292 456l-23 -165h142l23 165h-142z" />
    <glyph glyph-name="dollar" unicode="$" horiz-adv-x="610" 
d="M274 810h56v-73q106 -11 168.5 -74t62.5 -162h-118q-1 64 -32 100.5t-81 45.5v-226l11 -2q49 -12 83 -25.5t72 -37.5t58 -62.5t20 -89.5q0 -97 -70 -153.5t-174 -62.5v-84h-56v84q-108 8 -175 77t-65 172h118q0 -71 35 -111t87 -47v245l-32 8q-194 50 -194 207
q0 89 66.5 140t159.5 58v73zM459 194q0 48 -30.5 72t-98.5 44v-232q55 2 92 32.5t37 83.5zM163 543q0 -83 104 -107l7 -2v215q-46 -2 -78.5 -30t-32.5 -76z" />
    <glyph glyph-name="percent" unicode="%" horiz-adv-x="1035" 
d="M203 310q-83 0 -127 57t-44 155q0 99 44 154.5t127 55.5q82 0 126 -56t44 -154t-44 -155t-126 -57zM203 374q81 0 81 148q0 145 -81 145q-82 0 -82 -145q0 -148 82 -148zM330 0h-126l500 725h126zM833 -7q-83 0 -127 57t-44 155q0 99 44 154.5t127 55.5q82 0 126 -56
t44 -154t-44 -155t-126 -57zM833 57q81 0 81 148q0 145 -81 145q-82 0 -82 -145q0 -148 82 -148z" />
    <glyph glyph-name="ampersand" unicode="&#x26;" horiz-adv-x="696" 
d="M259 -13q-108 0 -175 61t-67 153q0 78 48.5 131.5t127.5 82.5q-77 90 -77 165q0 72 56.5 115t145.5 43q79 0 136.5 -39t57.5 -121q0 -61 -38.5 -109.5t-101.5 -77.5l116 -125q23 63 28 135h120q-13 -120 -70 -220l167 -181h-163l-77 84q-97 -97 -234 -97zM280 84
q82 0 146 74l-170 187q-115 -43 -115 -137q0 -57 37 -90.5t102 -33.5zM240 583q0 -48 70 -124l1 -1q88 39 88 116q0 35 -22.5 54.5t-57.5 19.5q-33 0 -56 -17.5t-23 -47.5z" />
    <glyph glyph-name="quotesingle" unicode="'" horiz-adv-x="164" 
d="M18 725h128l-20 -257h-88z" />
    <glyph glyph-name="parenleft" unicode="(" horiz-adv-x="258" 
d="M24 270q0 135 41.5 254t96.5 201h106q-121 -200 -121 -455q0 -259 121 -456h-106q-55 82 -96.5 201t-41.5 255z" />
    <glyph glyph-name="parenright" unicode=")" horiz-adv-x="257" 
d="M233 270q0 -137 -41.5 -256.5t-96.5 -199.5h-105q121 197 121 456q0 255 -121 455h105q55 -80 96.5 -199.5t41.5 -255.5z" />
    <glyph glyph-name="asterisk" unicode="*" horiz-adv-x="362" 
d="M215 725v-111l104 40l29 -74l-106 -37l63 -89l-61 -47l-69 92l-62 -92l-68 46l64 89l-105 38l28 74l103 -40v111h80z" />
    <glyph glyph-name="plus" unicode="+" horiz-adv-x="678" 
d="M395 0h-110v214h-221v107h221v215h110v-215h220v-107h-220v-214z" />
    <glyph glyph-name="comma" unicode="," horiz-adv-x="240" 
d="M52 0v136h136v-146l-70 -148h-71l66 158h-61z" />
    <glyph glyph-name="hyphen" unicode="-" horiz-adv-x="422" 
d="M374 216h-326v107h326v-107z" />
    <glyph glyph-name="period" unicode="." horiz-adv-x="240" 
d="M188 0h-136v136h136v-136z" />
    <glyph glyph-name="slash" unicode="/" horiz-adv-x="386" 
d="M109 0h-114l282 725h114z" />
    <glyph glyph-name="zero" unicode="0" horiz-adv-x="656" 
d="M328 79q79 0 122 73.5t43 210.5t-43 210.5t-122 73.5q-78 0 -121 -73.5t-43 -210.5t43 -210.5t121 -73.5zM328 -13q-140 0 -214 102t-74 274q0 171 74 273t214 102q141 0 215 -101.5t74 -273.5q0 -173 -74 -274.5t-215 -101.5z" />
    <glyph glyph-name="one" unicode="1" horiz-adv-x="356" 
d="M281 0h-119v552h-162v82q59 2 90 7.5t58 25t45 58.5h88v-725z" />
    <glyph glyph-name="two" unicode="2" horiz-adv-x="575" 
d="M298 738q104 0 170 -51t66 -141q0 -106 -92.5 -212t-270.5 -230h380v-104h-528v98q203 158 295 256t92 182q0 53 -31 82t-86 29q-58 0 -96.5 -37.5t-38.5 -116.5h-119q-2 110 69 177.5t190 67.5z" />
    <glyph glyph-name="three" unicode="3" horiz-adv-x="601" 
d="M292 79q65 0 106 33.5t41 91.5q0 125 -181 125h-35v99h30q168 0 168 112q0 52 -36 79.5t-90 27.5q-65 0 -102.5 -36.5t-45.5 -101.5h-116q8 105 80 167t191 62q101 0 171 -48t70 -143q0 -53 -28.5 -96t-77.5 -67q62 -23 93.5 -70.5t31.5 -106.5q0 -106 -78 -163t-194 -57
q-120 0 -191 68.5t-77 169.5h116q9 -64 48 -105t106 -41z" />
    <glyph glyph-name="four" unicode="4" horiz-adv-x="620" 
d="M366 570l-228 -297h228v297zM613 273v-103h-128v-170h-119v170h-358v99l359 456h118v-452h128z" />
    <glyph glyph-name="five" unicode="5" horiz-adv-x="604" 
d="M298 79q62 0 102.5 41.5t40.5 112.5q0 76 -43.5 117.5t-102.5 41.5q-49 0 -84 -21.5t-47 -54.5l-112 6l48 403h434v-105h-336l-23 -182q56 45 150 45q99 0 169 -66t70 -182q0 -117 -77 -182.5t-191 -65.5q-120 0 -189 67.5t-75 167.5h115q19 -143 151 -143z" />
    <glyph glyph-name="six" unicode="6" horiz-adv-x="617" 
d="M170 233q0 -71 39 -112.5t102 -41.5t102.5 41.5t39.5 112.5t-39 113t-102 42t-102.5 -42t-39.5 -113zM319 647q-73 0 -114.5 -67.5t-43.5 -180.5q57 83 174 83q102 0 171.5 -68t69.5 -179q0 -108 -73.5 -178t-190.5 -70q-137 0 -204.5 94.5t-67.5 259.5q0 82 15.5 151
t48.5 125.5t90 88.5t134 32q107 0 166 -57t68 -138h-121q-6 52 -38.5 78t-83.5 26z" />
    <glyph glyph-name="seven" unicode="7" horiz-adv-x="498" 
d="M-3 620v105h521v-105q-144 -138 -216 -282t-84 -338h-135q18 353 309 620h-395z" />
    <glyph glyph-name="eight" unicode="8" horiz-adv-x="634" 
d="M316 738q112 0 180 -52t68 -134q0 -111 -93 -165q115 -60 115 -181q0 -104 -75.5 -161.5t-194.5 -57.5t-194.5 57.5t-75.5 161.5q0 123 115 181q-46 26 -69.5 70.5t-23.5 94.5q0 82 67.5 134t180.5 52zM316 341q-67 0 -106.5 -35t-39.5 -96q0 -62 39.5 -96.5t106.5 -34.5
t106.5 34.5t39.5 96.5q0 61 -39.5 96t-106.5 35zM446 537q0 52 -35 81t-95 29t-95.5 -29.5t-35.5 -80.5q0 -52 36 -83.5t95 -31.5q60 0 95 31.5t35 83.5z" />
    <glyph glyph-name="nine" unicode="9" horiz-adv-x="609" 
d="M439 492q0 71 -39.5 113t-101.5 42q-64 0 -103 -41.5t-39 -113.5q0 -71 39 -113t102 -42q61 0 101.5 42.5t40.5 112.5zM290 79q73 0 114.5 67t43.5 180q-57 -83 -174 -83q-102 0 -171.5 68.5t-69.5 179.5q0 108 73.5 177.5t190.5 69.5q137 0 204.5 -94.5t67.5 -259.5
q0 -65 -9.5 -122t-31.5 -108t-54.5 -87.5t-82 -58t-111.5 -21.5q-106 0 -165 57t-68 138h121q6 -51 38.5 -77t83.5 -26z" />
    <glyph glyph-name="colon" unicode=":" horiz-adv-x="240" 
d="M188 402h-136v136h136v-136zM188 0h-136v136h136v-136z" />
    <glyph glyph-name="semicolon" unicode=";" horiz-adv-x="244" 
d="M188 402h-136v136h136v-136zM52 0v136h136v-146l-70 -148h-71l66 158h-61z" />
    <glyph glyph-name="less" unicode="&#x3c;" horiz-adv-x="678" 
d="M77 317l515 223v-120l-378 -153l378 -152v-119l-515 221v100z" />
    <glyph glyph-name="equal" unicode="=" horiz-adv-x="678" 
d="M592 318h-506v108h506v-108zM592 111h-506v107h506v-107z" />
    <glyph glyph-name="greater" unicode="&#x3e;" horiz-adv-x="678" 
d="M601 317v-100l-515 -221v119l379 152l-379 153v120z" />
    <glyph glyph-name="question" unicode="?" horiz-adv-x="514" 
d="M269 738q98 0 167 -45.5t69 -132.5q0 -119 -126 -195q-53 -32 -72 -55t-19 -69v-31h-119v34q0 66 26.5 105t86.5 75q49 29 75 59t26 70q0 41 -33.5 65t-82.5 24q-66 0 -102 -36t-38 -99h-118q0 104 73 167.5t187 63.5zM297 0h-136v136h136v-136z" />
    <glyph glyph-name="at" unicode="@" horiz-adv-x="825" 
d="M607 153q-41 0 -70 24t-35 68q-48 -89 -146 -89q-68 0 -112 46t-44 135q0 92 57 161t149 69q85 0 116 -76q1 7 3.5 27.5t4.5 31.5h71l-29 -218q-4 -20 -4 -40q0 -67 46 -67q40 0 67.5 48t27.5 129q0 122 -76 187.5t-202 65.5q-137 0 -224 -88t-87 -221q0 -128 76 -206.5
t200 -78.5q101 0 190 44l28 -69q-101 -49 -218 -49q-158 0 -257 101t-99 261t113 268t280 108q100 0 177.5 -33t126.5 -106.5t49 -179.5q0 -116 -53.5 -184.5t-125.5 -68.5zM408 490q-54 0 -86.5 -45t-32.5 -111q0 -103 83 -103q57 0 90 47t33 116q0 96 -87 96z" />
    <glyph glyph-name="A" unicode="A" horiz-adv-x="676" 
d="M0 0l270 725h134l272 -725h-139l-57 161h-294l-56 -161h-130zM332 578l-109 -311h219z" />
    <glyph glyph-name="B" unicode="B" horiz-adv-x="667" 
d="M73 0v725h273q261 0 261 -185q0 -49 -23.5 -91.5t-57.5 -63.5q109 -49 109 -170q0 -110 -75 -162.5t-196 -52.5h-291zM200 325v-223h169q135 0 135 113q0 56 -34.5 83t-107.5 27h-162zM200 623v-201h158q120 0 120 104q0 47 -32.5 72t-87.5 25h-158z" />
    <glyph glyph-name="C" unicode="C" horiz-adv-x="726" 
d="M570 241h122q-23 -122 -105 -188t-208 -66q-157 0 -246 102.5t-89 275.5q0 172 91.5 272.5t249.5 100.5q122 0 202.5 -66.5t102.5 -187.5h-122q-17 73 -66 111.5t-121 38.5q-90 0 -148 -71t-58 -198q0 -128 57.5 -201t147.5 -73q75 0 124 38t66 112z" />
    <glyph glyph-name="D" unicode="D" horiz-adv-x="719" 
d="M544 363q0 82 -23 136.5t-66 80t-86.5 34.5t-103.5 9h-65v-521h65q60 0 103.5 9t86.5 35t66 80.5t23 136.5zM73 725h198q72 0 130.5 -10.5t110.5 -36t87.5 -66t56 -103.5t20.5 -146q0 -103 -30.5 -175.5t-87 -112.5t-126.5 -57.5t-161 -17.5h-198v725z" />
    <glyph glyph-name="E" unicode="E" horiz-adv-x="615" 
d="M73 0v725h513v-106h-386v-194h365v-105h-365v-213h386v-107h-513z" />
    <glyph glyph-name="F" unicode="F" horiz-adv-x="580" 
d="M73 0v725h506v-106h-379v-194h357v-105h-357v-320h-127z" />
    <glyph glyph-name="G" unicode="G" horiz-adv-x="764" 
d="M392 738q122 0 202.5 -63.5t103.5 -179.5h-121q-18 67 -67 103t-121 36q-96 0 -155 -69.5t-59 -199.5t57.5 -202t155.5 -72q35 0 67 8.5t61.5 26.5t47.5 52t18 80v14h-185v107h303v-379h-100l-4 87q-67 -100 -222 -100q-153 0 -241.5 103t-88.5 275q0 170 93.5 271.5
t254.5 101.5z" />
    <glyph glyph-name="H" unicode="H" horiz-adv-x="746" 
d="M546 725h127v-725h-127v320h-346v-320h-127v725h127v-300h346v300z" />
    <glyph glyph-name="I" unicode="I" horiz-adv-x="273" 
d="M200 725v-725h-127v725h127z" />
    <glyph glyph-name="J" unicode="J" horiz-adv-x="581" 
d="M260 -13q-118 0 -183.5 69.5t-65.5 188.5h126q0 -75 31.5 -114.5t91.5 -39.5q58 0 89.5 39.5t31.5 114.5v480h127v-480q0 -119 -65 -188.5t-183 -69.5z" />
    <glyph glyph-name="K" unicode="K" horiz-adv-x="675" 
d="M200 725v-345l308 345h151l-269 -295l294 -430h-150l-228 338l-106 -116v-222h-127v725h127z" />
    <glyph glyph-name="L" unicode="L" horiz-adv-x="565" 
d="M200 725v-618h365v-107h-492v725h127z" />
    <glyph glyph-name="M" unicode="M" horiz-adv-x="891" 
d="M510 0h-129l-184 587v-587h-124v725h197l176 -578l175 578h197v-725h-124v587z" />
    <glyph glyph-name="N" unicode="N" horiz-adv-x="746" 
d="M673 0h-170l-307 579v-579h-123v725h170l307 -579v579h123v-725z" />
    <glyph glyph-name="O" unicode="O" horiz-adv-x="780" 
d="M175 363q0 -128 60.5 -200t154.5 -72t154.5 72t60.5 200t-60.5 199.5t-154.5 71.5t-154.5 -71.5t-60.5 -199.5zM736 363q0 -169 -94 -272.5t-252 -103.5t-252 103.5t-94 272.5t93.5 272t252.5 103t252.5 -103t93.5 -272z" />
    <glyph glyph-name="P" unicode="P" horiz-adv-x="631" 
d="M73 725h239q54 0 94 -4t82.5 -18t69.5 -38t44.5 -66.5t17.5 -101.5q0 -66 -23 -111.5t-67 -69t-95.5 -33t-120.5 -9.5h-114v-274h-127v725zM312 623h-112v-245h118q84 0 127 23.5t43 94.5q0 34 -10.5 58t-25.5 37.5t-40 20.5t-47 9t-53 2z" />
    <glyph glyph-name="Q" unicode="Q" horiz-adv-x="780" 
d="M736 363q0 -184 -109 -287l86 -102l-78 -65l-92 109q-66 -31 -153 -31q-158 0 -252 103.5t-94 272.5t93.5 272t252.5 103t252.5 -103t93.5 -272zM175 363q0 -128 60.5 -200t154.5 -72q46 0 79 16l-59 71l77 65l62 -74q56 75 56 194q0 128 -60.5 199.5t-154.5 71.5
t-154.5 -71.5t-60.5 -199.5z" />
    <glyph glyph-name="R" unicode="R" horiz-adv-x="679" 
d="M514 0l-153 306q-12 -1 -38 -1h-123v-305h-127v725h231q167 0 245 -46.5t78 -162.5q0 -141 -136 -187l166 -329h-143zM322 623h-122v-217h126q87 0 129 23.5t42 85.5q0 65 -44 86.5t-131 21.5z" />
    <glyph glyph-name="S" unicode="S" horiz-adv-x="648" 
d="M343 312l-88 17q-209 44 -209 205q0 95 82.5 149.5t191.5 54.5q113 0 188 -53.5t96 -162.5h-123q-27 112 -168 112q-51 0 -95 -24t-44 -72q0 -75 108 -96l89 -17q53 -10 93 -24t77.5 -38.5t57.5 -63.5t20 -91q0 -104 -86 -162.5t-202 -58.5q-130 0 -211.5 67t-93.5 186
h125q34 -149 186 -149q67 0 111 29t44 80q0 50 -41.5 75t-107.5 37z" />
    <glyph glyph-name="T" unicode="T" horiz-adv-x="593" 
d="M233 0v619h-228v106h583v-106h-228v-619h-127z" />
    <glyph glyph-name="U" unicode="U" horiz-adv-x="717" 
d="M62 725h127v-428q0 -106 36.5 -156t133.5 -50q95 0 132 52t37 158v424h127v-419q0 -171 -68.5 -245t-227.5 -74t-228 71t-69 244v423z" />
    <glyph glyph-name="V" unicode="V" horiz-adv-x="637" 
d="M1 725h138l184 -575l179 575h134l-248 -725h-136z" />
    <glyph glyph-name="W" unicode="W" horiz-adv-x="896" 
d="M522 725l124 -561l110 561h133l-169 -725h-150l-122 556l-120 -556h-152l-170 725h138l116 -560l115 560h147z" />
    <glyph glyph-name="X" unicode="X" horiz-adv-x="663" 
d="M-10 0l267 371l-250 354h152l174 -247l178 247h144l-250 -348l267 -377h-152l-192 271l-195 -271h-143z" />
    <glyph glyph-name="Y" unicode="Y" horiz-adv-x="643" 
d="M-5 725h145l180 -324l185 324h143l-267 -445v-280h-127v282z" />
    <glyph glyph-name="Z" unicode="Z" horiz-adv-x="626" 
d="M588 725v-103l-405 -512h417v-110h-572v103l406 512h-374v110h528z" />
    <glyph glyph-name="bracketleft" unicode="[" horiz-adv-x="329" 
d="M70 725h244v-91h-135v-718h135v-91h-244v900z" />
    <glyph glyph-name="backslash" unicode="\" horiz-adv-x="386" 
d="M109 725l282 -725h-114l-282 725h114z" />
    <glyph glyph-name="bracketright" unicode="]" horiz-adv-x="329" 
d="M15 725h244v-900h-244v91h136v718h-136v91z" />
    <glyph glyph-name="asciicircum" unicode="^" horiz-adv-x="510" 
d="M304 725l201 -387h-120l-131 259l-131 -259h-119l200 387h100z" />
    <glyph glyph-name="underscore" unicode="_" horiz-adv-x="478" 
d="M452 -108h-426v108h426v-108z" />
    <glyph glyph-name="grave" unicode="`" horiz-adv-x="279" 
d="M164 609l-142 116h141l94 -116h-93z" />
    <glyph glyph-name="a" unicode="a" horiz-adv-x="569" 
d="M400 212v41q-130 -12 -184.5 -34.5t-54.5 -67.5q0 -35 27 -55t72 -20q67 0 103.5 34t36.5 102zM234 -13q-88 0 -143.5 44t-55.5 117q0 33 12.5 59t38.5 45t56 32.5t74.5 23.5t85 16t95.5 12v10q0 120 -112 120q-47 0 -76.5 -25t-31.5 -72h-117q6 82 69 133.5t160 51.5
q105 0 167 -54.5t60 -176.5q0 -10 -1 -61t-1 -78q0 -119 16 -184h-109q-8 44 -10 73q-51 -86 -177 -86z" />
    <glyph glyph-name="b" unicode="b" horiz-adv-x="610" 
d="M181 269q0 -89 39 -137t100 -48t98.5 50t37.5 135q0 83 -38 133.5t-98 50.5q-61 0 -100 -47.5t-39 -136.5zM67 725h119v-259q51 84 160 84q99 0 166.5 -77.5t67.5 -203.5q0 -127 -67.5 -204.5t-166.5 -77.5q-109 0 -160 84v-71h-119v725z" />
    <glyph glyph-name="c" unicode="c" horiz-adv-x="564" 
d="M294 550q90 0 157.5 -54t83.5 -142h-116q-8 43 -42.5 70t-82.5 27q-61 0 -101 -46t-40 -136t40 -136.5t98 -46.5q49 0 85 23.5t47 74.5h116q-17 -91 -88.5 -144t-161.5 -53q-116 0 -187.5 79.5t-71.5 201.5t72.5 202t191.5 80z" />
    <glyph glyph-name="d" unicode="d" horiz-adv-x="610" 
d="M424 466v259h119v-725h-119v71q-51 -84 -160 -84q-99 0 -166.5 77.5t-67.5 204.5q0 126 67.5 203.5t166.5 77.5q109 0 160 -84zM429 269q0 89 -39 136.5t-100 47.5q-60 0 -98 -50.5t-38 -133.5q0 -85 37.5 -135t98.5 -50t100 48t39 137z" />
    <glyph glyph-name="e" unicode="e" horiz-adv-x="584" 
d="M553 235h-401q6 -71 48.5 -110t97.5 -39q101 0 132 75h117q-20 -72 -83.5 -123t-160.5 -51q-125 0 -198.5 82.5t-73.5 203.5t74.5 199t189.5 78q123 0 194.5 -89.5t63.5 -225.5zM295 457q-50 0 -92.5 -33t-50.5 -102h280q-2 61 -42 98t-95 37z" />
    <glyph glyph-name="f" unicode="f" horiz-adv-x="323" 
d="M83 538v33q0 91 38.5 122.5t139.5 31.5h47v-91h-34q-45 0 -58.5 -12.5t-13.5 -54.5v-29h106v-86h-106v-452h-119v452h-75v86h75z" />
    <glyph glyph-name="g" unicode="g" horiz-adv-x="609" 
d="M424 466v72h119v-484q0 -130 -65 -190q-62 -58 -191 -58q-94 0 -155 40t-75 125h118q8 -38 34.5 -54.5t80.5 -16.5q74 0 107 39q27 31 27 91v63q-51 -84 -160 -84q-99 0 -166.5 74t-67.5 197t67.5 196.5t166.5 73.5q109 0 160 -84zM429 280q0 86 -39 130.5t-100 44.5
t-98.5 -47.5t-37.5 -127.5q0 -82 37.5 -129.5t98.5 -47.5t100 45t39 132z" />
    <glyph glyph-name="h" unicode="h" horiz-adv-x="589" 
d="M186 725v-262q48 87 163 87q183 0 183 -212v-338h-119v309q0 32 -3.5 54t-13 44.5t-31 34t-54.5 11.5q-125 0 -125 -167v-286h-119v725h119z" />
    <glyph glyph-name="i" unicode="i" horiz-adv-x="253" 
d="M67 725h119v-120h-119v120zM67 538h119v-538h-119v538z" />
    <glyph glyph-name="j" unicode="j" horiz-adv-x="253" 
d="M67 725h119v-120h-119v120zM67 -13v551h119v-546q0 -101 -31.5 -134t-124.5 -33h-40v92h22q36 0 45.5 13t9.5 57z" />
    <glyph glyph-name="k" unicode="k" horiz-adv-x="535" 
d="M67 725h119v-403l199 216h143l-206 -221l229 -317h-139l-169 233l-57 -61v-172h-119v725z" />
    <glyph glyph-name="l" unicode="l" horiz-adv-x="253" 
d="M186 725v-725h-119v725h119z" />
    <glyph glyph-name="m" unicode="m" horiz-adv-x="907" 
d="M186 286v-286h-119v538h119v-75q48 87 156 87q117 0 157 -95q66 95 175 95q176 0 176 -212v-338h-119v309q0 33 -2.5 54.5t-11.5 44t-29 34t-52 11.5q-118 0 -118 -167v-286h-119v309q0 33 -2.5 54.5t-11.5 44t-29 34t-52 11.5q-118 0 -118 -167z" />
    <glyph glyph-name="n" unicode="n" horiz-adv-x="589" 
d="M186 538v-75q48 87 163 87q183 0 183 -212v-338h-119v309q0 32 -3.5 54t-13 44.5t-31 34t-54.5 11.5q-125 0 -125 -167v-286h-119v538h119z" />
    <glyph glyph-name="o" unicode="o" horiz-adv-x="592" 
d="M154 268q0 -89 40.5 -136.5t101.5 -47.5t101.5 47.5t40.5 136.5t-40.5 137t-101.5 48t-101.5 -48t-40.5 -137zM296 550q108 0 186.5 -73t78.5 -209q0 -137 -78.5 -209t-186.5 -72t-186.5 72t-78.5 209q0 136 78.5 209t186.5 73z" />
    <glyph glyph-name="p" unicode="p" horiz-adv-x="607" 
d="M181 269q0 -89 39 -137t100 -48q63 0 98 49t35 136q0 85 -35 134.5t-98 49.5q-61 0 -100 -47.5t-39 -136.5zM67 538h119v-72q51 84 160 84q101 0 166 -77t65 -204q0 -128 -65 -205t-166 -77q-109 0 -160 84v-246h-119v713z" />
    <glyph glyph-name="q" unicode="q" horiz-adv-x="607" 
d="M426 269q0 89 -39 136.5t-100 47.5q-63 0 -98 -49.5t-35 -134.5q0 -87 35 -136t98 -49q61 0 100 48t39 137zM421 466v72h119v-713h-119v246q-51 -84 -160 -84q-101 0 -166 77t-65 205q0 127 65 204t166 77q109 0 160 -84z" />
    <glyph glyph-name="r" unicode="r" horiz-adv-x="369" 
d="M361 537v-120q-30 3 -57 3q-60 0 -89 -30.5t-29 -107.5v-282h-119v538h117v-96q46 95 146 97q13 0 31 -2z" />
    <glyph glyph-name="s" unicode="s" horiz-adv-x="526" 
d="M486 391h-112q-18 68 -118 68q-41 0 -70.5 -16.5t-29.5 -42.5q0 -50 72 -64l76 -15q45 -9 76.5 -19.5t59.5 -28.5t42 -46t14 -66q0 -81 -66 -127.5t-162 -46.5q-97 0 -160 49.5t-73 127.5h116q17 -87 121 -87q48 0 78 19t30 51q0 55 -93 74l-81 16q-76 16 -119 52
t-43 105t64.5 112.5t154.5 43.5q83 0 145 -41t78 -118z" />
    <glyph glyph-name="t" unicode="t" horiz-adv-x="340" 
d="M84 538v142h119v-142h108v-86h-108v-293q0 -41 13 -54.5t51 -13.5h43v-91h-88q-85 0 -111.5 28.5t-26.5 112.5v311h-80v86h80z" />
    <glyph glyph-name="u" unicode="u" horiz-adv-x="585" 
d="M399 0v74q-48 -87 -159 -87q-180 0 -180 212v339h119v-310q0 -32 3 -54t12.5 -44.5t30.5 -34t53 -11.5q121 0 121 167v287h119v-538h-119z" />
    <glyph glyph-name="v" unicode="v" horiz-adv-x="502" 
d="M131 538l124 -384l123 384h124l-194 -538h-112l-196 538h131z" />
    <glyph glyph-name="w" unicode="w" horiz-adv-x="734" 
d="M213 156l92 382h123l93 -382l79 382h129l-143 -538h-113l-106 398l-106 -398h-113l-143 538h129z" />
    <glyph glyph-name="x" unicode="x" horiz-adv-x="535" 
d="M519 538l-184 -258l196 -280h-140l-127 181l-129 -181h-131l196 273l-185 265h140l115 -166l119 166h130z" />
    <glyph glyph-name="y" unicode="y" horiz-adv-x="496" 
d="M100 -175h-54v91h45q43 0 62 12.5t36 61.5l6 13l-195 535h130l122 -386l122 386h122l-189 -537q-39 -107 -78.5 -141.5t-128.5 -34.5z" />
    <glyph glyph-name="z" unicode="z" horiz-adv-x="494" 
d="M26 0v91l288 356h-268v91h416v-91l-289 -356h296v-91h-443z" />
    <glyph glyph-name="braceleft" unicode="{" horiz-adv-x="314" 
d="M299 -175h-41q-100 0 -139 34.5t-39 128.5v137q0 52 -15 77.5t-61 25.5v95q46 0 61 25.5t15 77.5v136q0 94 39 128.5t139 34.5h41v-97h-28q-44 0 -60 -15.5t-16 -55.5v-144q0 -65 -21.5 -95t-64.5 -41v-3q43 -11 64.5 -41t21.5 -95v-146q0 -40 16 -55.5t60 -15.5h28v-96z
" />
    <glyph glyph-name="bar" unicode="|" horiz-adv-x="248" 
d="M73 725h102v-815h-102v815z" />
    <glyph glyph-name="braceright" unicode="}" horiz-adv-x="314" 
d="M15 -175v96h28q44 0 60 15.5t16 55.5v146q0 65 21.5 95t63.5 41v3q-42 11 -63.5 41t-21.5 95v144q0 40 -16 55.5t-60 15.5h-28v97h40q100 0 139 -34.5t39 -128.5v-136q0 -52 15.5 -77.5t61.5 -25.5v-95q-46 0 -61.5 -25.5t-15.5 -77.5v-137q0 -94 -39 -128.5t-139 -34.5
h-40z" />
    <glyph glyph-name="asciitilde" unicode="~" horiz-adv-x="678" 
d="M439 289q57 0 61 69h93q-3 -80 -41.5 -126t-109.5 -46q-40 0 -106 34.5t-96 34.5q-58 0 -62 -69h-93q3 81 41.5 126.5t110.5 45.5q47 0 112.5 -34.5t89.5 -34.5z" />
    <glyph glyph-name="uni00A0" unicode="&#xa0;" horiz-adv-x="230" 
 />
    <glyph glyph-name="exclamdown" unicode="&#xa1;" horiz-adv-x="240" 
d="M180 13v-188h-120v188l21 312h78zM188 402h-136v136h136v-136z" />
    <glyph glyph-name="cent" unicode="&#xa2;" horiz-adv-x="557" 
d="M261 623h49v-74q85 -6 145.5 -58.5t74.5 -136.5h-116q-7 39 -34 65t-70 31v-363q91 12 108 97h116q-18 -86 -79.5 -138t-144.5 -58v-81h-49v81q-106 8 -168 86.5t-62 193.5q0 114 62 192t168 88v75zM154 269q0 -80 29 -125.5t78 -55.5v360q-50 -9 -78.5 -53.5
t-28.5 -125.5z" />
    <glyph glyph-name="sterling" unicode="&#xa3;" horiz-adv-x="580" 
d="M304 647q-52 0 -88.5 -25t-36.5 -71q0 -54 53 -154h176v-71h-146q12 -36 12 -61q0 -50 -26.5 -92.5t-67.5 -71.5l1 -2q29 14 65 14q26 0 74 -15.5t81 -15.5q48 0 126 29l35 -87q-26 -16 -70 -27.5t-84 -11.5q-35 0 -102.5 21.5t-104.5 21.5q-63 0 -139 -43l-42 88
q61 29 98 71t37 112q0 32 -15 70h-125v71h90q-50 96 -50 159q0 61 38 103.5t93 60.5t121 18q121 0 189 -67t66 -178h-119q0 154 -139 154z" />
    <glyph glyph-name="currency" unicode="&#xa4;" horiz-adv-x="636" 
d="M79 346q0 78 44 139l-69 70l49 49l68 -68q63 49 144 49q83 0 147 -51l71 70l49 -49l-72 -72q44 -64 44 -137q0 -76 -44 -137l72 -71l-49 -49l-71 70q-65 -49 -147 -49q-81 0 -143 48l-69 -69l-49 49l69 70q-44 61 -44 138zM179 346q0 -61 38 -102.5t97 -41.5
q62 0 102 41.5t40 102.5q0 63 -40 105.5t-102 42.5q-59 0 -97 -42.5t-38 -105.5z" />
    <glyph glyph-name="yen" unicode="&#xa5;" horiz-adv-x="645" 
d="M560 97h-181v-97h-121v97h-174v79h174v78h-174v78h139l-225 393h140l184 -345l186 345h139l-231 -393h144v-78h-181v-78h181v-79z" />
    <glyph glyph-name="brokenbar" unicode="&#xa6;" horiz-adv-x="236" 
d="M67 725h102v-305h-102v305zM67 215h102v-305h-102v305z" />
    <glyph glyph-name="section" unicode="&#xa7;" horiz-adv-x="599" 
d="M298 -102q43 0 69.5 19.5t26.5 53.5q0 31 -20 53.5t-73 49.5l-127 66q-140 71 -140 176q0 46 31 83t81 59q-63 54 -63 128q0 71 62.5 111.5t146.5 40.5q93 0 153 -47.5t71 -129.5h-114q-17 87 -113 87q-42 0 -66 -15t-24 -40q0 -26 18 -45t60 -40l137 -71
q76 -40 114 -79.5t38 -93.5q0 -50 -31.5 -89.5t-86.5 -63.5q63 -53 63 -127q0 -81 -62 -129t-155 -48q-98 0 -160.5 56t-68.5 149h113q17 -114 120 -114zM351 345l-122 63q-82 -28 -82 -81q0 -28 18.5 -47.5t58.5 -41.5l135 -70l11 -6q78 34 78 83q0 29 -23 51.5t-74 48.5z
" />
    <glyph glyph-name="dieresis" unicode="&#xa8;" horiz-adv-x="385" 
d="M22 614v111h105v-111h-105zM258 725h105v-111h-105v111z" />
    <glyph glyph-name="copyright" unicode="&#xa9;" horiz-adv-x="825" 
d="M38 361q0 165 108.5 271t266.5 106t266 -106t108 -271q0 -164 -108 -269t-266 -105q-159 0 -267 105t-108 269zM118 361q0 -133 84.5 -217.5t210.5 -84.5q127 0 211 84.5t84 217.5q0 134 -84 219t-211 85q-126 0 -210.5 -85t-84.5 -219zM413 237q80 0 98 76l92 -23
q-16 -58 -67.5 -94.5t-124.5 -36.5q-92 0 -144 56.5t-52 150.5q0 93 54.5 149t144.5 56q72 0 122 -38.5t64 -99.5l-92 -25q-7 39 -32 61.5t-63 22.5q-44 0 -71 -32.5t-27 -93.5t27 -95t71 -34z" />
    <glyph glyph-name="ordfeminine" unicode="&#xaa;" horiz-adv-x="351" 
d="M132 431q-46 0 -76 23.5t-30 64.5q0 52 51 75.5t150 32.5v9q0 54 -54 54q-53 0 -57 -46h-81q4 46 43 76t101 30q66 0 100 -30t34 -100l-1 -32v-38q0 -84 6 -112h-84q0 4 -0.5 18t-0.5 19q-32 -44 -101 -44zM229 566v8q-59 -6 -86 -16t-27 -33q0 -16 12.5 -25t32.5 -9
q68 0 68 75z" />
    <glyph glyph-name="guillemotleft" unicode="&#xab;" horiz-adv-x="543" 
d="M175 43l-159 230l159 229h114l-134 -229l134 -230h-114zM397 43l-159 230l159 229h114l-134 -229l134 -230h-114z" />
    <glyph glyph-name="logicalnot" unicode="&#xac;" horiz-adv-x="678" 
d="M499 322h-431v107h542v-334h-111v227z" />
    <glyph glyph-name="uni00AD" unicode="&#xad;" horiz-adv-x="422" 
d="M374 216h-326v107h326v-107z" />
    <glyph glyph-name="registered" unicode="&#xae;" horiz-adv-x="825" 
d="M38 361q0 165 108.5 271t266.5 106t266 -106t108 -271q0 -164 -108 -269t-266 -105q-159 0 -267 105t-108 269zM118 361q0 -133 84.5 -217.5t210.5 -84.5q127 0 211 84.5t84 217.5q0 134 -84 219t-211 85q-126 0 -210.5 -85t-84.5 -219zM497 175l-83 147h-11h-54v-147
h-97v400h145q90 0 137.5 -28t47.5 -100q0 -78 -72 -108l96 -164h-109zM485 446q0 24 -17 38t-49 14h-70v-101h71q65 0 65 49z" />
    <glyph glyph-name="macron" unicode="&#xaf;" horiz-adv-x="352" 
d="M330 628h-308v88h308v-88z" />
    <glyph glyph-name="degree" unicode="&#xb0;" horiz-adv-x="337" 
d="M13 582q0 64 46 110t109 46q64 0 110 -46t46 -110q0 -63 -46 -109t-110 -46q-63 0 -109 46t-46 109zM95 582q0 -33 20.5 -55.5t52.5 -22.5q33 0 54 22.5t21 55.5q0 34 -21 57t-54 23q-32 0 -52.5 -23t-20.5 -57z" />
    <glyph glyph-name="plusminus" unicode="&#xb1;" horiz-adv-x="678" 
d="M283 393v136h113v-136h214v-108h-214v-139h-113v139h-215v108h215zM610 0h-542v107h542v-107z" />
    <glyph glyph-name="twosuperior" unicode="&#xb2;" horiz-adv-x="355" 
d="M181 853q64 0 103.5 -30t39.5 -83q0 -60 -49.5 -115t-147.5 -115h201v-72h-308v71q127 98 155 125q61 58 61 101q0 26 -16 40t-42 14q-67 0 -67 -84h-85q-2 68 41 108t114 40z" />
    <glyph glyph-name="threesuperior" unicode="&#xb3;" horiz-adv-x="372" 
d="M186 495q32 0 51 15.5t19 44.5q0 58 -94 58h-23v70h20q89 0 89 56q0 23 -18 36t-44 13q-65 0 -75 -62h-84q6 62 51 94.5t113 32.5q60 0 102.5 -27.5t42.5 -80.5q0 -29 -16.5 -53.5t-39.5 -37.5q30 -12 47 -40t17 -58q0 -60 -46 -92.5t-114 -32.5q-67 0 -111 35.5
t-51 99.5h85q5 -34 26 -52.5t53 -18.5z" />
    <glyph glyph-name="acute" unicode="&#xb4;" horiz-adv-x="277" 
d="M255 725l-142 -116h-91l93 116h140z" />
    <glyph glyph-name="mu" unicode="&#xb5;" horiz-adv-x="582" 
d="M164 -175h-110q12 63 12 166v547h111v-294q0 -161 110 -161q60 0 89.5 45.5t29.5 122.5v287h111v-538h-111v65q-44 -74 -117 -74t-112 63v-56q0 -97 -13 -173z" />
    <glyph glyph-name="mu" unicode="&#x3bc;" horiz-adv-x="582" 
d="M164 -175h-110q12 63 12 166v547h111v-294q0 -161 110 -161q60 0 89.5 45.5t29.5 122.5v287h111v-538h-111v65q-44 -74 -117 -74t-112 63v-56q0 -97 -13 -173z" />
    <glyph glyph-name="mu" unicode="&#x3bc;" horiz-adv-x="582" 
d="M164 -175h-110q12 63 12 166v547h111v-294q0 -161 110 -161q60 0 89.5 45.5t29.5 122.5v287h111v-538h-111v65q-44 -74 -117 -74t-112 63v-56q0 -97 -13 -173z" />
    <glyph glyph-name="paragraph" unicode="&#xb6;" horiz-adv-x="510" 
d="M0 548q0 84 61.5 130.5t171.5 46.5h211v-814h-79v740h-115v-740h-80v463q-70 7 -120 49.5t-50 124.5z" />
    <glyph glyph-name="periodcentered" unicode="&#xb7;" horiz-adv-x="240" 
d="M188 201h-136v136h136v-136z" />
    <glyph glyph-name="cedilla" unicode="&#xb8;" horiz-adv-x="252" 
d="M22 -176l17 43q26 -14 58 -14q57 0 57 30q0 29 -41 29q-24 0 -38 -9l-30 17l51 83h53l-32 -51q18 3 35 3q34 -1 56 -19.5t22 -48.5q0 -37 -34 -59.5t-79 -22.5q-56 0 -95 19z" />
    <glyph glyph-name="onesuperior" unicode="&#xb9;" horiz-adv-x="241" 
d="M188 438h-86v286h-91v62q49 2 73 15t38 45h66v-408z" />
    <glyph glyph-name="ordmasculine" unicode="&#xba;" horiz-adv-x="363" 
d="M114 590q0 -92 68 -92q32 0 50.5 23t18.5 69t-18.5 68.5t-50.5 22.5q-31 0 -49.5 -22.5t-18.5 -68.5zM26 590q0 77 45.5 118t110.5 41q66 0 111.5 -41t45.5 -118t-45.5 -118t-111.5 -41t-111 41t-45 118z" />
    <glyph glyph-name="guillemotright" unicode="&#xbb;" horiz-adv-x="543" 
d="M527 273l-159 -230h-114l135 230l-135 229h114zM305 273l-159 -230h-114l135 230l-135 229h114z" />
    <glyph glyph-name="onequarter" unicode="&#xbc;" horiz-adv-x="848" 
d="M188 317h-86v286h-91v62q49 2 73 15t38 45h66v-408zM166 0h-126l500 725h126zM682 296l-104 -130h104v130zM831 166v-75h-62v-91h-87v91h-199v68l204 249h82v-242h62z" />
    <glyph glyph-name="onehalf" unicode="&#xbd;" horiz-adv-x="822" 
d="M188 317h-86v286h-91v62q49 2 73 15t38 45h66v-408zM166 0h-126l500 725h126zM647 415q64 0 103.5 -30t39.5 -83q0 -60 -49.5 -115t-147.5 -115h201v-72h-308v71q127 98 155 125q61 58 61 101q0 26 -16 40t-42 14q-67 0 -67 -84h-85q-2 68 41 108t114 40z" />
    <glyph glyph-name="threequarters" unicode="&#xbe;" horiz-adv-x="979" 
d="M186 374q32 0 51 15.5t19 44.5q0 58 -94 58h-23v70h20q89 0 89 56q0 23 -18 36t-44 13q-65 0 -75 -62h-84q6 62 51 94.5t113 32.5q60 0 102.5 -27.5t42.5 -80.5q0 -29 -16.5 -53.5t-39.5 -37.5q30 -12 47 -40t17 -58q0 -60 -46 -92.5t-114 -32.5q-67 0 -111 35.5
t-51 99.5h85q5 -34 26 -52.5t53 -18.5zM298 0h-126l500 725h126zM814 296l-104 -130h104v130zM963 166v-75h-62v-91h-87v91h-199v68l204 249h82v-242h62z" />
    <glyph glyph-name="questiondown" unicode="&#xbf;" horiz-adv-x="514" 
d="M247 -189q-97 0 -166.5 45.5t-69.5 132.5q0 63 34 105.5t91 78.5q34 21 50 33.5t28.5 36t12.5 54.5v31h119v-34q0 -46 -16.5 -80.5t-37 -53t-59.5 -44.5q-35 -22 -52.5 -35t-32.5 -36t-15 -50q0 -41 33.5 -65t84.5 -24q64 0 99.5 37t37.5 99h118q0 -103 -73.5 -167
t-185.5 -64zM354 402h-136v136h136v-136z" />
    <glyph glyph-name="Agrave" unicode="&#xc0;" horiz-adv-x="676" 
d="M0 0l270 725h134l272 -725h-139l-57 161h-294l-56 -161h-130zM332 578l-109 -311h219zM296 773l-165 113h153l106 -113h-94z" />
    <glyph glyph-name="Aacute" unicode="&#xc1;" horiz-adv-x="676" 
d="M0 0l270 725h134l272 -725h-139l-57 161h-294l-56 -161h-130zM332 578l-109 -311h219zM545 886l-155 -113h-104l105 113h154z" />
    <glyph glyph-name="Acircumflex" unicode="&#xc2;" horiz-adv-x="676" 
d="M0 0l270 725h134l272 -725h-139l-57 161h-294l-56 -161h-130zM332 578l-109 -311h219zM392 886l135 -113h-122l-67 51l-68 -51h-121l138 113h105z" />
    <glyph glyph-name="Atilde" unicode="&#xc3;" horiz-adv-x="676" 
d="M0 0l270 725h134l272 -725h-139l-57 161h-294l-56 -161h-130zM332 578l-109 -311h219zM399 847q41 0 50 39h83q-18 -113 -128 -113q-33 0 -71.5 19.5t-56.5 19.5q-41 0 -47 -39h-85q19 113 128 113q34 0 71 -19.5t56 -19.5z" />
    <glyph glyph-name="Adieresis" unicode="&#xc4;" horiz-adv-x="676" 
d="M0 0l270 725h134l272 -725h-139l-57 161h-294l-56 -161h-130zM332 578l-109 -311h219zM168 884h105v-108h-105v108zM404 884h105v-108h-105v108z" />
    <glyph glyph-name="Aring" unicode="&#xc5;" horiz-adv-x="676" 
d="M0 0l270 725h134l272 -725h-139l-57 161h-294l-56 -161h-130zM332 578l-109 -311h219zM338 935q39 0 65 -23.5t26 -61.5q0 -37 -26 -61t-65 -24q-38 0 -64 24t-26 61t26 61t64 24zM338 893q-18 0 -30.5 -12.5t-12.5 -30.5t12.5 -30t30.5 -12t30.5 12t12.5 30t-12.5 30.5
t-30.5 12.5z" />
    <glyph glyph-name="AE" unicode="&#xc6;" horiz-adv-x="1014" 
d="M987 0h-514v151h-262l-101 -151h-136l499 725h514v-106h-387v-194h365v-105h-365v-213h387v-107zM473 542l-192 -286h192v286z" />
    <glyph glyph-name="Ccedilla" unicode="&#xc7;" horiz-adv-x="726" 
d="M570 241h122q-23 -122 -105 -188t-208 -66q-157 0 -246 102.5t-89 275.5q0 172 91.5 272.5t249.5 100.5q122 0 202.5 -66.5t102.5 -187.5h-122q-17 73 -66 111.5t-121 38.5q-90 0 -148 -71t-58 -198q0 -128 57.5 -201t147.5 -73q75 0 124 38t66 112zM264 -176l17 43
q26 -14 58 -14q57 0 57 30q0 29 -41 29q-24 0 -38 -9l-30 17l51 83h53l-32 -51q18 3 35 3q34 -1 56 -19.5t22 -48.5q0 -37 -34 -59.5t-79 -22.5q-56 0 -95 19z" />
    <glyph glyph-name="Egrave" unicode="&#xc8;" horiz-adv-x="615" 
d="M73 0v725h513v-106h-386v-194h365v-105h-365v-213h386v-107h-513zM317 773l-165 113h153l106 -113h-94z" />
    <glyph glyph-name="Eacute" unicode="&#xc9;" horiz-adv-x="615" 
d="M73 0v725h513v-106h-386v-194h365v-105h-365v-213h386v-107h-513zM526 886l-155 -113h-104l105 113h154z" />
    <glyph glyph-name="Ecircumflex" unicode="&#xca;" horiz-adv-x="615" 
d="M73 0v725h513v-106h-386v-194h365v-105h-365v-213h386v-107h-513zM393 886l135 -113h-122l-67 51l-68 -51h-121l138 113h105z" />
    <glyph glyph-name="Edieresis" unicode="&#xcb;" horiz-adv-x="615" 
d="M73 0v725h513v-106h-386v-194h365v-105h-365v-213h386v-107h-513zM169 884h105v-108h-105v108zM405 884h105v-108h-105v108z" />
    <glyph glyph-name="Igrave" unicode="&#xcc;" horiz-adv-x="273" 
d="M200 725v-725h-127v725h127zM95 773l-165 113h153l106 -113h-94z" />
    <glyph glyph-name="Iacute" unicode="&#xcd;" horiz-adv-x="273" 
d="M200 725v-725h-127v725h127zM343 886l-155 -113h-104l105 113h154z" />
    <glyph glyph-name="Icircumflex" unicode="&#xce;" horiz-adv-x="273" 
d="M200 725v-725h-127v725h127zM190 886l135 -113h-122l-67 51l-68 -51h-121l138 113h105z" />
    <glyph glyph-name="Idieresis" unicode="&#xcf;" horiz-adv-x="273" 
d="M200 725v-725h-127v725h127zM-34 884h105v-108h-105v108zM202 884h105v-108h-105v108z" />
    <glyph glyph-name="Eth" unicode="&#xd0;" horiz-adv-x="739" 
d="M93 725h198q72 0 130.5 -10.5t110.5 -36t87.5 -66t56 -103.5t20.5 -146q0 -103 -30.5 -175.5t-87 -112.5t-126.5 -57.5t-161 -17.5h-198v314h-84v106h84v305zM564 363q0 82 -23 136.5t-66 80t-86.5 34.5t-103.5 9h-65v-203h133v-106h-133v-212h65q60 0 103.5 9t86.5 35
t66 80.5t23 136.5z" />
    <glyph glyph-name="Ntilde" unicode="&#xd1;" horiz-adv-x="746" 
d="M673 0h-170l-307 579v-579h-123v725h170l307 -579v579h123v-725zM454 847q41 0 50 39h83q-18 -113 -128 -113q-33 0 -71.5 19.5t-56.5 19.5q-41 0 -47 -39h-85q19 113 128 113q33 0 71 -19.5t56 -19.5z" />
    <glyph glyph-name="Ograve" unicode="&#xd2;" horiz-adv-x="780" 
d="M175 363q0 -128 60.5 -200t154.5 -72t154.5 72t60.5 200t-60.5 199.5t-154.5 71.5t-154.5 -71.5t-60.5 -199.5zM736 363q0 -169 -94 -272.5t-252 -103.5t-252 103.5t-94 272.5t93.5 272t252.5 103t252.5 -103t93.5 -272zM348 773l-165 113h153l106 -113h-94z" />
    <glyph glyph-name="Oacute" unicode="&#xd3;" horiz-adv-x="780" 
d="M175 363q0 -128 60.5 -200t154.5 -72t154.5 72t60.5 200t-60.5 199.5t-154.5 71.5t-154.5 -71.5t-60.5 -199.5zM736 363q0 -169 -94 -272.5t-252 -103.5t-252 103.5t-94 272.5t93.5 272t252.5 103t252.5 -103t93.5 -272zM597 886l-155 -113h-104l105 113h154z" />
    <glyph glyph-name="Ocircumflex" unicode="&#xd4;" horiz-adv-x="780" 
d="M175 363q0 -128 60.5 -200t154.5 -72t154.5 72t60.5 200t-60.5 199.5t-154.5 71.5t-154.5 -71.5t-60.5 -199.5zM736 363q0 -169 -94 -272.5t-252 -103.5t-252 103.5t-94 272.5t93.5 272t252.5 103t252.5 -103t93.5 -272zM444 886l135 -113h-122l-67 51l-68 -51h-121
l138 113h105z" />
    <glyph glyph-name="Otilde" unicode="&#xd5;" horiz-adv-x="780" 
d="M175 363q0 -128 60.5 -200t154.5 -72t154.5 72t60.5 200t-60.5 199.5t-154.5 71.5t-154.5 -71.5t-60.5 -199.5zM736 363q0 -169 -94 -272.5t-252 -103.5t-252 103.5t-94 272.5t93.5 272t252.5 103t252.5 -103t93.5 -272zM451 847q41 0 50 39h83q-18 -113 -128 -113
q-33 0 -71.5 19.5t-56.5 19.5q-41 0 -47 -39h-85q19 113 128 113q34 0 71 -19.5t56 -19.5z" />
    <glyph glyph-name="Odieresis" unicode="&#xd6;" horiz-adv-x="780" 
d="M175 363q0 -128 60.5 -200t154.5 -72t154.5 72t60.5 200t-60.5 199.5t-154.5 71.5t-154.5 -71.5t-60.5 -199.5zM736 363q0 -169 -94 -272.5t-252 -103.5t-252 103.5t-94 272.5t93.5 272t252.5 103t252.5 -103t93.5 -272zM220 884h105v-108h-105v108zM456 884h105v-108
h-105v108z" />
    <glyph glyph-name="multiply" unicode="&#xd7;" horiz-adv-x="678" 
d="M575 104l-74 -74l-166 166l-162 -163l-70 69l162 164l-161 161l74 74l162 -161l163 162l69 -69l-162 -163z" />
    <glyph glyph-name="Oslash" unicode="&#xd8;" horiz-adv-x="780" 
d="M736 363q0 -169 -94 -272.5t-252 -103.5q-130 0 -217 70l-64 -75l-49 43l67 78q-83 101 -83 260q0 169 93.5 272t252.5 103q129 0 217 -71l57 66l49 -42l-60 -70q83 -102 83 -258zM175 363q0 -97 35 -162l321 376q-59 57 -141 57q-94 0 -154.5 -71.5t-60.5 -199.5z
M605 363q0 95 -35 160l-320 -376q56 -56 140 -56q94 0 154.5 72t60.5 200z" />
    <glyph glyph-name="Ugrave" unicode="&#xd9;" horiz-adv-x="717" 
d="M62 725h127v-428q0 -106 36.5 -156t133.5 -50q95 0 132 52t37 158v424h127v-419q0 -171 -68.5 -245t-227.5 -74t-228 71t-69 244v423zM346 773l-165 113h153l106 -113h-94z" />
    <glyph glyph-name="Uacute" unicode="&#xda;" horiz-adv-x="717" 
d="M62 725h127v-428q0 -106 36.5 -156t133.5 -50q95 0 132 52t37 158v424h127v-419q0 -171 -68.5 -245t-227.5 -74t-228 71t-69 244v423zM545 886l-155 -113h-104l105 113h154z" />
    <glyph glyph-name="Ucircumflex" unicode="&#xdb;" horiz-adv-x="717" 
d="M62 725h127v-428q0 -106 36.5 -156t133.5 -50q95 0 132 52t37 158v424h127v-419q0 -171 -68.5 -245t-227.5 -74t-228 71t-69 244v423zM412 886l135 -113h-122l-67 51l-68 -51h-121l138 113h105z" />
    <glyph glyph-name="Udieresis" unicode="&#xdc;" horiz-adv-x="717" 
d="M62 725h127v-428q0 -106 36.5 -156t133.5 -50q95 0 132 52t37 158v424h127v-419q0 -171 -68.5 -245t-227.5 -74t-228 71t-69 244v423zM188 884h105v-108h-105v108zM424 884h105v-108h-105v108z" />
    <glyph glyph-name="Yacute" unicode="&#xdd;" horiz-adv-x="643" 
d="M-5 725h145l180 -324l185 324h143l-267 -445v-280h-127v282zM527 886l-155 -113h-104l105 113h154z" />
    <glyph glyph-name="Thorn" unicode="&#xde;" horiz-adv-x="619" 
d="M202 605h99q53 0 93.5 -4.5t83 -19t69.5 -39.5t44.5 -68.5t17.5 -102.5q0 -66 -23 -112.5t-66.5 -70.5t-95.5 -34.5t-121 -10.5h-101v-143h-129v725h129v-120zM301 499h-99v-250h106q83 0 126.5 24.5t43.5 96.5q0 34 -10.5 59t-25.5 38t-40.5 20.5t-47.5 9.5t-53 2z" />
    <glyph glyph-name="germandbls" unicode="&#xdf;" horiz-adv-x="645" 
d="M186 0h-119v479q0 129 58 192q64 67 206 67q105 0 170.5 -46t65.5 -134q0 -106 -90 -148q59 -18 96 -67t37 -128q0 -112 -73.5 -170t-190.5 -58q-62 0 -114 12l19 101q45 -15 94 -15q61 0 102 33.5t41 95.5q0 136 -188 136h-12v100h9q151 0 151 101q0 45 -31.5 70.5
t-88.5 25.5q-78 0 -114 -43q-28 -38 -28 -124v-480z" />
    <glyph glyph-name="agrave" unicode="&#xe0;" horiz-adv-x="569" 
d="M400 212v41q-130 -12 -184.5 -34.5t-54.5 -67.5q0 -35 27 -55t72 -20q67 0 103.5 34t36.5 102zM234 -13q-88 0 -143.5 44t-55.5 117q0 33 12.5 59t38.5 45t56 32.5t74.5 23.5t85 16t95.5 12v10q0 120 -112 120q-47 0 -76.5 -25t-31.5 -72h-117q6 82 69 133.5t160 51.5
q105 0 167 -54.5t60 -176.5q0 -10 -1 -61t-1 -78q0 -119 16 -184h-109q-8 44 -10 73q-51 -86 -177 -86zM254 609l-142 116h141l94 -116h-93z" />
    <glyph glyph-name="aacute" unicode="&#xe1;" horiz-adv-x="569" 
d="M400 212v41q-130 -12 -184.5 -34.5t-54.5 -67.5q0 -35 27 -55t72 -20q67 0 103.5 34t36.5 102zM234 -13q-88 0 -143.5 44t-55.5 117q0 33 12.5 59t38.5 45t56 32.5t74.5 23.5t85 16t95.5 12v10q0 120 -112 120q-47 0 -76.5 -25t-31.5 -72h-117q6 82 69 133.5t160 51.5
q105 0 167 -54.5t60 -176.5q0 -10 -1 -61t-1 -78q0 -119 16 -184h-109q-8 44 -10 73q-51 -86 -177 -86zM467 725l-142 -116h-91l93 116h140z" />
    <glyph glyph-name="acircumflex" unicode="&#xe2;" horiz-adv-x="569" 
d="M400 212v41q-130 -12 -184.5 -34.5t-54.5 -67.5q0 -35 27 -55t72 -20q67 0 103.5 34t36.5 102zM234 -13q-88 0 -143.5 44t-55.5 117q0 33 12.5 59t38.5 45t56 32.5t74.5 23.5t85 16t95.5 12v10q0 120 -112 120q-47 0 -76.5 -25t-31.5 -72h-117q6 82 69 133.5t160 51.5
q105 0 167 -54.5t60 -176.5q0 -10 -1 -61t-1 -78q0 -119 16 -184h-109q-8 44 -10 73q-51 -86 -177 -86zM340 725l140 -116h-110l-79 48l-80 -48h-109l143 116h95z" />
    <glyph glyph-name="atilde" unicode="&#xe3;" horiz-adv-x="569" 
d="M400 212v41q-130 -12 -184.5 -34.5t-54.5 -67.5q0 -35 27 -55t72 -20q67 0 103.5 34t36.5 102zM234 -13q-88 0 -143.5 44t-55.5 117q0 33 12.5 59t38.5 45t56 32.5t74.5 23.5t85 16t95.5 12v10q0 120 -112 120q-47 0 -76.5 -25t-31.5 -72h-117q6 82 69 133.5t160 51.5
q105 0 167 -54.5t60 -176.5q0 -10 -1 -61t-1 -78q0 -119 16 -184h-109q-8 44 -10 73q-51 -86 -177 -86zM356 691q41 0 50 44h85q-11 -70 -48.5 -98.5t-80.5 -28.5q-35 0 -73.5 22.5t-56.5 22.5q-40 0 -48 -44h-85q11 68 48.5 97.5t80.5 29.5q35 0 71.5 -22.5t56.5 -22.5z
" />
    <glyph glyph-name="adieresis" unicode="&#xe4;" horiz-adv-x="569" 
d="M400 212v41q-130 -12 -184.5 -34.5t-54.5 -67.5q0 -35 27 -55t72 -20q67 0 103.5 34t36.5 102zM234 -13q-88 0 -143.5 44t-55.5 117q0 33 12.5 59t38.5 45t56 32.5t74.5 23.5t85 16t95.5 12v10q0 120 -112 120q-47 0 -76.5 -25t-31.5 -72h-117q6 82 69 133.5t160 51.5
q105 0 167 -54.5t60 -176.5q0 -10 -1 -61t-1 -78q0 -119 16 -184h-109q-8 44 -10 73q-51 -86 -177 -86zM120 614v111h105v-111h-105zM356 725h105v-111h-105v111z" />
    <glyph glyph-name="aring" unicode="&#xe5;" horiz-adv-x="569" 
d="M400 212v41q-130 -12 -184.5 -34.5t-54.5 -67.5q0 -35 27 -55t72 -20q67 0 103.5 34t36.5 102zM234 -13q-88 0 -143.5 44t-55.5 117q0 33 12.5 59t38.5 45t56 32.5t74.5 23.5t85 16t95.5 12v10q0 120 -112 120q-47 0 -76.5 -25t-31.5 -72h-117q6 82 69 133.5t160 51.5
q105 0 167 -54.5t60 -176.5q0 -10 -1 -61t-1 -78q0 -119 16 -184h-109q-8 44 -10 73q-51 -86 -177 -86zM291 779q39 0 66 -24.5t27 -62.5t-27 -62.5t-66 -24.5t-66 24.5t-27 62.5t27 62.5t66 24.5zM291 734q-17 0 -29 -12t-12 -30t12 -29.5t29 -11.5q18 0 30 11.5t12 29.5
t-12.5 30t-29.5 12z" />
    <glyph glyph-name="ae" unicode="&#xe6;" horiz-adv-x="943" 
d="M654 457q-51 0 -93.5 -32.5t-49.5 -102.5h280q-2 61 -42 98t-95 37zM400 212v41q-130 -12 -184.5 -34.5t-54.5 -67.5q0 -35 27 -55t72 -20q67 0 103.5 34t36.5 102zM789 161h117q-20 -72 -83.5 -123t-160.5 -51q-141 0 -212 107q-63 -107 -216 -107q-88 0 -143.5 44
t-55.5 117q0 33 12.5 59t38.5 45t56 32.5t74.5 23.5t85 16t95.5 12v10q0 120 -112 120q-47 0 -76.5 -25t-31.5 -72h-117q6 82 69 133.5t160 51.5q131 0 182 -81q71 77 183 77q123 0 194.5 -89.5t63.5 -225.5h-401q6 -70 49 -109.5t97 -39.5q101 0 132 75z" />
    <glyph glyph-name="ccedilla" unicode="&#xe7;" horiz-adv-x="564" 
d="M294 550q90 0 157.5 -54t83.5 -142h-116q-8 43 -42.5 70t-82.5 27q-61 0 -101 -46t-40 -136t40 -136.5t98 -46.5q49 0 85 23.5t47 74.5h116q-17 -91 -88.5 -144t-161.5 -53q-116 0 -187.5 79.5t-71.5 201.5t72.5 202t191.5 80zM173 -176l17 43q26 -14 58 -14q57 0 57 30
q0 29 -41 29q-24 0 -38 -9l-30 17l51 83h53l-32 -51q18 3 35 3q34 -1 56 -19.5t22 -48.5q0 -37 -34 -59.5t-79 -22.5q-56 0 -95 19z" />
    <glyph glyph-name="egrave" unicode="&#xe8;" horiz-adv-x="584" 
d="M553 235h-401q6 -71 48.5 -110t97.5 -39q101 0 132 75h117q-20 -72 -83.5 -123t-160.5 -51q-125 0 -198.5 82.5t-73.5 203.5t74.5 199t189.5 78q123 0 194.5 -89.5t63.5 -225.5zM295 457q-50 0 -92.5 -33t-50.5 -102h280q-2 61 -42 98t-95 37zM243 609l-142 116h141
l94 -116h-93z" />
    <glyph glyph-name="eacute" unicode="&#xe9;" horiz-adv-x="584" 
d="M553 235h-401q6 -71 48.5 -110t97.5 -39q101 0 132 75h117q-20 -72 -83.5 -123t-160.5 -51q-125 0 -198.5 82.5t-73.5 203.5t74.5 199t189.5 78q123 0 194.5 -89.5t63.5 -225.5zM295 457q-50 0 -92.5 -33t-50.5 -102h280q-2 61 -42 98t-95 37zM466 725l-142 -116h-91
l93 116h140z" />
    <glyph glyph-name="ecircumflex" unicode="&#xea;" horiz-adv-x="584" 
d="M553 235h-401q6 -71 48.5 -110t97.5 -39q101 0 132 75h117q-20 -72 -83.5 -123t-160.5 -51q-125 0 -198.5 82.5t-73.5 203.5t74.5 199t189.5 78q123 0 194.5 -89.5t63.5 -225.5zM295 457q-50 0 -92.5 -33t-50.5 -102h280q-2 61 -42 98t-95 37zM345 725l140 -116h-110
l-79 48l-80 -48h-109l143 116h95z" />
    <glyph glyph-name="edieresis" unicode="&#xeb;" horiz-adv-x="584" 
d="M553 235h-401q6 -71 48.5 -110t97.5 -39q101 0 132 75h117q-20 -72 -83.5 -123t-160.5 -51q-125 0 -198.5 82.5t-73.5 203.5t74.5 199t189.5 78q123 0 194.5 -89.5t63.5 -225.5zM295 457q-50 0 -92.5 -33t-50.5 -102h280q-2 61 -42 98t-95 37zM119 614v111h105v-111h-105
zM355 725h105v-111h-105v111z" />
    <glyph glyph-name="igrave" unicode="&#xec;" horiz-adv-x="253" 
d="M67 538h119v-538h-119v538zM81 609l-142 116h141l94 -116h-93z" />
    <glyph glyph-name="iacute" unicode="&#xed;" horiz-adv-x="253" 
d="M67 538h119v-538h-119v538zM313 725l-142 -116h-91l93 116h140z" />
    <glyph glyph-name="icircumflex" unicode="&#xee;" horiz-adv-x="253" 
d="M67 538h119v-538h-119v538zM175 725l140 -116h-110l-79 48l-80 -48h-109l143 116h95z" />
    <glyph glyph-name="idieresis" unicode="&#xef;" horiz-adv-x="253" 
d="M67 538h119v-538h-119v538zM-44 614v111h105v-111h-105zM192 725h105v-111h-105v111z" />
    <glyph glyph-name="eth" unicode="&#xf0;" horiz-adv-x="578" 
d="M323 701l62 39l54 -27l-71 -44q173 -135 173 -358q0 -159 -71 -241.5t-188 -82.5q-113 0 -183 75t-70 204q0 131 65.5 207.5t166.5 76.5q50 0 92 -23t66 -63l1 1q-36 85 -135 154l-72 -44l-53 25l77 48q-18 10 -81 38l85 60q40 -19 82 -45zM425 269q0 89 -39 136.5
t-100 47.5q-63 0 -98 -49.5t-35 -134.5q0 -87 35 -136t98 -49q61 0 100 48t39 137z" />
    <glyph glyph-name="ntilde" unicode="&#xf1;" horiz-adv-x="589" 
d="M186 538v-75q48 87 163 87q183 0 183 -212v-338h-119v309q0 32 -3.5 54t-13 44.5t-31 34t-54.5 11.5q-125 0 -125 -167v-286h-119v538h119zM372 691q41 0 50 44h85q-11 -70 -48.5 -98.5t-80.5 -28.5q-35 0 -73.5 22.5t-56.5 22.5q-40 0 -48 -44h-85q11 68 48.5 97.5
t80.5 29.5q35 0 71.5 -22.5t56.5 -22.5z" />
    <glyph glyph-name="ograve" unicode="&#xf2;" horiz-adv-x="592" 
d="M154 268q0 -89 40.5 -136.5t101.5 -47.5t101.5 47.5t40.5 136.5t-40.5 137t-101.5 48t-101.5 -48t-40.5 -137zM296 550q108 0 186.5 -73t78.5 -209q0 -137 -78.5 -209t-186.5 -72t-186.5 72t-78.5 209q0 136 78.5 209t186.5 73zM247 609l-142 116h141l94 -116h-93z" />
    <glyph glyph-name="oacute" unicode="&#xf3;" horiz-adv-x="592" 
d="M154 268q0 -89 40.5 -136.5t101.5 -47.5t101.5 47.5t40.5 136.5t-40.5 137t-101.5 48t-101.5 -48t-40.5 -137zM296 550q108 0 186.5 -73t78.5 -209q0 -137 -78.5 -209t-186.5 -72t-186.5 72t-78.5 209q0 136 78.5 209t186.5 73zM480 725l-142 -116h-91l93 116h140z" />
    <glyph glyph-name="ocircumflex" unicode="&#xf4;" horiz-adv-x="592" 
d="M154 268q0 -89 40.5 -136.5t101.5 -47.5t101.5 47.5t40.5 136.5t-40.5 137t-101.5 48t-101.5 -48t-40.5 -137zM296 550q108 0 186.5 -73t78.5 -209q0 -137 -78.5 -209t-186.5 -72t-186.5 72t-78.5 209q0 136 78.5 209t186.5 73zM342 725l140 -116h-110l-79 48l-80 -48
h-109l143 116h95z" />
    <glyph glyph-name="otilde" unicode="&#xf5;" horiz-adv-x="592" 
d="M154 268q0 -89 40.5 -136.5t101.5 -47.5t101.5 47.5t40.5 136.5t-40.5 137t-101.5 48t-101.5 -48t-40.5 -137zM296 550q108 0 186.5 -73t78.5 -209q0 -137 -78.5 -209t-186.5 -72t-186.5 72t-78.5 209q0 136 78.5 209t186.5 73zM354 691q41 0 50 44h85
q-11 -70 -48.5 -98.5t-80.5 -28.5q-35 0 -73.5 22.5t-56.5 22.5q-40 0 -48 -44h-85q11 68 48.5 97.5t80.5 29.5q35 0 71.5 -22.5t56.5 -22.5z" />
    <glyph glyph-name="odieresis" unicode="&#xf6;" horiz-adv-x="592" 
d="M154 268q0 -89 40.5 -136.5t101.5 -47.5t101.5 47.5t40.5 136.5t-40.5 137t-101.5 48t-101.5 -48t-40.5 -137zM296 550q108 0 186.5 -73t78.5 -209q0 -137 -78.5 -209t-186.5 -72t-186.5 72t-78.5 209q0 136 78.5 209t186.5 73zM123 614v111h105v-111h-105zM359 725h105
v-111h-105v111z" />
    <glyph glyph-name="divide" unicode="&#xf7;" horiz-adv-x="678" 
d="M272 26v130h135v-130h-135zM272 371v130h135v-130h-135zM604 210h-529v107h529v-107z" />
    <glyph glyph-name="oslash" unicode="&#xf8;" horiz-adv-x="592" 
d="M296 550q92 0 159 -50l44 51l45 -40l-45 -52q62 -72 62 -191q0 -137 -78.5 -209t-186.5 -72q-94 0 -162 51l-56 -65l-45 41l57 66q-59 74 -59 188q0 136 78.5 209t186.5 73zM438 268q0 57 -19 99l-214 -247q37 -36 91 -36q61 0 101.5 47.5t40.5 136.5zM154 268
q0 -56 16 -95l214 246q-37 34 -88 34q-61 0 -101.5 -48t-40.5 -137z" />
    <glyph glyph-name="ugrave" unicode="&#xf9;" horiz-adv-x="585" 
d="M399 0v74q-48 -87 -159 -87q-180 0 -180 212v339h119v-310q0 -32 3 -54t12.5 -44.5t30.5 -34t53 -11.5q121 0 121 167v287h119v-538h-119zM253 609l-142 116h141l94 -116h-93z" />
    <glyph glyph-name="uacute" unicode="&#xfa;" horiz-adv-x="585" 
d="M399 0v74q-48 -87 -159 -87q-180 0 -180 212v339h119v-310q0 -32 3 -54t12.5 -44.5t30.5 -34t53 -11.5q121 0 121 167v287h119v-538h-119zM466 725l-142 -116h-91l93 116h140z" />
    <glyph glyph-name="ucircumflex" unicode="&#xfb;" horiz-adv-x="585" 
d="M399 0v74q-48 -87 -159 -87q-180 0 -180 212v339h119v-310q0 -32 3 -54t12.5 -44.5t30.5 -34t53 -11.5q121 0 121 167v287h119v-538h-119zM338 725l140 -116h-110l-79 48l-80 -48h-109l143 116h95z" />
    <glyph glyph-name="udieresis" unicode="&#xfc;" horiz-adv-x="585" 
d="M399 0v74q-48 -87 -159 -87q-180 0 -180 212v339h119v-310q0 -32 3 -54t12.5 -44.5t30.5 -34t53 -11.5q121 0 121 167v287h119v-538h-119zM122 614v111h105v-111h-105zM358 725h105v-111h-105v111z" />
    <glyph glyph-name="yacute" unicode="&#xfd;" horiz-adv-x="496" 
d="M100 -175h-54v91h45q43 0 62 12.5t36 61.5l6 13l-195 535h130l122 -386l122 386h122l-189 -537q-39 -107 -78.5 -141.5t-128.5 -34.5zM435 725l-142 -116h-91l93 116h140z" />
    <glyph glyph-name="thorn" unicode="&#xfe;" horiz-adv-x="610" 
d="M186 725v-259q52 84 160 84q99 0 166.5 -77.5t67.5 -203.5q0 -127 -67.5 -204.5t-166.5 -77.5q-108 0 -160 84v-246h-119v900h119zM181 269q0 -90 39 -137.5t101 -47.5q60 0 98 50t38 135t-38 134.5t-98 49.5q-62 0 -101 -47.5t-39 -136.5z" />
    <glyph glyph-name="ydieresis" unicode="&#xff;" horiz-adv-x="496" 
d="M100 -175h-54v91h45q43 0 62 12.5t36 61.5l6 13l-195 535h130l122 -386l122 386h122l-189 -537q-39 -107 -78.5 -141.5t-128.5 -34.5zM78 614v111h105v-111h-105zM314 725h105v-111h-105v111z" />
    <glyph glyph-name="Amacron" unicode="&#x100;" horiz-adv-x="676" 
d="M0 0l270 725h134l272 -725h-139l-57 161h-294l-56 -161h-130zM332 578l-109 -311h219zM492 786h-308v87h308v-87z" />
    <glyph glyph-name="amacron" unicode="&#x101;" horiz-adv-x="569" 
d="M400 212v41q-130 -12 -184.5 -34.5t-54.5 -67.5q0 -35 27 -55t72 -20q67 0 103.5 34t36.5 102zM234 -13q-88 0 -143.5 44t-55.5 117q0 33 12.5 59t38.5 45t56 32.5t74.5 23.5t85 16t95.5 12v10q0 120 -112 120q-47 0 -76.5 -25t-31.5 -72h-117q6 82 69 133.5t160 51.5
q105 0 167 -54.5t60 -176.5q0 -10 -1 -61t-1 -78q0 -119 16 -184h-109q-8 44 -10 73q-51 -86 -177 -86zM448 628h-308v88h308v-88z" />
    <glyph glyph-name="Abreve" unicode="&#x102;" horiz-adv-x="676" 
d="M0 0l270 725h134l272 -725h-139l-57 161h-294l-56 -161h-130zM332 578l-109 -311h219zM414 886h89q-11 -117 -165 -117q-152 0 -164 117h89q7 -51 76 -51t75 51z" />
    <glyph glyph-name="abreve" unicode="&#x103;" horiz-adv-x="569" 
d="M400 212v41q-130 -12 -184.5 -34.5t-54.5 -67.5q0 -35 27 -55t72 -20q67 0 103.5 34t36.5 102zM234 -13q-88 0 -143.5 44t-55.5 117q0 33 12.5 59t38.5 45t56 32.5t74.5 23.5t85 16t95.5 12v10q0 120 -112 120q-47 0 -76.5 -25t-31.5 -72h-117q6 82 69 133.5t160 51.5
q105 0 167 -54.5t60 -176.5q0 -10 -1 -61t-1 -78q0 -119 16 -184h-109q-8 44 -10 73q-51 -86 -177 -86zM372 725h86q-14 -121 -166 -121q-155 0 -164 121h87q6 -55 78 -55q73 0 79 55z" />
    <glyph glyph-name="Aogonek" unicode="&#x104;" horiz-adv-x="676" 
d="M0 0l270 725h134l272 -725q-91 -45 -91 -78q0 -35 45 -35q27 0 46 7v-73q-36 -9 -73 -9q-29 0 -55.5 7t-48 29t-21.5 55q0 63 59 97l-57 161h-294l-56 -161h-130zM332 578l-109 -311h219z" />
    <glyph glyph-name="aogonek" unicode="&#x105;" horiz-adv-x="569" 
d="M400 212v41q-130 -12 -184.5 -34.5t-54.5 -67.5q0 -35 27 -55t72 -20q67 0 103.5 34t36.5 102zM421 0q-8 44 -10 73q-51 -86 -177 -86q-88 0 -143.5 44t-55.5 117q0 33 12.5 59t38.5 45t56 32.5t74.5 23.5t85 16t95.5 12v10q0 120 -112 120q-47 0 -76.5 -25t-31.5 -72
h-117q6 82 69 133.5t160 51.5q105 0 167 -54.5t60 -176.5q0 -10 -1 -61t-1 -78q0 -119 16 -184q-46 -22 -67.5 -39t-21.5 -38q0 -37 46 -37q8 0 42 9v-73q-33 -10 -64 -10q-56 0 -92.5 22.5t-36.5 69.5q0 29 23.5 54.5t61.5 41.5z" />
    <glyph glyph-name="Cacute" unicode="&#x106;" horiz-adv-x="726" 
d="M570 241h122q-23 -122 -105 -188t-208 -66q-157 0 -246 102.5t-89 275.5q0 172 91.5 272.5t249.5 100.5q122 0 202.5 -66.5t102.5 -187.5h-122q-17 73 -66 111.5t-121 38.5q-90 0 -148 -71t-58 -198q0 -128 57.5 -201t147.5 -73q75 0 124 38t66 112zM575 886l-155 -113
h-104l105 113h154z" />
    <glyph glyph-name="cacute" unicode="&#x107;" horiz-adv-x="564" 
d="M294 550q90 0 157.5 -54t83.5 -142h-116q-8 43 -42.5 70t-82.5 27q-61 0 -101 -46t-40 -136t40 -136.5t98 -46.5q49 0 85 23.5t47 74.5h116q-17 -91 -88.5 -144t-161.5 -53q-116 0 -187.5 79.5t-71.5 201.5t72.5 202t191.5 80zM469 725l-142 -116h-91l93 116h140z" />
    <glyph glyph-name="Ccircumflex" unicode="&#x108;" horiz-adv-x="726" 
d="M570 241h122q-23 -122 -105 -188t-208 -66q-157 0 -246 102.5t-89 275.5q0 172 91.5 272.5t249.5 100.5q122 0 202.5 -66.5t102.5 -187.5h-122q-17 73 -66 111.5t-121 38.5q-90 0 -148 -71t-58 -198q0 -128 57.5 -201t147.5 -73q75 0 124 38t66 112zM437 886l135 -113
h-122l-67 51l-68 -51h-121l138 113h105z" />
    <glyph glyph-name="ccircumflex" unicode="&#x109;" horiz-adv-x="564" 
d="M294 550q90 0 157.5 -54t83.5 -142h-116q-8 43 -42.5 70t-82.5 27q-61 0 -101 -46t-40 -136t40 -136.5t98 -46.5q49 0 85 23.5t47 74.5h116q-17 -91 -88.5 -144t-161.5 -53q-116 0 -187.5 79.5t-71.5 201.5t72.5 202t191.5 80zM341 725l140 -116h-110l-79 48l-80 -48
h-109l143 116h95z" />
    <glyph glyph-name="Cdotaccent" unicode="&#x10a;" horiz-adv-x="726" 
d="M570 241h122q-23 -122 -105 -188t-208 -66q-157 0 -246 102.5t-89 275.5q0 172 91.5 272.5t249.5 100.5q122 0 202.5 -66.5t102.5 -187.5h-122q-17 73 -66 111.5t-121 38.5q-90 0 -148 -71t-58 -198q0 -128 57.5 -201t147.5 -73q75 0 124 38t66 112zM322 884h123v-108
h-123v108z" />
    <glyph glyph-name="cdotaccent" unicode="&#x10b;" horiz-adv-x="564" 
d="M294 550q90 0 157.5 -54t83.5 -142h-116q-8 43 -42.5 70t-82.5 27q-61 0 -101 -46t-40 -136t40 -136.5t98 -46.5q49 0 85 23.5t47 74.5h116q-17 -91 -88.5 -144t-161.5 -53q-116 0 -187.5 79.5t-71.5 201.5t72.5 202t191.5 80zM230 725h105v-111h-105v111z" />
    <glyph glyph-name="Ccaron" unicode="&#x10c;" horiz-adv-x="726" 
d="M570 241h122q-23 -122 -105 -188t-208 -66q-157 0 -246 102.5t-89 275.5q0 172 91.5 272.5t249.5 100.5q122 0 202.5 -66.5t102.5 -187.5h-122q-17 73 -66 111.5t-121 38.5q-90 0 -148 -71t-58 -198q0 -128 57.5 -201t147.5 -73q75 0 124 38t66 112zM332 773l-135 113
h122l66 -52l69 52h121l-138 -113h-105z" />
    <glyph glyph-name="ccaron" unicode="&#x10d;" horiz-adv-x="564" 
d="M294 550q90 0 157.5 -54t83.5 -142h-116q-8 43 -42.5 70t-82.5 27q-61 0 -101 -46t-40 -136t40 -136.5t98 -46.5q49 0 85 23.5t47 74.5h116q-17 -91 -88.5 -144t-161.5 -53q-116 0 -187.5 79.5t-71.5 201.5t72.5 202t191.5 80zM233 609l-140 116h110l78 -48l81 48h109
l-143 -116h-95z" />
    <glyph glyph-name="Dcaron" unicode="&#x10e;" horiz-adv-x="719" 
d="M544 363q0 82 -23 136.5t-66 80t-86.5 34.5t-103.5 9h-65v-521h65q60 0 103.5 9t86.5 35t66 80.5t23 136.5zM73 725h198q72 0 130.5 -10.5t110.5 -36t87.5 -66t56 -103.5t20.5 -146q0 -103 -30.5 -175.5t-87 -112.5t-126.5 -57.5t-161 -17.5h-198v725zM300 773l-135 113
h122l66 -52l69 52h121l-138 -113h-105z" />
    <glyph glyph-name="dcaron" unicode="&#x10f;" horiz-adv-x="708" 
d="M728 725l-70 -170h-77l30 170h117zM424 466v259h119v-725h-119v71q-51 -84 -160 -84q-99 0 -166.5 77.5t-67.5 204.5q0 126 67.5 203.5t166.5 77.5q109 0 160 -84zM429 269q0 89 -39 136.5t-100 47.5q-60 0 -98 -50.5t-38 -133.5q0 -85 37.5 -135t98.5 -50t100 48t39 137
z" />
    <glyph glyph-name="Dcroat" unicode="&#x110;" horiz-adv-x="739" 
d="M93 725h198q72 0 130.5 -10.5t110.5 -36t87.5 -66t56 -103.5t20.5 -146q0 -103 -30.5 -175.5t-87 -112.5t-126.5 -57.5t-161 -17.5h-198v314h-84v106h84v305zM564 363q0 82 -23 136.5t-66 80t-86.5 34.5t-103.5 9h-65v-203h133v-106h-133v-212h65q60 0 103.5 9t86.5 35
t66 80.5t23 136.5z" />
    <glyph glyph-name="dcroat" unicode="&#x111;" horiz-adv-x="614" 
d="M424 466v110h-134v79h134v70h119v-70h71v-79h-71v-576h-119v71q-51 -84 -160 -84q-99 0 -166.5 77.5t-67.5 204.5q0 126 67.5 203.5t166.5 77.5q109 0 160 -84zM429 269q0 89 -39 136.5t-100 47.5q-60 0 -98 -50.5t-38 -133.5q0 -85 37.5 -135t98.5 -50t100 48t39 137z
" />
    <glyph glyph-name="Emacron" unicode="&#x112;" horiz-adv-x="615" 
d="M73 0v725h513v-106h-386v-194h365v-105h-365v-213h386v-107h-513zM490 786h-308v87h308v-87z" />
    <glyph glyph-name="emacron" unicode="&#x113;" horiz-adv-x="584" 
d="M553 235h-401q6 -71 48.5 -110t97.5 -39q101 0 132 75h117q-20 -72 -83.5 -123t-160.5 -51q-125 0 -198.5 82.5t-73.5 203.5t74.5 199t189.5 78q123 0 194.5 -89.5t63.5 -225.5zM295 457q-50 0 -92.5 -33t-50.5 -102h280q-2 61 -42 98t-95 37zM450 628h-308v88h308v-88z
" />
    <glyph glyph-name="Ebreve" unicode="&#x114;" horiz-adv-x="615" 
d="M73 0v725h513v-106h-386v-194h365v-105h-365v-213h386v-107h-513zM415 886h89q-10 -117 -165 -117q-152 0 -164 117h89q7 -51 76 -51t75 51z" />
    <glyph glyph-name="ebreve" unicode="&#x115;" horiz-adv-x="584" 
d="M553 235h-401q6 -71 48.5 -110t97.5 -39q101 0 132 75h117q-20 -72 -83.5 -123t-160.5 -51q-125 0 -198.5 82.5t-73.5 203.5t74.5 199t189.5 78q123 0 194.5 -89.5t63.5 -225.5zM295 457q-50 0 -92.5 -33t-50.5 -102h280q-2 61 -42 98t-95 37zM368 725h86
q-14 -121 -166 -121q-155 0 -164 121h87q6 -55 78 -55q73 0 79 55z" />
    <glyph glyph-name="Edotaccent" unicode="&#x116;" horiz-adv-x="615" 
d="M73 0v725h513v-106h-386v-194h365v-105h-365v-213h386v-107h-513zM268 884h123v-108h-123v108z" />
    <glyph glyph-name="edotaccent" unicode="&#x117;" horiz-adv-x="584" 
d="M553 235h-401q6 -71 48.5 -110t97.5 -39q101 0 132 75h117q-20 -72 -83.5 -123t-160.5 -51q-125 0 -198.5 82.5t-73.5 203.5t74.5 199t189.5 78q123 0 194.5 -89.5t63.5 -225.5zM295 457q-50 0 -92.5 -33t-50.5 -102h280q-2 61 -42 98t-95 37zM237 725h105v-111h-105v111
z" />
    <glyph glyph-name="Eogonek" unicode="&#x118;" horiz-adv-x="615" 
d="M73 0v725h513v-106h-386v-194h365v-105h-365v-213h386v-107h-513zM459 0h127q-91 -45 -91 -78q0 -35 45 -35q27 0 46 7v-73q-36 -9 -73 -9q-29 0 -55 7t-47 28.5t-21 55.5q0 61 69 97z" />
    <glyph glyph-name="eogonek" unicode="&#x119;" horiz-adv-x="584" 
d="M295 457q-51 0 -93.5 -32.5t-49.5 -102.5h280q-2 61 -42 98t-95 37zM426 -105v-73q-33 -10 -64 -10q-56 0 -92.5 22.5t-36.5 69.5q0 46 45 84q-114 8 -180.5 90t-66.5 195q0 121 74.5 199t189.5 78q123 0 194.5 -89.5t63.5 -225.5h-401q6 -70 49 -109.5t97 -39.5
q101 0 132 75h117q-27 -93 -114 -143q-95 -54 -95 -95q0 -37 46 -37q8 0 42 9z" />
    <glyph glyph-name="Ecaron" unicode="&#x11a;" horiz-adv-x="615" 
d="M73 0v725h513v-106h-386v-194h365v-105h-365v-213h386v-107h-513zM285 773l-135 113h122l66 -52l69 52h121l-138 -113h-105z" />
    <glyph glyph-name="ecaron" unicode="&#x11b;" horiz-adv-x="584" 
d="M553 235h-401q6 -71 48.5 -110t97.5 -39q101 0 132 75h117q-20 -72 -83.5 -123t-160.5 -51q-125 0 -198.5 82.5t-73.5 203.5t74.5 199t189.5 78q123 0 194.5 -89.5t63.5 -225.5zM295 457q-50 0 -92.5 -33t-50.5 -102h280q-2 61 -42 98t-95 37zM240 609l-140 116h110
l78 -48l81 48h109l-143 -116h-95z" />
    <glyph glyph-name="Gcircumflex" unicode="&#x11c;" horiz-adv-x="764" 
d="M392 738q122 0 202.5 -63.5t103.5 -179.5h-121q-18 67 -67 103t-121 36q-96 0 -155 -69.5t-59 -199.5t57.5 -202t155.5 -72q35 0 67 8.5t61.5 26.5t47.5 52t18 80v14h-185v107h303v-379h-100l-4 87q-67 -100 -222 -100q-153 0 -241.5 103t-88.5 275q0 170 93.5 271.5
t254.5 101.5zM446 886l135 -113h-122l-67 51l-68 -51h-121l138 113h105z" />
    <glyph glyph-name="gcircumflex" unicode="&#x11d;" horiz-adv-x="609" 
d="M424 466v72h119v-484q0 -130 -65 -190q-62 -58 -191 -58q-94 0 -155 40t-75 125h118q8 -38 34.5 -54.5t80.5 -16.5q74 0 107 39q27 31 27 91v63q-51 -84 -160 -84q-99 0 -166.5 74t-67.5 197t67.5 196.5t166.5 73.5q109 0 160 -84zM429 280q0 86 -39 130.5t-100 44.5
t-98.5 -47.5t-37.5 -127.5q0 -82 37.5 -129.5t98.5 -47.5t100 45t39 132zM355 725l140 -116h-110l-79 48l-80 -48h-109l143 116h95z" />
    <glyph glyph-name="Gbreve" unicode="&#x11e;" horiz-adv-x="764" 
d="M392 738q122 0 202.5 -63.5t103.5 -179.5h-121q-18 67 -67 103t-121 36q-96 0 -155 -69.5t-59 -199.5t57.5 -202t155.5 -72q35 0 67 8.5t61.5 26.5t47.5 52t18 80v14h-185v107h303v-379h-100l-4 87q-67 -100 -222 -100q-153 0 -241.5 103t-88.5 275q0 170 93.5 271.5
t254.5 101.5zM470 886h89q-11 -117 -165 -117q-152 0 -164 117h89q7 -51 76 -51t75 51z" />
    <glyph glyph-name="gbreve" unicode="&#x11f;" horiz-adv-x="609" 
d="M424 466v72h119v-484q0 -130 -65 -190q-62 -58 -191 -58q-94 0 -155 40t-75 125h118q8 -38 34.5 -54.5t80.5 -16.5q74 0 107 39q27 31 27 91v63q-51 -84 -160 -84q-99 0 -166.5 74t-67.5 197t67.5 196.5t166.5 73.5q109 0 160 -84zM429 280q0 86 -39 130.5t-100 44.5
t-98.5 -47.5t-37.5 -127.5q0 -82 37.5 -129.5t98.5 -47.5t100 45t39 132zM373 725h86q-14 -121 -166 -121q-155 0 -164 121h87q6 -55 78 -55q73 0 79 55z" />
    <glyph glyph-name="Gdotaccent" unicode="&#x120;" horiz-adv-x="764" 
d="M392 738q122 0 202.5 -63.5t103.5 -179.5h-121q-18 67 -67 103t-121 36q-96 0 -155 -69.5t-59 -199.5t57.5 -202t155.5 -72q35 0 67 8.5t61.5 26.5t47.5 52t18 80v14h-185v107h303v-379h-100l-4 87q-67 -100 -222 -100q-153 0 -241.5 103t-88.5 275q0 170 93.5 271.5
t254.5 101.5zM331 884h123v-108h-123v108z" />
    <glyph glyph-name="gdotaccent" unicode="&#x121;" horiz-adv-x="609" 
d="M424 466v72h119v-484q0 -130 -65 -190q-62 -58 -191 -58q-94 0 -155 40t-75 125h118q8 -38 34.5 -54.5t80.5 -16.5q74 0 107 39q27 31 27 91v63q-51 -84 -160 -84q-99 0 -166.5 74t-67.5 197t67.5 196.5t166.5 73.5q109 0 160 -84zM429 280q0 86 -39 130.5t-100 44.5
t-98.5 -47.5t-37.5 -127.5q0 -82 37.5 -129.5t98.5 -47.5t100 45t39 132zM233 725h105v-111h-105v111z" />
    <glyph glyph-name="uni0122" unicode="&#x122;" horiz-adv-x="764" 
d="M392 738q122 0 202.5 -63.5t103.5 -179.5h-121q-18 67 -67 103t-121 36q-96 0 -155 -69.5t-59 -199.5t57.5 -202t155.5 -72q35 0 67 8.5t61.5 26.5t47.5 52t18 80v14h-185v107h303v-379h-100l-4 87q-67 -100 -222 -100q-153 0 -241.5 103t-88.5 275q0 170 93.5 271.5
t254.5 101.5zM323 -131v95h101v-102l-44 -89h-60l39 96h-36z" />
    <glyph glyph-name="uni0123" unicode="&#x123;" horiz-adv-x="609" 
d="M333 700v-95h-101v102l44 89h61l-39 -96h35zM424 466v72h119v-484q0 -130 -65 -190q-62 -58 -191 -58q-94 0 -155 40t-75 125h118q8 -38 34.5 -54.5t80.5 -16.5q74 0 107 39q27 31 27 91v63q-51 -84 -160 -84q-99 0 -166.5 74t-67.5 197t67.5 196.5t166.5 73.5
q109 0 160 -84zM429 280q0 86 -39 130.5t-100 44.5t-98.5 -47.5t-37.5 -127.5q0 -82 37.5 -129.5t98.5 -47.5t100 45t39 132z" />
    <glyph glyph-name="Hcircumflex" unicode="&#x124;" horiz-adv-x="747" 
d="M546 725h127v-725h-127v320h-346v-320h-127v725h127v-300h346v300zM427 886l135 -113h-122l-67 51l-68 -51h-121l138 113h105z" />
    <glyph glyph-name="hcircumflex" unicode="&#x125;" horiz-adv-x="589" 
d="M186 725v-262q48 87 163 87q183 0 183 -212v-338h-119v309q0 32 -3.5 54t-13 44.5t-31 34t-54.5 11.5q-125 0 -125 -167v-286h-119v725h119zM182 886l135 -113h-122l-67 51l-68 -51h-121l138 113h105z" />
    <glyph glyph-name="Hbar" unicode="&#x126;" horiz-adv-x="747" 
d="M546 725h127v-115h64v-96h-64v-514h-127v320h-346v-320h-127v514h-63v96h63v115h127v-115h346v115zM200 425h346v89h-346v-89z" />
    <glyph glyph-name="hbar" unicode="&#x127;" horiz-adv-x="596" 
d="M193 725v-70h125v-79h-125v-113q48 87 163 87q183 0 183 -212v-338h-119v309q0 32 -3.5 54t-13 44.5t-31 34t-54.5 11.5q-125 0 -125 -167v-286h-119v576h-84v79h84v70h119z" />
    <glyph glyph-name="Itilde" unicode="&#x128;" horiz-adv-x="273" 
d="M200 725v-725h-127v725h127zM197 847q41 0 50 39h83q-18 -113 -128 -113q-33 0 -71.5 19.5t-56.5 19.5q-41 0 -47 -39h-85q19 113 128 113q34 0 71 -19.5t56 -19.5z" />
    <glyph glyph-name="itilde" unicode="&#x129;" horiz-adv-x="253" 
d="M67 538h119v-538h-119v538zM187 691q41 0 50 44h85q-11 -70 -48.5 -98.5t-80.5 -28.5q-35 0 -73.5 22.5t-56.5 22.5q-40 0 -48 -44h-85q11 68 48.5 97.5t80.5 29.5q35 0 71.5 -22.5t56.5 -22.5z" />
    <glyph glyph-name="Imacron" unicode="&#x12a;" horiz-adv-x="273" 
d="M200 725v-725h-127v725h127zM290 786h-308v87h308v-87z" />
    <glyph glyph-name="imacron" unicode="&#x12b;" horiz-adv-x="253" 
d="M67 538h119v-538h-119v538zM280 628h-308v88h308v-88z" />
    <glyph glyph-name="Ibreve" unicode="&#x12c;" horiz-adv-x="273" 
d="M200 725v-725h-127v725h127zM212 886h89q-11 -117 -165 -117q-152 0 -164 117h89q7 -51 76 -51t75 51z" />
    <glyph glyph-name="ibreve" unicode="&#x12d;" horiz-adv-x="253" 
d="M67 538h119v-538h-119v538zM205 725h86q-14 -121 -166 -121q-155 0 -164 121h87q6 -55 78 -55q73 0 79 55z" />
    <glyph glyph-name="Iogonek" unicode="&#x12e;" horiz-adv-x="273" 
d="M74 0h127q-91 -45 -91 -78q0 -35 45 -35q27 0 46 7v-73q-36 -9 -73 -9q-29 0 -55 7t-47 28.5t-21 55.5q0 61 69 97zM200 725v-725h-127v725h127z" />
    <glyph glyph-name="iogonek" unicode="&#x12f;" horiz-adv-x="253" 
d="M66 0h1v538h119v-538q-45 -22 -66.5 -39t-21.5 -38q0 -37 46 -37q8 0 42 9v-73q-33 -10 -64 -10q-56 0 -92.5 22.5t-36.5 69.5q0 59 73 96zM67 725h119v-120h-119v120z" />
    <glyph glyph-name="Idotaccent" unicode="&#x130;" horiz-adv-x="273" 
d="M200 725v-725h-127v725h127zM75 884h123v-108h-123v108z" />
    <glyph glyph-name="dotlessi" unicode="&#x131;" horiz-adv-x="253" 
d="M67 538h119v-538h-119v538z" />
    <glyph glyph-name="Jcircumflex" unicode="&#x134;" horiz-adv-x="581" 
d="M260 -13q-118 0 -183.5 69.5t-65.5 188.5h126q0 -75 31.5 -114.5t91.5 -39.5q58 0 89.5 39.5t31.5 114.5v480h127v-480q0 -119 -65 -188.5t-183 -69.5zM502 886l135 -113h-122l-67 51l-68 -51h-121l138 113h105z" />
    <glyph glyph-name="jcircumflex" unicode="&#x135;" horiz-adv-x="253" 
d="M67 -13v551h119v-546q0 -101 -31.5 -134t-124.5 -33h-40v92h22q36 0 45.5 13t9.5 57zM175 725l140 -116h-110l-79 48l-80 -48h-109l143 116h95z" />
    <glyph glyph-name="uni0136" unicode="&#x136;" horiz-adv-x="675" 
d="M200 725v-345l308 345h151l-269 -295l294 -430h-150l-228 338l-106 -116v-222h-127v725h127zM301 -131v95h101v-102l-44 -89h-60l39 96h-36z" />
    <glyph glyph-name="uni0137" unicode="&#x137;" horiz-adv-x="535" 
d="M67 725h119v-403l199 216h143l-206 -221l229 -317h-139l-169 233l-57 -61v-172h-119v725zM239 -131v95h101v-102l-44 -89h-60l39 96h-36z" />
    <glyph glyph-name="Lacute" unicode="&#x139;" horiz-adv-x="565" 
d="M200 725v-618h365v-107h-492v725h127zM339 886l-155 -113h-104l105 113h154z" />
    <glyph glyph-name="lacute" unicode="&#x13a;" horiz-adv-x="252" 
d="M186 725v-725h-119v725h119zM333 886l-155 -113h-104l105 113h154z" />
    <glyph glyph-name="uni013B" unicode="&#x13b;" horiz-adv-x="565" 
d="M200 725v-618h365v-107h-492v725h127zM270 -131v95h101v-102l-44 -89h-60l39 96h-36z" />
    <glyph glyph-name="uni013C" unicode="&#x13c;" horiz-adv-x="253" 
d="M186 725v-725h-119v725h119zM77 -131v95h101v-102l-44 -89h-60l39 96h-36z" />
    <glyph glyph-name="Lcaron" unicode="&#x13d;" horiz-adv-x="565" 
d="M200 725v-618h365v-107h-492v725h127zM443 725l-70 -170h-77l30 170h117z" />
    <glyph glyph-name="lcaron" unicode="&#x13e;" horiz-adv-x="354" 
d="M374 725l-70 -170h-77l30 170h117zM186 725v-725h-119v725h119z" />
    <glyph glyph-name="Ldot" unicode="&#x13f;" horiz-adv-x="565" 
d="M357 482h123v-108h-123v108zM200 725v-618h365v-107h-492v725h127z" />
    <glyph glyph-name="ldot" unicode="&#x140;" horiz-adv-x="358" 
d="M186 725v-725h-119v725h119zM253 472h105v-111h-105v111z" />
    <glyph glyph-name="Lslash" unicode="&#x141;" horiz-adv-x="587" 
d="M222 725v-276l174 114v-112l-174 -114v-230h365v-107h-492v255l-95 -62v112l95 62v358h127z" />
    <glyph glyph-name="lslash" unicode="&#x142;" horiz-adv-x="305" 
d="M212 725v-255l73 45v-98l-73 -45v-372h-119v300l-73 -44v98l73 44v327h119z" />
    <glyph glyph-name="Nacute" unicode="&#x143;" horiz-adv-x="746" 
d="M673 0h-170l-307 579v-579h-123v725h170l307 -579v579h123v-725zM578 886l-155 -113h-104l105 113h154z" />
    <glyph glyph-name="nacute" unicode="&#x144;" horiz-adv-x="589" 
d="M186 538v-75q48 87 163 87q183 0 183 -212v-338h-119v309q0 32 -3.5 54t-13 44.5t-31 34t-54.5 11.5q-125 0 -125 -167v-286h-119v538h119zM486 725l-142 -116h-91l93 116h140z" />
    <glyph glyph-name="uni0145" unicode="&#x145;" horiz-adv-x="746" 
d="M673 0h-170l-307 579v-579h-123v725h170l307 -579v579h123v-725zM324 -131v95h101v-102l-44 -89h-60l39 96h-36z" />
    <glyph glyph-name="uni0146" unicode="&#x146;" horiz-adv-x="589" 
d="M186 538v-75q48 87 163 87q183 0 183 -212v-338h-119v309q0 32 -3.5 54t-13 44.5t-31 34t-54.5 11.5q-125 0 -125 -167v-286h-119v538h119zM245 -131v95h101v-102l-44 -89h-60l39 96h-36z" />
    <glyph glyph-name="Ncaron" unicode="&#x147;" horiz-adv-x="746" 
d="M673 0h-170l-307 579v-579h-123v725h170l307 -579v579h123v-725zM335 773l-135 113h122l66 -52l69 52h121l-138 -113h-105z" />
    <glyph glyph-name="ncaron" unicode="&#x148;" horiz-adv-x="589" 
d="M186 538v-75q48 87 163 87q183 0 183 -212v-338h-119v309q0 32 -3.5 54t-13 44.5t-31 34t-54.5 11.5q-125 0 -125 -167v-286h-119v538h119zM260 609l-140 116h110l78 -48l81 48h109l-143 -116h-95z" />
    <glyph glyph-name="Eng" unicode="&#x14a;" horiz-adv-x="747" 
d="M546 1l-350 578v-579h-123v725h170l307 -503v503h123v-734q0 -103 -36.5 -135t-139.5 -32h-54v99h26q47 0 62 12.5t15 53.5v12z" />
    <glyph glyph-name="eng" unicode="&#x14b;" horiz-adv-x="589" 
d="M413 -7v316q0 32 -3.5 54t-13 44t-31 33.5t-54.5 11.5q-125 0 -125 -166v-286h-119v538h119v-75q48 87 163 87q183 0 183 -212v-345q0 -99 -36 -133.5t-127 -34.5h-48v98h25q43 0 55 13t12 57z" />
    <glyph glyph-name="Omacron" unicode="&#x14c;" horiz-adv-x="780" 
d="M175 363q0 -128 60.5 -200t154.5 -72t154.5 72t60.5 200t-60.5 199.5t-154.5 71.5t-154.5 -71.5t-60.5 -199.5zM736 363q0 -169 -94 -272.5t-252 -103.5t-252 103.5t-94 272.5t93.5 272t252.5 103t252.5 -103t93.5 -272zM544 786h-308v87h308v-87z" />
    <glyph glyph-name="omacron" unicode="&#x14d;" horiz-adv-x="592" 
d="M154 268q0 -89 40.5 -136.5t101.5 -47.5t101.5 47.5t40.5 136.5t-40.5 137t-101.5 48t-101.5 -48t-40.5 -137zM296 550q108 0 186.5 -73t78.5 -209q0 -137 -78.5 -209t-186.5 -72t-186.5 72t-78.5 209q0 136 78.5 209t186.5 73zM447 628h-308v88h308v-88z" />
    <glyph glyph-name="Obreve" unicode="&#x14e;" horiz-adv-x="780" 
d="M175 363q0 -128 60.5 -200t154.5 -72t154.5 72t60.5 200t-60.5 199.5t-154.5 71.5t-154.5 -71.5t-60.5 -199.5zM736 363q0 -169 -94 -272.5t-252 -103.5t-252 103.5t-94 272.5t93.5 272t252.5 103t252.5 -103t93.5 -272zM466 886h89q-11 -117 -165 -117q-152 0 -164 117
h89q7 -51 76 -51t75 51z" />
    <glyph glyph-name="obreve" unicode="&#x14f;" horiz-adv-x="592" 
d="M154 268q0 -89 40.5 -136.5t101.5 -47.5t101.5 47.5t40.5 136.5t-40.5 137t-101.5 48t-101.5 -48t-40.5 -137zM296 550q108 0 186.5 -73t78.5 -209q0 -137 -78.5 -209t-186.5 -72t-186.5 72t-78.5 209q0 136 78.5 209t186.5 73zM372 725h86q-14 -121 -166 -121
q-155 0 -164 121h87q6 -55 78 -55q73 0 79 55z" />
    <glyph glyph-name="Ohungarumlaut" unicode="&#x150;" horiz-adv-x="780" 
d="M175 363q0 -128 60.5 -200t154.5 -72t154.5 72t60.5 200t-60.5 199.5t-154.5 71.5t-154.5 -71.5t-60.5 -199.5zM736 363q0 -169 -94 -272.5t-252 -103.5t-252 103.5t-94 272.5t93.5 272t252.5 103t252.5 -103t93.5 -272zM506 886l-155 -113h-104l105 113h154zM686 886
l-155 -113h-103l105 113h153z" />
    <glyph glyph-name="ohungarumlaut" unicode="&#x151;" horiz-adv-x="592" 
d="M154 268q0 -89 40.5 -136.5t101.5 -47.5t101.5 47.5t40.5 136.5t-40.5 137t-101.5 48t-101.5 -48t-40.5 -137zM296 550q108 0 186.5 -73t78.5 -209q0 -137 -78.5 -209t-186.5 -72t-186.5 72t-78.5 209q0 136 78.5 209t186.5 73zM390 725l-140 -116h-93l93 116h140z
M570 725l-142 -116h-91l92 116h141z" />
    <glyph glyph-name="OE" unicode="&#x152;" horiz-adv-x="1134" 
d="M606 365q0 129 -60 199t-156 70q-94 0 -154.5 -70.5t-60.5 -198.5q0 -129 60.5 -201.5t154.5 -72.5q95 0 155.5 72t60.5 202zM613 0v75q-80 -88 -223 -88q-158 0 -252 104t-94 274q0 168 94.5 270.5t251.5 102.5q144 0 223 -85v72h492v-106h-386v-194h364v-105h-364v-213
h386v-107h-492z" />
    <glyph glyph-name="oe" unicode="&#x153;" horiz-adv-x="987" 
d="M698 457q-51 0 -93.5 -32.5t-49.5 -102.5h280q-2 61 -42 98t-95 37zM296 453q-61 0 -101.5 -48t-40.5 -137t40.5 -136.5t101.5 -47.5t101.5 47.5t40.5 136.5t-40.5 137t-101.5 48zM833 161h117q-20 -72 -83.5 -123t-160.5 -51q-134 0 -207 99q-70 -99 -203 -99
q-108 0 -186.5 72t-78.5 209q0 136 78.5 209t186.5 73q131 0 202 -97q70 97 200 97q123 0 194.5 -89.5t63.5 -225.5h-401q6 -70 49 -109.5t97 -39.5q101 0 132 75z" />
    <glyph glyph-name="Racute" unicode="&#x154;" horiz-adv-x="679" 
d="M514 0l-153 306q-12 -1 -38 -1h-123v-305h-127v725h231q167 0 245 -46.5t78 -162.5q0 -141 -136 -187l166 -329h-143zM322 623h-122v-217h126q87 0 129 23.5t42 85.5q0 65 -44 86.5t-131 21.5zM516 886l-155 -113h-104l105 113h154z" />
    <glyph glyph-name="racute" unicode="&#x155;" horiz-adv-x="369" 
d="M361 537v-120q-30 3 -57 3q-60 0 -89 -30.5t-29 -107.5v-282h-119v538h117v-96q46 95 146 97q13 0 31 -2zM401 725l-142 -116h-91l93 116h140z" />
    <glyph glyph-name="uni0156" unicode="&#x156;" horiz-adv-x="679" 
d="M514 0l-153 306q-12 -1 -38 -1h-123v-305h-127v725h231q167 0 245 -46.5t78 -162.5q0 -141 -136 -187l166 -329h-143zM322 623h-122v-217h126q87 0 129 23.5t42 85.5q0 65 -44 86.5t-131 21.5zM290 -131v95h101v-102l-44 -89h-60l39 96h-36z" />
    <glyph glyph-name="uni0157" unicode="&#x157;" horiz-adv-x="369" 
d="M74 -131v95h101v-102l-44 -89h-60l39 96h-36zM361 537v-120q-30 3 -57 3q-60 0 -89 -30.5t-29 -107.5v-282h-119v538h117v-96q46 95 146 97q13 0 31 -2z" />
    <glyph glyph-name="Rcaron" unicode="&#x158;" horiz-adv-x="679" 
d="M514 0l-153 306q-12 -1 -38 -1h-123v-305h-127v725h231q167 0 245 -46.5t78 -162.5q0 -141 -136 -187l166 -329h-143zM322 623h-122v-217h126q87 0 129 23.5t42 85.5q0 65 -44 86.5t-131 21.5zM285 773l-135 113h122l66 -52l69 52h121l-138 -113h-105z" />
    <glyph glyph-name="rcaron" unicode="&#x159;" horiz-adv-x="369" 
d="M361 537v-120q-30 3 -57 3q-60 0 -89 -30.5t-29 -107.5v-282h-119v538h117v-96q46 95 146 97q13 0 31 -2zM165 609l-140 116h110l78 -48l81 48h109l-143 -116h-95z" />
    <glyph glyph-name="Sacute" unicode="&#x15a;" horiz-adv-x="648" 
d="M343 312l-88 17q-209 44 -209 205q0 95 82.5 149.5t191.5 54.5q113 0 188 -53.5t96 -162.5h-123q-27 112 -168 112q-51 0 -95 -24t-44 -72q0 -75 108 -96l89 -17q53 -10 93 -24t77.5 -38.5t57.5 -63.5t20 -91q0 -104 -86 -162.5t-202 -58.5q-130 0 -211.5 67t-93.5 186
h125q34 -149 186 -149q67 0 111 29t44 80q0 50 -41.5 75t-107.5 37zM529 886l-155 -113h-104l105 113h154z" />
    <glyph glyph-name="sacute" unicode="&#x15b;" horiz-adv-x="526" 
d="M486 391h-112q-18 68 -118 68q-41 0 -70.5 -16.5t-29.5 -42.5q0 -50 72 -64l76 -15q45 -9 76.5 -19.5t59.5 -28.5t42 -46t14 -66q0 -81 -66 -127.5t-162 -46.5q-97 0 -160 49.5t-73 127.5h116q17 -87 121 -87q48 0 78 19t30 51q0 55 -93 74l-81 16q-76 16 -119 52
t-43 105t64.5 112.5t154.5 43.5q83 0 145 -41t78 -118zM450 725l-142 -116h-91l93 116h140z" />
    <glyph glyph-name="Scircumflex" unicode="&#x15c;" horiz-adv-x="648" 
d="M343 312l-88 17q-209 44 -209 205q0 95 82.5 149.5t191.5 54.5q113 0 188 -53.5t96 -162.5h-123q-27 112 -168 112q-51 0 -95 -24t-44 -72q0 -75 108 -96l89 -17q53 -10 93 -24t77.5 -38.5t57.5 -63.5t20 -91q0 -104 -86 -162.5t-202 -58.5q-130 0 -211.5 67t-93.5 186
h125q34 -149 186 -149q67 0 111 29t44 80q0 50 -41.5 75t-107.5 37zM386 886l135 -113h-122l-67 51l-68 -51h-121l138 113h105z" />
    <glyph glyph-name="scircumflex" unicode="&#x15d;" horiz-adv-x="526" 
d="M486 391h-112q-18 68 -118 68q-41 0 -70.5 -16.5t-29.5 -42.5q0 -50 72 -64l76 -15q45 -9 76.5 -19.5t59.5 -28.5t42 -46t14 -66q0 -81 -66 -127.5t-162 -46.5q-97 0 -160 49.5t-73 127.5h116q17 -87 121 -87q48 0 78 19t30 51q0 55 -93 74l-81 16q-76 16 -119 52
t-43 105t64.5 112.5t154.5 43.5q83 0 145 -41t78 -118zM319 725l140 -116h-110l-79 48l-80 -48h-109l143 116h95z" />
    <glyph glyph-name="Scedilla" unicode="&#x15e;" horiz-adv-x="648" 
d="M343 312l-88 17q-209 44 -209 205q0 95 82.5 149.5t191.5 54.5q113 0 188 -53.5t96 -162.5h-123q-27 112 -168 112q-51 0 -95 -24t-44 -72q0 -75 108 -96l89 -17q53 -10 93 -24t77.5 -38.5t57.5 -63.5t20 -91q0 -104 -86 -162.5t-202 -58.5q-130 0 -211.5 67t-93.5 186
h125q34 -149 186 -149q67 0 111 29t44 80q0 50 -41.5 75t-107.5 37zM218 -176l17 43q26 -14 58 -14q57 0 57 30q0 29 -41 29q-24 0 -38 -9l-30 17l51 83h53l-32 -51q18 3 35 3q34 -1 56 -19.5t22 -48.5q0 -37 -34 -59.5t-79 -22.5q-56 0 -95 19z" />
    <glyph glyph-name="scedilla" unicode="&#x15f;" horiz-adv-x="526" 
d="M486 391h-112q-18 68 -118 68q-41 0 -70.5 -16.5t-29.5 -42.5q0 -50 72 -64l76 -15q45 -9 76.5 -19.5t59.5 -28.5t42 -46t14 -66q0 -81 -66 -127.5t-162 -46.5q-97 0 -160 49.5t-73 127.5h116q17 -87 121 -87q48 0 78 19t30 51q0 55 -93 74l-81 16q-76 16 -119 52
t-43 105t64.5 112.5t154.5 43.5q83 0 145 -41t78 -118zM162 -176l17 43q26 -14 58 -14q57 0 57 30q0 29 -41 29q-24 0 -38 -9l-30 17l51 83h53l-32 -51q18 3 35 3q34 -1 56 -19.5t22 -48.5q0 -37 -34 -59.5t-79 -22.5q-56 0 -95 19z" />
    <glyph glyph-name="Scaron" unicode="&#x160;" horiz-adv-x="648" 
d="M343 312l-88 17q-209 44 -209 205q0 95 82.5 149.5t191.5 54.5q113 0 188 -53.5t96 -162.5h-123q-27 112 -168 112q-51 0 -95 -24t-44 -72q0 -75 108 -96l89 -17q53 -10 93 -24t77.5 -38.5t57.5 -63.5t20 -91q0 -104 -86 -162.5t-202 -58.5q-130 0 -211.5 67t-93.5 186
h125q34 -149 186 -149q67 0 111 29t44 80q0 50 -41.5 75t-107.5 37zM278 773l-135 113h122l66 -52l69 52h121l-138 -113h-105z" />
    <glyph glyph-name="scaron" unicode="&#x161;" horiz-adv-x="526" 
d="M486 391h-112q-18 68 -118 68q-41 0 -70.5 -16.5t-29.5 -42.5q0 -50 72 -64l76 -15q45 -9 76.5 -19.5t59.5 -28.5t42 -46t14 -66q0 -81 -66 -127.5t-162 -46.5q-97 0 -160 49.5t-73 127.5h116q17 -87 121 -87q48 0 78 19t30 51q0 55 -93 74l-81 16q-76 16 -119 52
t-43 105t64.5 112.5t154.5 43.5q83 0 145 -41t78 -118zM216 609l-140 116h110l78 -48l81 48h109l-143 -116h-95z" />
    <glyph glyph-name="uni0162" unicode="&#x162;" horiz-adv-x="593" 
d="M245 -131v95h101v-102l-44 -89h-60l39 96h-36zM233 0v619h-228v106h583v-106h-228v-619h-127z" />
    <glyph glyph-name="uni0163" unicode="&#x163;" horiz-adv-x="340" 
d="M84 538v142h119v-142h108v-86h-108v-293q0 -41 13 -54.5t51 -13.5h43v-91h-88q-85 0 -111.5 28.5t-26.5 112.5v311h-80v86h80zM111 -131v95h101v-102l-44 -89h-60l39 96h-36z" />
    <glyph glyph-name="Tcaron" unicode="&#x164;" horiz-adv-x="593" 
d="M233 0v619h-228v106h583v-106h-228v-619h-127zM240 773l-135 113h122l66 -52l69 52h121l-138 -113h-105z" />
    <glyph glyph-name="tcaron" unicode="&#x165;" horiz-adv-x="400" 
d="M420 724l-70 -150h-77l30 150h117zM84 538v142h119v-142h108v-86h-108v-293q0 -41 13 -54.5t51 -13.5h43v-91h-88q-85 0 -111.5 28.5t-26.5 112.5v311h-80v86h80z" />
    <glyph glyph-name="Tbar" unicode="&#x166;" horiz-adv-x="590" 
d="M233 0v314h-165v106h165v199h-228v106h583v-106h-228v-199h161v-106h-161v-314h-127z" />
    <glyph glyph-name="tbar" unicode="&#x167;" horiz-adv-x="340" 
d="M90 538v142h119v-142h108v-86h-108v-80h108v-91h-108v-122q0 -41 13 -54.5t51 -13.5h43v-91h-88q-85 0 -111.5 28.5t-26.5 112.5v140h-80v91h80v80h-80v86h80z" />
    <glyph glyph-name="Utilde" unicode="&#x168;" horiz-adv-x="717" 
d="M62 725h127v-428q0 -106 36.5 -156t133.5 -50q95 0 132 52t37 158v424h127v-419q0 -171 -68.5 -245t-227.5 -74t-228 71t-69 244v423zM429 847q41 0 50 39h83q-18 -113 -128 -113q-33 0 -71.5 19.5t-56.5 19.5q-41 0 -47 -39h-85q19 113 128 113q34 0 71 -19.5t56 -19.5z
" />
    <glyph glyph-name="utilde" unicode="&#x169;" horiz-adv-x="585" 
d="M399 0v74q-48 -87 -159 -87q-180 0 -180 212v339h119v-310q0 -32 3 -54t12.5 -44.5t30.5 -34t53 -11.5q121 0 121 167v287h119v-538h-119zM360 691q41 0 50 44h85q-11 -70 -48.5 -98.5t-80.5 -28.5q-35 0 -73.5 22.5t-56.5 22.5q-40 0 -48 -44h-85q11 68 48.5 97.5
t80.5 29.5q35 0 71.5 -22.5t56.5 -22.5z" />
    <glyph glyph-name="Umacron" unicode="&#x16a;" horiz-adv-x="717" 
d="M62 725h127v-428q0 -106 36.5 -156t133.5 -50q95 0 132 52t37 158v424h127v-419q0 -171 -68.5 -245t-227.5 -74t-228 71t-69 244v423zM512 786h-308v87h308v-87z" />
    <glyph glyph-name="umacron" unicode="&#x16b;" horiz-adv-x="585" 
d="M399 0v74q-48 -87 -159 -87q-180 0 -180 212v339h119v-310q0 -32 3 -54t12.5 -44.5t30.5 -34t53 -11.5q121 0 121 167v287h119v-538h-119zM443 628h-308v88h308v-88z" />
    <glyph glyph-name="Ubreve" unicode="&#x16c;" horiz-adv-x="717" 
d="M62 725h127v-428q0 -106 36.5 -156t133.5 -50q95 0 132 52t37 158v424h127v-419q0 -171 -68.5 -245t-227.5 -74t-228 71t-69 244v423zM434 886h89q-11 -117 -165 -117q-152 0 -164 117h89q7 -51 76 -51t75 51z" />
    <glyph glyph-name="ubreve" unicode="&#x16d;" horiz-adv-x="585" 
d="M399 0v74q-48 -87 -159 -87q-180 0 -180 212v339h119v-310q0 -32 3 -54t12.5 -44.5t30.5 -34t53 -11.5q121 0 121 167v287h119v-538h-119zM368 725h86q-14 -121 -166 -121q-155 0 -164 121h87q6 -55 78 -55q73 0 79 55z" />
    <glyph glyph-name="Uring" unicode="&#x16e;" horiz-adv-x="717" 
d="M62 725h127v-428q0 -106 36.5 -156t133.5 -50q95 0 132 52t37 158v424h127v-419q0 -171 -68.5 -245t-227.5 -74t-228 71t-69 244v423zM358 935q39 0 65 -23.5t26 -61.5q0 -37 -26 -61t-65 -24q-38 0 -64 24t-26 61t26 61t64 24zM358 893q-18 0 -30.5 -12.5t-12.5 -30.5
t12.5 -30t30.5 -12t30.5 12t12.5 30t-12.5 30.5t-30.5 12.5z" />
    <glyph glyph-name="uring" unicode="&#x16f;" horiz-adv-x="585" 
d="M399 0v74q-48 -87 -159 -87q-180 0 -180 212v339h119v-310q0 -32 3 -54t12.5 -44.5t30.5 -34t53 -11.5q121 0 121 167v287h119v-538h-119zM291 779q39 0 66 -24.5t27 -62.5t-27 -62.5t-66 -24.5t-66 24.5t-27 62.5t27 62.5t66 24.5zM291 734q-17 0 -29 -12t-12 -30
t12 -29.5t29 -11.5q18 0 30 11.5t12 29.5t-12.5 30t-29.5 12z" />
    <glyph glyph-name="Uhungarumlaut" unicode="&#x170;" horiz-adv-x="717" 
d="M62 725h127v-428q0 -106 36.5 -156t133.5 -50q95 0 132 52t37 158v424h127v-419q0 -171 -68.5 -245t-227.5 -74t-228 71t-69 244v423zM464 886l-155 -113h-104l105 113h154zM644 886l-155 -113h-103l105 113h153z" />
    <glyph glyph-name="uhungarumlaut" unicode="&#x171;" horiz-adv-x="585" 
d="M386 725l-140 -116h-93l93 116h140zM566 725l-142 -116h-91l92 116h141zM399 0v74q-48 -87 -159 -87q-180 0 -180 212v339h119v-310q0 -32 3 -54t12.5 -44.5t30.5 -34t53 -11.5q121 0 121 167v287h119v-538h-119z" />
    <glyph glyph-name="Uogonek" unicode="&#x172;" horiz-adv-x="717" 
d="M376 -188q-29 0 -55 7t-47 28.5t-21 55.5q0 51 51 86q-128 10 -185 83t-57 230v423h127v-428q0 -106 36.5 -156t133.5 -50q95 0 132 52t37 158v424h127v-419q0 -149 -49 -220.5t-166 -97.5q-33 -8 -57.5 -27.5t-24.5 -38.5q0 -35 45 -35q27 0 46 7v-73q-36 -9 -73 -9z
" />
    <glyph glyph-name="uogonek" unicode="&#x173;" horiz-adv-x="585" 
d="M399 0v74q-48 -87 -159 -87q-180 0 -180 212v339h119v-310q0 -32 3 -54t12.5 -44.5t30.5 -34t53 -11.5q121 0 121 167v287h119v-538h-119zM398 0h120q-45 -22 -66.5 -39t-21.5 -38q0 -37 46 -37q8 0 42 9v-73q-33 -10 -64 -10q-56 0 -92.5 22.5t-36.5 69.5q0 59 73 96z
" />
    <glyph glyph-name="Wcircumflex" unicode="&#x174;" horiz-adv-x="896" 
d="M522 725l124 -561l110 561h133l-169 -725h-150l-122 556l-120 -556h-152l-170 725h138l116 -560l115 560h147zM501 886l135 -113h-122l-67 51l-68 -51h-121l138 113h105z" />
    <glyph glyph-name="wcircumflex" unicode="&#x175;" horiz-adv-x="734" 
d="M213 156l92 382h123l93 -382l79 382h129l-143 -538h-113l-106 398l-106 -398h-113l-143 538h129zM411 725l140 -116h-110l-79 48l-80 -48h-109l143 116h95z" />
    <glyph glyph-name="Ycircumflex" unicode="&#x176;" horiz-adv-x="643" 
d="M-5 725h145l180 -324l185 324h143l-267 -445v-280h-127v282zM374 886l135 -113h-122l-67 51l-68 -51h-121l138 113h105z" />
    <glyph glyph-name="ycircumflex" unicode="&#x177;" horiz-adv-x="496" 
d="M100 -175h-54v91h45q43 0 62 12.5t36 61.5l6 13l-195 535h130l122 -386l122 386h122l-189 -537q-39 -107 -78.5 -141.5t-128.5 -34.5zM297 725l140 -116h-110l-79 48l-80 -48h-109l143 116h95z" />
    <glyph glyph-name="Ydieresis" unicode="&#x178;" horiz-adv-x="643" 
d="M-5 725h145l180 -324l185 324h143l-267 -445v-280h-127v282zM150 884h105v-108h-105v108zM386 884h105v-108h-105v108z" />
    <glyph glyph-name="Zacute" unicode="&#x179;" horiz-adv-x="626" 
d="M588 725v-103l-405 -512h417v-110h-572v103l406 512h-374v110h528zM521 886l-155 -113h-104l105 113h154z" />
    <glyph glyph-name="zacute" unicode="&#x17a;" horiz-adv-x="494" 
d="M26 0v91l288 356h-268v91h416v-91l-289 -356h296v-91h-443zM434 725l-142 -116h-91l93 116h140z" />
    <glyph glyph-name="Zdotaccent" unicode="&#x17b;" horiz-adv-x="626" 
d="M588 725v-103l-405 -512h417v-110h-572v103l406 512h-374v110h528zM253 884h123v-108h-123v108z" />
    <glyph glyph-name="zdotaccent" unicode="&#x17c;" horiz-adv-x="494" 
d="M26 0v91l288 356h-268v91h416v-91l-289 -356h296v-91h-443zM205 725h105v-111h-105v111z" />
    <glyph glyph-name="Zcaron" unicode="&#x17d;" horiz-adv-x="626" 
d="M588 725v-103l-405 -512h417v-110h-572v103l406 512h-374v110h528zM280 773l-135 113h122l66 -52l69 52h121l-138 -113h-105z" />
    <glyph glyph-name="zcaron" unicode="&#x17e;" horiz-adv-x="494" 
d="M26 0v91l288 356h-268v91h416v-91l-289 -356h296v-91h-443zM208 609l-140 116h110l78 -48l81 48h109l-143 -116h-95z" />
    <glyph glyph-name="uni018F" unicode="&#x18f;" horiz-adv-x="775" 
d="M47 423h550q-6 101 -65 156t-144 55q-70 0 -121.5 -31.5t-72.5 -87.5h-129q30 112 116.5 167.5t204.5 55.5q159 0 251.5 -100t92.5 -273t-93.5 -275.5t-250.5 -102.5q-177 0 -266 124.5t-73 311.5zM386 91q89 0 146.5 58t65.5 167h-420q2 -107 61 -166t147 -59z" />
    <glyph glyph-name="uni0218" unicode="&#x218;" horiz-adv-x="648" 
d="M343 312l-88 17q-209 44 -209 205q0 95 82.5 149.5t191.5 54.5q113 0 188 -53.5t96 -162.5h-123q-27 112 -168 112q-51 0 -95 -24t-44 -72q0 -75 108 -96l89 -17q53 -10 93 -24t77.5 -38.5t57.5 -63.5t20 -91q0 -104 -86 -162.5t-202 -58.5q-130 0 -211.5 67t-93.5 186
h125q34 -149 186 -149q67 0 111 29t44 80q0 50 -41.5 75t-107.5 37zM273 -131v95h101v-102l-44 -89h-60l39 96h-36z" />
    <glyph glyph-name="uni0219" unicode="&#x219;" horiz-adv-x="526" 
d="M486 391h-112q-18 68 -118 68q-41 0 -70.5 -16.5t-29.5 -42.5q0 -50 72 -64l76 -15q45 -9 76.5 -19.5t59.5 -28.5t42 -46t14 -66q0 -81 -66 -127.5t-162 -46.5q-97 0 -160 49.5t-73 127.5h116q17 -87 121 -87q48 0 78 19t30 51q0 55 -93 74l-81 16q-76 16 -119 52
t-43 105t64.5 112.5t154.5 43.5q83 0 145 -41t78 -118zM214 -131v95h101v-102l-44 -89h-60l39 96h-36z" />
    <glyph glyph-name="uni021A" unicode="&#x21a;" horiz-adv-x="593" 
d="M245 -131v95h101v-102l-44 -89h-60l39 96h-36zM233 0v619h-228v106h583v-106h-228v-619h-127z" />
    <glyph glyph-name="uni021B" unicode="&#x21b;" horiz-adv-x="340" 
d="M84 538v142h119v-142h108v-86h-108v-293q0 -41 13 -54.5t51 -13.5h43v-91h-88q-85 0 -111.5 28.5t-26.5 112.5v311h-80v86h80zM111 -131v95h101v-102l-44 -89h-60l39 96h-36z" />
    <glyph glyph-name="uni0232" unicode="&#x232;" horiz-adv-x="643" 
d="M-5 725h145l180 -324l185 324h143l-267 -445v-280h-127v282zM474 786h-308v87h308v-87z" />
    <glyph glyph-name="uni0233" unicode="&#x233;" horiz-adv-x="496" 
d="M100 -175h-54v91h45q43 0 62 12.5t36 61.5l6 13l-195 535h130l122 -386l122 386h122l-189 -537q-39 -107 -78.5 -141.5t-128.5 -34.5zM402 628h-308v88h308v-88z" />
    <glyph glyph-name="uni0237" unicode="&#x237;" horiz-adv-x="253" 
d="M67 -13v551h119v-546q0 -101 -31.5 -134t-124.5 -33h-40v92h22q36 0 45.5 13t9.5 57z" />
    <glyph glyph-name="uni0259" unicode="&#x259;" horiz-adv-x="584" 
d="M32 302h401q-6 71 -48.5 110t-97.5 39q-101 0 -132 -75h-117q20 72 83.5 123t160.5 51q125 0 198.5 -82.5t73.5 -203.5t-74.5 -199t-189.5 -78q-123 0 -194.5 89.5t-63.5 225.5zM290 80q50 0 92.5 33t50.5 102h-280q2 -61 42 -98t95 -37z" />
    <glyph glyph-name="circumflex" unicode="&#x2c6;" horiz-adv-x="422" 
d="M260 725l140 -116h-110l-79 48l-80 -48h-109l143 116h95z" />
    </font>
</defs>
</svg>
